<?xml version="1.0" encoding="utf-8" standalone="no"?>
<!DOCTYPE svg PUBLIC "-//W3C//DTD SVG 1.1//EN"
  "http://www.w3.org/Graphics/SVG/1.1/DTD/svg11.dtd">
<svg xmlns:xlink="http://www.w3.org/1999/xlink" width="720pt" height="432pt" viewBox="0 0 720 432" xmlns="http://www.w3.org/2000/svg" version="1.1">
 <metadata>
  <rdf:RDF xmlns:dc="http://purl.org/dc/elements/1.1/" xmlns:cc="http://creativecommons.org/ns#" xmlns:rdf="http://www.w3.org/1999/02/22-rdf-syntax-ns#">
   <cc:Work>
    <dc:type rdf:resource="http://purl.org/dc/dcmitype/StillImage"/>
    <dc:date>2024-04-19T09:47:36.702136</dc:date>
    <dc:format>image/svg+xml</dc:format>
    <dc:creator>
     <cc:Agent>
      <dc:title>Matplotlib v3.8.0, https://matplotlib.org/</dc:title>
     </cc:Agent>
    </dc:creator>
   </cc:Work>
  </rdf:RDF>
 </metadata>
 <defs>
  <style type="text/css">*{stroke-linejoin: round; stroke-linecap: butt}</style>
 </defs>
 <g id="figure_1">
  <g id="patch_1">
   <path d="M 0 432 
L 720 432 
L 720 0 
L 0 0 
z
" style="fill: #ffffff"/>
  </g>
  <g id="axes_1">
   <g id="patch_2">
    <path d="M 90 384.48 
L 648 384.48 
L 648 51.84 
L 90 51.84 
z
" style="fill: #ffffff"/>
   </g>
   <g id="matplotlib.axis_1">
    <g id="xtick_1">
     <g id="line2d_1">
      <defs>
       <path id="mabe7529ce8" d="M 0 0 
L 0 3.5 
" style="stroke: #000000; stroke-width: 0.8"/>
      </defs>
      <g>
       <use xlink:href="#mabe7529ce8" x="115.363636" y="384.48" style="stroke: #000000; stroke-width: 0.8"/>
      </g>
     </g>
     <g id="text_1">
      <!-- 0.0 -->
      <g transform="translate(107.412074 399.078438) scale(0.1 -0.1)">
       <defs>
        <path id="DejaVuSans-30" d="M 2034 4250 
Q 1547 4250 1301 3770 
Q 1056 3291 1056 2328 
Q 1056 1369 1301 889 
Q 1547 409 2034 409 
Q 2525 409 2770 889 
Q 3016 1369 3016 2328 
Q 3016 3291 2770 3770 
Q 2525 4250 2034 4250 
z
M 2034 4750 
Q 2819 4750 3233 4129 
Q 3647 3509 3647 2328 
Q 3647 1150 3233 529 
Q 2819 -91 2034 -91 
Q 1250 -91 836 529 
Q 422 1150 422 2328 
Q 422 3509 836 4129 
Q 1250 4750 2034 4750 
z
" transform="scale(0.015625)"/>
        <path id="DejaVuSans-2e" d="M 684 794 
L 1344 794 
L 1344 0 
L 684 0 
L 684 794 
z
" transform="scale(0.015625)"/>
       </defs>
       <use xlink:href="#DejaVuSans-30"/>
       <use xlink:href="#DejaVuSans-2e" x="63.623047"/>
       <use xlink:href="#DejaVuSans-30" x="95.410156"/>
      </g>
     </g>
    </g>
    <g id="xtick_2">
     <g id="line2d_2">
      <g>
       <use xlink:href="#mabe7529ce8" x="216.818182" y="384.48" style="stroke: #000000; stroke-width: 0.8"/>
      </g>
     </g>
     <g id="text_2">
      <!-- 0.2 -->
      <g transform="translate(208.866619 399.078438) scale(0.1 -0.1)">
       <defs>
        <path id="DejaVuSans-32" d="M 1228 531 
L 3431 531 
L 3431 0 
L 469 0 
L 469 531 
Q 828 903 1448 1529 
Q 2069 2156 2228 2338 
Q 2531 2678 2651 2914 
Q 2772 3150 2772 3378 
Q 2772 3750 2511 3984 
Q 2250 4219 1831 4219 
Q 1534 4219 1204 4116 
Q 875 4013 500 3803 
L 500 4441 
Q 881 4594 1212 4672 
Q 1544 4750 1819 4750 
Q 2544 4750 2975 4387 
Q 3406 4025 3406 3419 
Q 3406 3131 3298 2873 
Q 3191 2616 2906 2266 
Q 2828 2175 2409 1742 
Q 1991 1309 1228 531 
z
" transform="scale(0.015625)"/>
       </defs>
       <use xlink:href="#DejaVuSans-30"/>
       <use xlink:href="#DejaVuSans-2e" x="63.623047"/>
       <use xlink:href="#DejaVuSans-32" x="95.410156"/>
      </g>
     </g>
    </g>
    <g id="xtick_3">
     <g id="line2d_3">
      <g>
       <use xlink:href="#mabe7529ce8" x="318.272727" y="384.48" style="stroke: #000000; stroke-width: 0.8"/>
      </g>
     </g>
     <g id="text_3">
      <!-- 0.4 -->
      <g transform="translate(310.321165 399.078438) scale(0.1 -0.1)">
       <defs>
        <path id="DejaVuSans-34" d="M 2419 4116 
L 825 1625 
L 2419 1625 
L 2419 4116 
z
M 2253 4666 
L 3047 4666 
L 3047 1625 
L 3713 1625 
L 3713 1100 
L 3047 1100 
L 3047 0 
L 2419 0 
L 2419 1100 
L 313 1100 
L 313 1709 
L 2253 4666 
z
" transform="scale(0.015625)"/>
       </defs>
       <use xlink:href="#DejaVuSans-30"/>
       <use xlink:href="#DejaVuSans-2e" x="63.623047"/>
       <use xlink:href="#DejaVuSans-34" x="95.410156"/>
      </g>
     </g>
    </g>
    <g id="xtick_4">
     <g id="line2d_4">
      <g>
       <use xlink:href="#mabe7529ce8" x="419.727273" y="384.48" style="stroke: #000000; stroke-width: 0.8"/>
      </g>
     </g>
     <g id="text_4">
      <!-- 0.6 -->
      <g transform="translate(411.77571 399.078438) scale(0.1 -0.1)">
       <defs>
        <path id="DejaVuSans-36" d="M 2113 2584 
Q 1688 2584 1439 2293 
Q 1191 2003 1191 1497 
Q 1191 994 1439 701 
Q 1688 409 2113 409 
Q 2538 409 2786 701 
Q 3034 994 3034 1497 
Q 3034 2003 2786 2293 
Q 2538 2584 2113 2584 
z
M 3366 4563 
L 3366 3988 
Q 3128 4100 2886 4159 
Q 2644 4219 2406 4219 
Q 1781 4219 1451 3797 
Q 1122 3375 1075 2522 
Q 1259 2794 1537 2939 
Q 1816 3084 2150 3084 
Q 2853 3084 3261 2657 
Q 3669 2231 3669 1497 
Q 3669 778 3244 343 
Q 2819 -91 2113 -91 
Q 1303 -91 875 529 
Q 447 1150 447 2328 
Q 447 3434 972 4092 
Q 1497 4750 2381 4750 
Q 2619 4750 2861 4703 
Q 3103 4656 3366 4563 
z
" transform="scale(0.015625)"/>
       </defs>
       <use xlink:href="#DejaVuSans-30"/>
       <use xlink:href="#DejaVuSans-2e" x="63.623047"/>
       <use xlink:href="#DejaVuSans-36" x="95.410156"/>
      </g>
     </g>
    </g>
    <g id="xtick_5">
     <g id="line2d_5">
      <g>
       <use xlink:href="#mabe7529ce8" x="521.181818" y="384.48" style="stroke: #000000; stroke-width: 0.8"/>
      </g>
     </g>
     <g id="text_5">
      <!-- 0.8 -->
      <g transform="translate(513.230256 399.078438) scale(0.1 -0.1)">
       <defs>
        <path id="DejaVuSans-38" d="M 2034 2216 
Q 1584 2216 1326 1975 
Q 1069 1734 1069 1313 
Q 1069 891 1326 650 
Q 1584 409 2034 409 
Q 2484 409 2743 651 
Q 3003 894 3003 1313 
Q 3003 1734 2745 1975 
Q 2488 2216 2034 2216 
z
M 1403 2484 
Q 997 2584 770 2862 
Q 544 3141 544 3541 
Q 544 4100 942 4425 
Q 1341 4750 2034 4750 
Q 2731 4750 3128 4425 
Q 3525 4100 3525 3541 
Q 3525 3141 3298 2862 
Q 3072 2584 2669 2484 
Q 3125 2378 3379 2068 
Q 3634 1759 3634 1313 
Q 3634 634 3220 271 
Q 2806 -91 2034 -91 
Q 1263 -91 848 271 
Q 434 634 434 1313 
Q 434 1759 690 2068 
Q 947 2378 1403 2484 
z
M 1172 3481 
Q 1172 3119 1398 2916 
Q 1625 2713 2034 2713 
Q 2441 2713 2670 2916 
Q 2900 3119 2900 3481 
Q 2900 3844 2670 4047 
Q 2441 4250 2034 4250 
Q 1625 4250 1398 4047 
Q 1172 3844 1172 3481 
z
" transform="scale(0.015625)"/>
       </defs>
       <use xlink:href="#DejaVuSans-30"/>
       <use xlink:href="#DejaVuSans-2e" x="63.623047"/>
       <use xlink:href="#DejaVuSans-38" x="95.410156"/>
      </g>
     </g>
    </g>
    <g id="xtick_6">
     <g id="line2d_6">
      <g>
       <use xlink:href="#mabe7529ce8" x="622.636364" y="384.48" style="stroke: #000000; stroke-width: 0.8"/>
      </g>
     </g>
     <g id="text_6">
      <!-- 1.0 -->
      <g transform="translate(614.684801 399.078438) scale(0.1 -0.1)">
       <defs>
        <path id="DejaVuSans-31" d="M 794 531 
L 1825 531 
L 1825 4091 
L 703 3866 
L 703 4441 
L 1819 4666 
L 2450 4666 
L 2450 531 
L 3481 531 
L 3481 0 
L 794 0 
L 794 531 
z
" transform="scale(0.015625)"/>
       </defs>
       <use xlink:href="#DejaVuSans-31"/>
       <use xlink:href="#DejaVuSans-2e" x="63.623047"/>
       <use xlink:href="#DejaVuSans-30" x="95.410156"/>
      </g>
     </g>
    </g>
    <g id="text_7">
     <!-- $t$ -->
     <g transform="translate(367 412.756563) scale(0.1 -0.1)">
      <defs>
       <path id="DejaVuSans-Oblique-74" d="M 2706 3500 
L 2619 3053 
L 1472 3053 
L 1100 1153 
Q 1081 1047 1072 975 
Q 1063 903 1063 863 
Q 1063 663 1183 572 
Q 1303 481 1569 481 
L 2150 481 
L 2053 0 
L 1503 0 
Q 991 0 739 200 
Q 488 400 488 806 
Q 488 878 497 964 
Q 506 1050 525 1153 
L 897 3053 
L 409 3053 
L 500 3500 
L 978 3500 
L 1172 4494 
L 1747 4494 
L 1556 3500 
L 2706 3500 
z
" transform="scale(0.015625)"/>
      </defs>
      <use xlink:href="#DejaVuSans-Oblique-74" transform="translate(0 0.78125)"/>
     </g>
    </g>
   </g>
   <g id="matplotlib.axis_2">
    <g id="ytick_1">
     <g id="line2d_7">
      <defs>
       <path id="mec2c34656e" d="M 0 0 
L -3.5 0 
" style="stroke: #000000; stroke-width: 0.8"/>
      </defs>
      <g>
       <use xlink:href="#mec2c34656e" x="90" y="359.421556" style="stroke: #000000; stroke-width: 0.8"/>
      </g>
     </g>
     <g id="text_8">
      <!-- 0.040 -->
      <g transform="translate(54.371875 363.220775) scale(0.1 -0.1)">
       <use xlink:href="#DejaVuSans-30"/>
       <use xlink:href="#DejaVuSans-2e" x="63.623047"/>
       <use xlink:href="#DejaVuSans-30" x="95.410156"/>
       <use xlink:href="#DejaVuSans-34" x="159.033203"/>
       <use xlink:href="#DejaVuSans-30" x="222.65625"/>
      </g>
     </g>
    </g>
    <g id="ytick_2">
     <g id="line2d_8">
      <g>
       <use xlink:href="#mec2c34656e" x="90" y="299.646378" style="stroke: #000000; stroke-width: 0.8"/>
      </g>
     </g>
     <g id="text_9">
      <!-- 0.045 -->
      <g transform="translate(54.371875 303.445597) scale(0.1 -0.1)">
       <defs>
        <path id="DejaVuSans-35" d="M 691 4666 
L 3169 4666 
L 3169 4134 
L 1269 4134 
L 1269 2991 
Q 1406 3038 1543 3061 
Q 1681 3084 1819 3084 
Q 2600 3084 3056 2656 
Q 3513 2228 3513 1497 
Q 3513 744 3044 326 
Q 2575 -91 1722 -91 
Q 1428 -91 1123 -41 
Q 819 9 494 109 
L 494 744 
Q 775 591 1075 516 
Q 1375 441 1709 441 
Q 2250 441 2565 725 
Q 2881 1009 2881 1497 
Q 2881 1984 2565 2268 
Q 2250 2553 1709 2553 
Q 1456 2553 1204 2497 
Q 953 2441 691 2322 
L 691 4666 
z
" transform="scale(0.015625)"/>
       </defs>
       <use xlink:href="#DejaVuSans-30"/>
       <use xlink:href="#DejaVuSans-2e" x="63.623047"/>
       <use xlink:href="#DejaVuSans-30" x="95.410156"/>
       <use xlink:href="#DejaVuSans-34" x="159.033203"/>
       <use xlink:href="#DejaVuSans-35" x="222.65625"/>
      </g>
     </g>
    </g>
    <g id="ytick_3">
     <g id="line2d_9">
      <g>
       <use xlink:href="#mec2c34656e" x="90" y="239.8712" style="stroke: #000000; stroke-width: 0.8"/>
      </g>
     </g>
     <g id="text_10">
      <!-- 0.050 -->
      <g transform="translate(54.371875 243.670419) scale(0.1 -0.1)">
       <use xlink:href="#DejaVuSans-30"/>
       <use xlink:href="#DejaVuSans-2e" x="63.623047"/>
       <use xlink:href="#DejaVuSans-30" x="95.410156"/>
       <use xlink:href="#DejaVuSans-35" x="159.033203"/>
       <use xlink:href="#DejaVuSans-30" x="222.65625"/>
      </g>
     </g>
    </g>
    <g id="ytick_4">
     <g id="line2d_10">
      <g>
       <use xlink:href="#mec2c34656e" x="90" y="180.096022" style="stroke: #000000; stroke-width: 0.8"/>
      </g>
     </g>
     <g id="text_11">
      <!-- 0.055 -->
      <g transform="translate(54.371875 183.895241) scale(0.1 -0.1)">
       <use xlink:href="#DejaVuSans-30"/>
       <use xlink:href="#DejaVuSans-2e" x="63.623047"/>
       <use xlink:href="#DejaVuSans-30" x="95.410156"/>
       <use xlink:href="#DejaVuSans-35" x="159.033203"/>
       <use xlink:href="#DejaVuSans-35" x="222.65625"/>
      </g>
     </g>
    </g>
    <g id="ytick_5">
     <g id="line2d_11">
      <g>
       <use xlink:href="#mec2c34656e" x="90" y="120.320844" style="stroke: #000000; stroke-width: 0.8"/>
      </g>
     </g>
     <g id="text_12">
      <!-- 0.060 -->
      <g transform="translate(54.371875 124.120063) scale(0.1 -0.1)">
       <use xlink:href="#DejaVuSans-30"/>
       <use xlink:href="#DejaVuSans-2e" x="63.623047"/>
       <use xlink:href="#DejaVuSans-30" x="95.410156"/>
       <use xlink:href="#DejaVuSans-36" x="159.033203"/>
       <use xlink:href="#DejaVuSans-30" x="222.65625"/>
      </g>
     </g>
    </g>
    <g id="ytick_6">
     <g id="line2d_12">
      <g>
       <use xlink:href="#mec2c34656e" x="90" y="60.545666" style="stroke: #000000; stroke-width: 0.8"/>
      </g>
     </g>
     <g id="text_13">
      <!-- 0.065 -->
      <g transform="translate(54.371875 64.344885) scale(0.1 -0.1)">
       <use xlink:href="#DejaVuSans-30"/>
       <use xlink:href="#DejaVuSans-2e" x="63.623047"/>
       <use xlink:href="#DejaVuSans-30" x="95.410156"/>
       <use xlink:href="#DejaVuSans-36" x="159.033203"/>
       <use xlink:href="#DejaVuSans-35" x="222.65625"/>
      </g>
     </g>
    </g>
    <g id="text_14">
     <!-- $V_t$ -->
     <g transform="translate(48.292188 223.11) rotate(-90) scale(0.1 -0.1)">
      <defs>
       <path id="DejaVuSans-Oblique-56" d="M 1319 0 
L 500 4666 
L 1119 4666 
L 1797 653 
L 4063 4666 
L 4750 4666 
L 2053 0 
L 1319 0 
z
" transform="scale(0.015625)"/>
      </defs>
      <use xlink:href="#DejaVuSans-Oblique-56" transform="translate(0 0.09375)"/>
      <use xlink:href="#DejaVuSans-Oblique-74" transform="translate(68.408203 -16.3125) scale(0.7)"/>
     </g>
    </g>
   </g>
   <g id="line2d_13">
    <path d="M 115.363636 368.985585 
L 115.870909 364.690119 
L 116.378182 366.059209 
L 116.885455 364.094048 
L 117.392727 364.484363 
L 117.9 368.415574 
L 118.407273 369.36 
L 118.914545 365.337351 
L 119.421818 362.34682 
L 119.929091 361.975186 
L 120.436364 367.494943 
L 120.943636 365.556611 
L 121.450909 364.979358 
L 121.958182 362.028483 
L 122.465455 362.744266 
L 122.972727 365.049943 
L 123.48 361.58076 
L 123.987273 361.566519 
L 124.494545 362.739971 
L 125.001818 360.038921 
L 125.509091 362.765169 
L 126.016364 357.544427 
L 126.523636 356.335913 
L 127.538182 347.763646 
L 128.045455 348.396423 
L 128.552727 344.359286 
L 129.06 343.955166 
L 129.567273 342.059563 
L 130.581818 335.057424 
L 131.596364 338.769646 
L 132.103636 342.315201 
L 132.610909 341.611808 
L 133.118182 345.825071 
L 133.625455 347.461195 
L 134.132727 341.758234 
L 134.64 342.462653 
L 135.147273 342.740027 
L 135.654545 344.730499 
L 136.161818 346.090191 
L 136.669091 345.238556 
L 137.176364 346.633871 
L 137.683636 346.691049 
L 138.190909 346.070935 
L 138.698182 344.529822 
L 139.205455 344.339661 
L 139.712727 348.41561 
L 140.22 346.517437 
L 140.727273 343.058194 
L 141.234545 345.193955 
L 141.741818 346.45326 
L 142.249091 348.011123 
L 142.756364 354.070289 
L 143.263636 355.850379 
L 143.770909 353.752714 
L 144.278182 354.26799 
L 145.292727 353.616553 
L 145.8 352.516799 
L 146.307273 354.571564 
L 146.814545 357.161812 
L 147.321818 362.511809 
L 147.829091 359.428559 
L 148.843636 350.46738 
L 149.858182 356.908128 
L 150.365455 357.209503 
L 150.872727 356.587225 
L 151.38 358.163145 
L 151.887273 356.566552 
L 152.394545 352.401888 
L 152.901818 350.911148 
L 153.409091 353.150911 
L 153.916364 350.088862 
L 154.423636 352.58902 
L 154.930909 353.449705 
L 155.438182 347.597234 
L 155.945455 349.9932 
L 156.452727 353.709247 
L 156.96 354.891448 
L 157.467273 360.098432 
L 157.974545 361.170665 
L 158.481818 360.261572 
L 158.989091 360.426346 
L 159.496364 358.417472 
L 160.003636 360.935914 
L 160.510909 364.958586 
L 161.018182 364.348497 
L 161.525455 366.642297 
L 162.032727 362.310178 
L 162.54 366.288043 
L 163.554545 366.630453 
L 164.061818 364.344514 
L 164.569091 365.38763 
L 165.076364 363.338694 
L 165.583636 361.873283 
L 166.090909 359.437962 
L 166.598182 357.673061 
L 167.105455 361.982672 
L 167.612727 359.395297 
L 168.12 358.417117 
L 168.627273 359.498617 
L 169.134545 362.350231 
L 169.641818 362.361969 
L 170.149091 362.955178 
L 170.656364 360.797907 
L 171.163636 352.947109 
L 172.178182 348.395405 
L 172.685455 346.775514 
L 173.192727 343.978675 
L 173.7 340.481653 
L 174.207273 342.94273 
L 174.714545 346.707985 
L 175.221818 348.074515 
L 175.729091 351.273622 
L 176.236364 349.174641 
L 176.743636 347.705324 
L 177.250909 347.170017 
L 177.758182 343.872914 
L 178.265455 345.90226 
L 178.772727 345.663401 
L 179.28 348.520943 
L 179.787273 344.517442 
L 180.294545 343.91455 
L 180.801818 339.408537 
L 181.309091 339.489523 
L 181.816364 335.583693 
L 182.323636 340.753853 
L 182.830909 338.925913 
L 183.338182 335.158573 
L 183.845455 332.536183 
L 184.352727 330.706123 
L 184.86 330.534496 
L 185.367273 331.969018 
L 185.874545 333.950655 
L 186.381818 333.208464 
L 186.889091 331.641963 
L 187.396364 335.453301 
L 187.903636 341.786595 
L 188.410909 341.263878 
L 188.918182 341.018955 
L 189.425455 342.203672 
L 189.932727 340.67599 
L 190.44 335.947747 
L 190.947273 338.374733 
L 191.454545 339.924532 
L 191.961818 339.967392 
L 192.469091 343.895947 
L 193.483636 345.524449 
L 193.990909 348.560588 
L 194.498182 348.281096 
L 195.005455 344.404301 
L 195.512727 344.793469 
L 196.02 345.937543 
L 196.527273 346.378778 
L 197.541818 344.701264 
L 198.049091 348.727145 
L 198.556364 348.12269 
L 199.063636 339.461352 
L 199.570909 346.062951 
L 200.078182 350.574033 
L 200.585455 345.793157 
L 201.092727 344.817238 
L 201.6 342.681754 
L 202.107273 339.529834 
L 202.614545 341.040455 
L 203.121818 341.732932 
L 203.629091 340.708453 
L 204.643636 336.555855 
L 205.150909 343.71253 
L 205.658182 339.114015 
L 206.165455 340.895884 
L 206.672727 340.486344 
L 207.18 338.281626 
L 207.687273 339.449458 
L 208.194545 341.65977 
L 208.701818 341.979767 
L 209.209091 340.401574 
L 209.716364 340.586836 
L 210.223636 343.075046 
L 211.238182 339.900906 
L 211.745455 341.752656 
L 212.252727 342.345332 
L 212.76 345.834638 
L 213.774545 347.292279 
L 214.281818 349.019727 
L 214.789091 348.665875 
L 215.296364 350.261312 
L 215.803636 349.858408 
L 216.310909 347.66342 
L 216.818182 346.189085 
L 217.325455 347.621422 
L 217.832727 347.66232 
L 218.34 348.161743 
L 218.847273 344.403222 
L 219.354545 344.674452 
L 219.861818 345.174951 
L 220.876364 347.662176 
L 221.383636 349.866488 
L 221.890909 346.538366 
L 222.398182 349.410433 
L 222.905455 349.276255 
L 223.412727 344.927723 
L 223.92 343.721414 
L 224.934545 342.18453 
L 225.441818 339.484815 
L 225.949091 347.97708 
L 226.456364 345.108813 
L 226.963636 344.787673 
L 227.470909 344.310853 
L 227.978182 345.925331 
L 228.485455 341.341741 
L 228.992727 346.082422 
L 229.5 344.441064 
L 230.007273 345.813767 
L 230.514545 345.305771 
L 231.021818 347.92262 
L 231.529091 348.063407 
L 232.036364 347.288324 
L 232.543636 347.514559 
L 233.050909 351.777418 
L 233.558182 352.716095 
L 234.065455 348.233269 
L 234.572727 351.790629 
L 235.08 356.77837 
L 235.587273 352.096501 
L 236.094545 352.977457 
L 236.601818 349.280341 
L 237.109091 349.383291 
L 237.616364 348.495944 
L 238.123636 346.774043 
L 238.630909 347.353684 
L 239.138182 342.634528 
L 239.645455 343.296256 
L 240.152727 343.663692 
L 240.66 340.949646 
L 241.674545 330.702763 
L 242.181818 326.031714 
L 242.689091 324.936948 
L 243.703636 323.732452 
L 244.210909 325.625272 
L 244.718182 324.799477 
L 245.225455 321.857893 
L 246.24 312.351585 
L 246.747273 313.220149 
L 247.254545 312.718641 
L 248.269091 306.448827 
L 248.776364 305.326403 
L 249.283636 306.492584 
L 249.790909 308.186565 
L 250.298182 301.718109 
L 250.805455 300.024604 
L 251.312727 297.042795 
L 251.82 298.533059 
L 252.327273 301.21348 
L 252.834545 293.405654 
L 253.341818 298.239482 
L 253.849091 295.308514 
L 254.356364 290.999544 
L 254.863636 292.249162 
L 255.370909 288.683484 
L 255.878182 282.874019 
L 256.385455 286.986651 
L 256.892727 287.455012 
L 257.4 286.79107 
L 257.907273 282.67148 
L 258.414545 280.433095 
L 258.921818 281.186139 
L 259.429091 284.355133 
L 259.936364 282.202664 
L 260.443636 281.81497 
L 260.950909 281.121398 
L 261.458182 280.082357 
L 261.965455 284.731839 
L 262.472727 282.676693 
L 262.98 287.490705 
L 263.487273 285.4114 
L 263.994545 284.642356 
L 264.501818 286.318475 
L 265.009091 285.563458 
L 265.516364 285.365482 
L 266.023636 289.580946 
L 266.530909 287.485221 
L 267.038182 287.387114 
L 267.545455 283.22595 
L 268.052727 283.463621 
L 268.56 283.351415 
L 269.574545 282.135267 
L 270.081818 283.740914 
L 270.589091 283.014621 
L 271.096364 280.660326 
L 271.603636 281.518764 
L 272.110909 280.711257 
L 272.618182 277.920255 
L 273.125455 279.733506 
L 273.632727 278.352383 
L 274.14 283.666342 
L 274.647273 276.786239 
L 275.154545 272.138041 
L 275.661818 271.719843 
L 276.169091 266.777108 
L 276.676364 266.46589 
L 277.183636 264.39032 
L 277.690909 263.716495 
L 278.198182 262.169088 
L 278.705455 261.752417 
L 279.212727 259.783008 
L 279.72 255.53217 
L 280.227273 248.70635 
L 280.734545 248.677012 
L 281.749091 240.317704 
L 282.256364 240.267873 
L 282.763636 240.86669 
L 283.270909 241.015861 
L 284.285455 234.16826 
L 284.792727 233.811992 
L 285.3 231.000939 
L 285.807273 230.362382 
L 286.314545 230.296455 
L 286.821818 231.477724 
L 287.329091 233.762804 
L 287.836364 233.439491 
L 288.343636 232.729223 
L 288.850909 229.795753 
L 289.358182 227.541691 
L 289.865455 226.774962 
L 290.372727 232.025625 
L 290.88 229.603713 
L 291.387273 230.648816 
L 291.894545 230.972897 
L 292.909091 236.91694 
L 293.416364 231.010085 
L 293.923636 230.737651 
L 294.430909 230.200203 
L 294.938182 232.366203 
L 295.445455 233.663077 
L 295.952727 230.885801 
L 296.46 232.320832 
L 296.967273 224.732518 
L 297.981818 218.027106 
L 298.489091 224.447394 
L 298.996364 220.060824 
L 299.503636 219.331936 
L 300.518182 220.005503 
L 301.025455 214.407388 
L 301.532727 211.568253 
L 302.04 217.522914 
L 302.547273 216.02582 
L 303.054545 211.736934 
L 303.561818 209.091156 
L 304.069091 214.233091 
L 304.576364 215.986167 
L 305.083636 219.031271 
L 305.590909 220.260032 
L 306.098182 216.008009 
L 306.605455 216.684781 
L 307.112727 215.054981 
L 308.127273 222.582834 
L 308.634545 219.899506 
L 309.141818 219.511693 
L 309.649091 224.669901 
L 310.156364 224.967654 
L 311.170909 220.157123 
L 311.678182 220.618145 
L 312.185455 216.226114 
L 312.692727 217.952904 
L 313.2 212.652808 
L 313.707273 210.06392 
L 314.214545 209.91686 
L 314.721818 214.973057 
L 315.229091 214.986159 
L 315.736364 213.436008 
L 316.243636 210.628264 
L 316.750909 215.295059 
L 317.258182 210.741947 
L 317.765455 210.570396 
L 318.272727 213.320421 
L 318.78 213.550253 
L 319.287273 211.9695 
L 319.794545 209.210959 
L 320.301818 209.33075 
L 320.809091 208.424075 
L 321.316364 205.379443 
L 321.823636 205.910592 
L 322.838182 198.215753 
L 323.345455 195.577645 
L 323.852727 191.296006 
L 324.36 193.912081 
L 324.867273 194.50574 
L 325.374545 198.532669 
L 325.881818 197.044315 
L 326.389091 199.251416 
L 326.896364 190.615125 
L 327.403636 193.584147 
L 327.910909 193.52167 
L 328.418182 193.923534 
L 328.925455 188.182196 
L 329.432727 188.491115 
L 329.94 191.780517 
L 330.447273 191.481953 
L 330.954545 187.801406 
L 331.461818 189.186418 
L 331.969091 184.892939 
L 332.476364 184.52367 
L 332.983636 182.845045 
L 333.490909 183.439393 
L 333.998182 187.898881 
L 334.505455 185.601802 
L 335.012727 188.7464 
L 335.52 193.148608 
L 336.027273 195.21769 
L 336.534545 188.46085 
L 337.041818 189.728246 
L 337.549091 185.088407 
L 338.056364 189.003333 
L 338.563636 190.47768 
L 339.070909 189.586858 
L 339.578182 185.436128 
L 340.085455 188.082493 
L 340.592727 192.607554 
L 341.1 195.010532 
L 341.607273 190.404547 
L 342.114545 194.050064 
L 342.621818 192.392702 
L 343.129091 193.798508 
L 343.636364 190.065036 
L 344.143636 184.896088 
L 344.650909 184.923029 
L 345.158182 183.583585 
L 345.665455 179.643112 
L 346.172727 172.761268 
L 346.68 168.80409 
L 347.187273 175.197078 
L 347.694545 174.188432 
L 348.201818 166.63801 
L 348.709091 163.283425 
L 349.216364 162.478894 
L 349.723636 155.11535 
L 350.230909 154.066903 
L 351.245455 165.185892 
L 351.752727 166.15781 
L 352.26 165.697657 
L 352.767273 162.982501 
L 353.274545 166.180409 
L 353.781818 164.95172 
L 354.289091 166.042288 
L 355.810909 155.634269 
L 356.825455 167.961336 
L 357.332727 171.698564 
L 357.84 172.438804 
L 358.347273 172.481161 
L 358.854545 169.439946 
L 359.361818 169.906794 
L 359.869091 176.009499 
L 360.376364 178.962291 
L 360.883636 171.20847 
L 361.390909 171.154291 
L 361.898182 174.291787 
L 362.405455 169.785497 
L 362.912727 174.848465 
L 364.434545 179.531216 
L 364.941818 178.418549 
L 365.449091 180.769438 
L 365.956364 179.042155 
L 366.463636 185.84033 
L 366.970909 184.399147 
L 367.478182 188.001984 
L 367.985455 183.113505 
L 368.492727 184.348347 
L 369 196.558153 
L 369.507273 201.116587 
L 370.014545 199.985007 
L 370.521818 196.129759 
L 371.029091 199.919849 
L 372.043636 204.434652 
L 372.550909 201.639342 
L 373.058182 203.882732 
L 373.565455 202.175941 
L 374.072727 205.449751 
L 374.58 201.111968 
L 375.087273 201.337247 
L 375.594545 200.135819 
L 376.101818 200.380791 
L 377.116364 199.988154 
L 377.623636 202.192201 
L 378.130909 202.679781 
L 379.145455 199.24 
L 379.652727 195.297436 
L 380.16 194.672673 
L 380.667273 202.177055 
L 381.174545 199.486026 
L 381.681818 203.114387 
L 382.189091 201.876159 
L 382.696364 202.209437 
L 383.203636 203.299563 
L 383.710909 193.788879 
L 384.218182 191.946834 
L 384.725455 195.586012 
L 385.232727 197.699273 
L 385.74 191.826081 
L 386.247273 190.669937 
L 386.754545 193.987581 
L 387.261818 194.844666 
L 387.769091 200.20173 
L 388.276364 207.992387 
L 388.783636 209.581794 
L 389.290909 205.634394 
L 389.798182 198.844901 
L 390.305455 195.287046 
L 390.812727 194.062831 
L 391.32 191.578574 
L 391.827273 188.411787 
L 392.841818 183.714639 
L 393.349091 182.307214 
L 393.856364 188.27347 
L 394.363636 188.19495 
L 394.870909 183.494406 
L 395.378182 184.776181 
L 395.885455 187.94673 
L 396.392727 187.933044 
L 396.9 187.71901 
L 397.914545 184.222291 
L 398.421818 185.631251 
L 398.929091 184.658506 
L 399.436364 184.129128 
L 399.943636 182.669485 
L 400.450909 184.922245 
L 400.958182 178.052697 
L 401.972727 190.569936 
L 402.48 186.406359 
L 402.987273 185.298851 
L 403.494545 180.231929 
L 404.001818 182.19585 
L 404.509091 182.947507 
L 405.016364 184.939273 
L 405.523636 186.068972 
L 406.030909 183.931331 
L 406.538182 185.794298 
L 407.045455 183.90516 
L 407.552727 183.3775 
L 408.06 186.369225 
L 408.567273 187.856712 
L 409.074545 184.688417 
L 409.581818 182.824931 
L 410.596364 174.661146 
L 411.103636 174.415778 
L 411.610909 173.833893 
L 412.625455 175.127329 
L 413.132727 170.113101 
L 414.147273 182.955869 
L 414.654545 187.207399 
L 415.161818 188.293565 
L 415.669091 187.637878 
L 416.683636 197.79228 
L 417.190909 198.529933 
L 417.698182 197.823413 
L 418.205455 203.295675 
L 418.712727 203.157188 
L 419.22 193.511426 
L 419.727273 194.487038 
L 420.234545 190.904004 
L 420.741818 189.495006 
L 421.249091 186.310796 
L 421.756364 186.846022 
L 422.770909 179.593276 
L 423.278182 186.478402 
L 423.785455 190.513804 
L 424.292727 191.044134 
L 425.307273 185.682872 
L 425.814545 185.239844 
L 426.321818 184.503873 
L 426.829091 176.702591 
L 427.336364 181.057068 
L 427.843636 177.150808 
L 428.350909 184.462085 
L 428.858182 189.268576 
L 429.365455 186.0328 
L 430.38 169.053715 
L 430.887273 171.316148 
L 431.394545 171.093643 
L 431.901818 172.836776 
L 432.409091 169.65628 
L 432.916364 164.121179 
L 433.423636 160.537924 
L 433.930909 159.089199 
L 434.438182 149.681484 
L 434.945455 152.29847 
L 435.452727 152.531112 
L 435.96 154.198567 
L 436.467273 152.92586 
L 436.974545 150.948252 
L 437.481818 153.810517 
L 438.496364 161.779428 
L 439.003636 156.519843 
L 439.510909 156.050608 
L 440.018182 152.415525 
L 440.525455 150.94852 
L 441.032727 152.798913 
L 441.54 154.071471 
L 442.047273 154.315799 
L 442.554545 153.843485 
L 443.061818 155.808591 
L 443.569091 155.887337 
L 444.076364 155.233977 
L 444.583636 150.980395 
L 445.090909 149.22319 
L 445.598182 150.464661 
L 446.105455 148.566834 
L 446.612727 147.67768 
L 447.12 148.50001 
L 447.627273 147.694593 
L 449.149091 134.742988 
L 449.656364 140.599907 
L 450.163636 138.43903 
L 450.670909 140.092611 
L 451.178182 141.152641 
L 452.192727 152.748788 
L 452.7 148.909068 
L 453.207273 147.431609 
L 453.714545 150.095235 
L 454.221818 147.674267 
L 454.729091 147.484594 
L 455.743636 140.959075 
L 456.250909 139.606459 
L 456.758182 139.019661 
L 457.265455 137.355942 
L 457.772727 132.628298 
L 458.28 133.983786 
L 458.787273 132.373488 
L 459.294545 133.209947 
L 459.801818 133.056119 
L 460.309091 127.035285 
L 460.816364 126.713873 
L 461.323636 125.586684 
L 461.830909 126.575754 
L 462.338182 124.871287 
L 462.845455 122.000219 
L 463.352727 123.294641 
L 463.86 119.456979 
L 464.874545 126.797135 
L 465.381818 119.535604 
L 465.889091 116.497969 
L 466.396364 118.363296 
L 467.410909 112.153797 
L 467.918182 106.614766 
L 468.425455 103.980655 
L 468.932727 103.974484 
L 469.44 105.59259 
L 469.947273 105.992138 
L 470.454545 105.757547 
L 470.961818 108.655114 
L 471.976364 115.51716 
L 472.483636 112.325168 
L 472.990909 107.54931 
L 473.498182 111.071301 
L 474.512727 104.45664 
L 475.02 102.230891 
L 475.527273 107.245412 
L 476.034545 110.711454 
L 476.541818 108.312439 
L 477.049091 110.05885 
L 477.556364 110.21346 
L 478.063636 108.949695 
L 478.570909 108.429363 
L 479.078182 106.745947 
L 479.585455 109.016819 
L 480.092727 114.031817 
L 480.6 115.495959 
L 481.107273 120.101501 
L 481.614545 118.287897 
L 482.121818 113.259327 
L 483.136364 109.612708 
L 484.150909 114.408305 
L 484.658182 122.342067 
L 485.165455 122.928966 
L 485.672727 126.611634 
L 486.687273 113.156846 
L 487.194545 115.434391 
L 487.701818 113.169268 
L 488.209091 111.458804 
L 488.716364 107.331655 
L 489.223636 108.928164 
L 489.730909 115.739385 
L 490.238182 112.220956 
L 490.745455 117.548095 
L 491.252727 118.2353 
L 491.76 121.341837 
L 492.267273 119.29458 
L 492.774545 122.263656 
L 493.281818 122.38312 
L 493.789091 126.484193 
L 494.296364 127.796767 
L 494.803636 131.106386 
L 495.310909 130.187181 
L 495.818182 132.933212 
L 496.325455 136.503168 
L 496.832727 134.151282 
L 497.34 130.584297 
L 498.354545 142.491272 
L 499.369091 146.760784 
L 499.876364 150.353886 
L 500.383636 148.437819 
L 500.890909 141.640327 
L 501.398182 143.437153 
L 501.905455 146.579969 
L 502.412727 140.226742 
L 502.92 143.388996 
L 503.427273 134.6932 
L 503.934545 129.719228 
L 504.441818 126.505573 
L 504.949091 126.895289 
L 505.456364 131.148708 
L 506.470909 120.647734 
L 506.978182 118.317232 
L 507.992727 118.984097 
L 508.5 119.565937 
L 509.007273 116.546965 
L 510.529091 125.415713 
L 511.036364 123.084472 
L 511.543636 119.721042 
L 512.050909 119.95788 
L 512.558182 116.89375 
L 513.065455 117.081291 
L 513.572727 117.429727 
L 514.08 122.510175 
L 514.587273 130.390086 
L 515.094545 131.438498 
L 515.601818 133.41489 
L 516.109091 132.95921 
L 516.616364 133.397035 
L 517.123636 130.93793 
L 517.630909 130.399298 
L 518.138182 132.105779 
L 518.645455 132.906603 
L 519.152727 136.964438 
L 519.66 134.846781 
L 520.167273 134.192871 
L 520.674545 134.897118 
L 521.181818 133.465916 
L 521.689091 133.377683 
L 522.196364 135.982814 
L 522.703636 139.714594 
L 523.210909 141.251893 
L 523.718182 137.354106 
L 524.225455 144.107839 
L 524.732727 146.180866 
L 525.24 144.50334 
L 525.747273 149.558641 
L 526.254545 148.770997 
L 526.761818 146.769182 
L 527.269091 143.723248 
L 527.776364 142.117336 
L 528.283636 139.595181 
L 528.790909 136.186801 
L 529.298182 142.170196 
L 529.805455 149.74716 
L 530.312727 150.524381 
L 530.82 155.389017 
L 531.327273 158.309155 
L 531.834545 155.880526 
L 532.849091 160.728321 
L 533.356364 158.147687 
L 533.863636 148.268045 
L 534.370909 146.116963 
L 534.878182 149.093456 
L 535.385455 148.165777 
L 535.892727 145.525244 
L 536.4 147.254975 
L 536.907273 143.418869 
L 537.414545 144.716857 
L 537.921818 149.827509 
L 538.429091 149.348847 
L 538.936364 143.215238 
L 539.443636 141.560933 
L 539.950909 142.75313 
L 540.458182 143.611907 
L 540.965455 140.130912 
L 541.472727 140.163086 
L 541.98 138.818573 
L 542.487273 138.908803 
L 542.994545 142.20333 
L 543.501818 139.70726 
L 544.009091 138.170053 
L 544.516364 138.447849 
L 545.530909 126.748806 
L 546.038182 127.988817 
L 546.545455 128.647211 
L 547.052727 131.20327 
L 547.56 132.740551 
L 548.067273 126.7639 
L 548.574545 128.743582 
L 549.081818 127.179798 
L 549.589091 126.446532 
L 550.096364 122.661995 
L 551.110909 112.800968 
L 551.618182 121.783181 
L 552.125455 124.455221 
L 552.632727 124.70729 
L 553.14 119.674869 
L 554.154545 123.200563 
L 554.661818 123.510106 
L 555.169091 123.304534 
L 555.676364 115.829201 
L 556.183636 112.513872 
L 556.690909 110.687571 
L 557.198182 113.068704 
L 557.705455 111.413731 
L 558.212727 108.130793 
L 558.72 106.885423 
L 559.227273 108.751042 
L 559.734545 107.395033 
L 560.749091 101.040099 
L 561.256364 103.04495 
L 562.270909 108.48051 
L 563.285455 101.740356 
L 564.3 105.754733 
L 564.807273 101.731017 
L 565.314545 104.853522 
L 565.821818 103.711069 
L 566.329091 100.391976 
L 566.836364 98.407437 
L 567.343636 99.865464 
L 567.850909 97.703416 
L 568.358182 96.371679 
L 568.865455 93.523763 
L 569.372727 93.032755 
L 569.88 95.18317 
L 570.387273 99.569964 
L 571.401818 94.46604 
L 571.909091 89.513703 
L 572.923636 85.10579 
L 573.430909 80.544335 
L 573.938182 83.526734 
L 574.445455 85.031261 
L 574.952727 87.221987 
L 575.46 83.248563 
L 576.981818 81.496841 
L 577.489091 78.243562 
L 577.996364 73.018854 
L 578.503636 77.168528 
L 579.010909 73.41842 
L 579.518182 67.512517 
L 580.025455 71.934496 
L 580.532727 72.098601 
L 581.04 74.308354 
L 581.547273 78.551474 
L 582.054545 73.81217 
L 582.561818 76.215173 
L 583.069091 72.427927 
L 583.576364 75.107519 
L 584.083636 73.540629 
L 584.590909 75.058683 
L 585.098182 70.964939 
L 585.605455 77.881555 
L 586.112727 83.168299 
L 586.62 83.996924 
L 587.127273 85.416334 
L 587.634545 89.017228 
L 588.141818 82.938411 
L 588.649091 86.839691 
L 589.156364 88.631199 
L 589.663636 98.56268 
L 590.170909 95.606958 
L 590.678182 95.372275 
L 591.185455 95.884842 
L 591.692727 102.171525 
L 592.2 97.259208 
L 592.707273 94.073482 
L 593.214545 86.406712 
L 593.721818 83.649034 
L 594.229091 82.39877 
L 594.736364 82.369368 
L 595.243636 83.004044 
L 595.750909 78.591315 
L 596.258182 85.086 
L 596.765455 82.959352 
L 597.272727 84.142029 
L 597.78 82.809448 
L 598.287273 76.721024 
L 598.794545 75.550454 
L 599.301818 80.602476 
L 600.316364 72.902994 
L 600.823636 66.96 
L 601.330909 67.031534 
L 601.838182 69.352237 
L 602.345455 73.143286 
L 602.852727 74.877926 
L 603.36 85.621218 
L 603.867273 89.63527 
L 604.881818 87.599805 
L 605.389091 86.352059 
L 605.896364 79.095868 
L 606.403636 81.277483 
L 607.418182 84.539352 
L 607.925455 83.774952 
L 608.432727 80.521877 
L 609.447273 90.100641 
L 609.954545 89.265828 
L 610.461818 89.109955 
L 610.969091 88.01157 
L 611.476364 88.454033 
L 611.983636 92.152351 
L 612.490909 91.187284 
L 613.505455 97.899365 
L 614.012727 98.575652 
L 615.027273 91.026791 
L 615.534545 86.249814 
L 616.041818 87.891919 
L 616.549091 87.41792 
L 617.056364 86.335812 
L 617.563636 83.324036 
L 618.070909 86.806737 
L 618.578182 91.236372 
L 619.085455 89.822383 
L 619.592727 86.156159 
L 620.1 90.057158 
L 620.607273 86.082367 
L 621.114545 87.918317 
L 621.621818 88.348987 
L 622.129091 92.510503 
L 622.636364 89.247468 
L 622.636364 89.247468 
" clip-path="url(#pa5b8ca3355)" style="fill: none; stroke: #1f77b4; stroke-width: 0.5; stroke-linecap: square"/>
   </g>
   <g id="line2d_14">
    <path d="M 115.363636 368.985585 
L 115.870909 364.690119 
L 116.378182 366.086365 
L 116.885455 364.102719 
L 117.392727 364.505291 
L 117.9 368.429499 
L 118.407273 369.346218 
L 118.914545 365.324032 
L 119.421818 362.36545 
L 119.929091 362.008977 
L 120.436364 367.524172 
L 120.943636 365.545371 
L 121.450909 364.990886 
L 121.958182 362.044524 
L 122.465455 362.780476 
L 122.972727 365.076617 
L 123.48 361.592278 
L 123.987273 361.607047 
L 124.494545 362.777198 
L 125.001818 360.06821 
L 125.509091 362.816203 
L 126.016364 357.574734 
L 126.523636 356.407594 
L 127.538182 347.866529 
L 128.045455 348.520388 
L 128.552727 344.471965 
L 129.06 344.096875 
L 129.567273 342.200875 
L 130.581818 335.239906 
L 131.596364 338.962316 
L 132.103636 342.503003 
L 132.610909 341.788698 
L 133.118182 346.024123 
L 133.625455 347.64343 
L 134.132727 341.949583 
L 134.64 342.709781 
L 135.147273 342.984965 
L 135.654545 344.982177 
L 136.161818 346.338367 
L 136.669091 345.491752 
L 137.176364 346.906814 
L 137.683636 346.964745 
L 138.190909 346.357301 
L 138.698182 344.83212 
L 139.205455 344.661931 
L 139.712727 348.744816 
L 140.22 346.827898 
L 140.727273 343.399476 
L 141.234545 345.56704 
L 141.741818 346.814562 
L 142.249091 348.374612 
L 142.756364 354.433475 
L 143.263636 356.185068 
L 143.770909 354.097986 
L 144.278182 354.64447 
L 145.292727 354.009559 
L 145.8 352.919542 
L 146.307273 354.987956 
L 146.814545 357.568156 
L 147.321818 362.908242 
L 147.829091 359.802332 
L 148.843636 350.923461 
L 149.858182 357.357998 
L 150.365455 357.645189 
L 150.872727 357.033313 
L 151.38 358.621468 
L 151.887273 357.020666 
L 152.394545 352.877516 
L 152.901818 351.419769 
L 153.409091 353.665955 
L 153.916364 350.590179 
L 154.423636 353.117701 
L 154.930909 353.961872 
L 155.438182 348.115607 
L 155.945455 350.559267 
L 156.452727 354.253696 
L 156.96 355.417498 
L 157.467273 360.62741 
L 157.974545 361.674992 
L 158.481818 360.777026 
L 158.989091 360.960437 
L 159.496364 358.958265 
L 160.003636 361.495239 
L 160.510909 365.500089 
L 161.018182 364.870998 
L 161.525455 367.180641 
L 162.032727 362.841402 
L 162.54 366.855403 
L 163.554545 367.174675 
L 164.061818 364.893684 
L 164.569091 365.955358 
L 165.076364 363.898986 
L 165.583636 362.451032 
L 166.090909 360.025565 
L 166.598182 358.276381 
L 167.105455 362.591502 
L 167.612727 359.973157 
L 168.12 359.021528 
L 168.627273 360.109057 
L 169.134545 362.951697 
L 169.641818 362.94798 
L 170.149091 363.549405 
L 170.656364 361.394626 
L 171.163636 353.568514 
L 172.178182 349.077748 
L 172.685455 347.46717 
L 173.192727 344.679658 
L 173.7 341.202998 
L 174.207273 343.684292 
L 174.714545 347.427039 
L 175.221818 348.774905 
L 175.729091 351.977117 
L 176.236364 349.8709 
L 176.743636 348.433004 
L 177.250909 347.915544 
L 177.758182 344.630019 
L 178.265455 346.686627 
L 178.772727 346.435664 
L 179.28 349.302267 
L 179.787273 345.290937 
L 180.294545 344.729787 
L 180.801818 340.235075 
L 181.309091 340.352835 
L 181.816364 336.449751 
L 182.323636 341.648445 
L 182.830909 339.788359 
L 183.338182 336.053454 
L 183.845455 333.4688 
L 184.352727 331.662382 
L 184.86 331.507711 
L 185.367273 332.948073 
L 185.874545 334.928003 
L 186.381818 334.187684 
L 186.889091 332.645447 
L 187.396364 336.477742 
L 187.903636 342.789868 
L 188.410909 342.244487 
L 188.918182 342.031071 
L 189.425455 343.234156 
L 189.932727 341.714693 
L 190.44 337.017637 
L 190.947273 339.485367 
L 191.454545 341.020225 
L 191.961818 341.065955 
L 192.469091 345.005346 
L 193.483636 346.633189 
L 193.990909 349.676357 
L 194.498182 349.391312 
L 195.005455 345.538893 
L 195.512727 345.967027 
L 196.02 347.11143 
L 196.527273 347.553108 
L 197.541818 345.90344 
L 198.049091 349.938574 
L 198.556364 349.315314 
L 199.063636 340.684989 
L 199.570909 347.348564 
L 200.078182 351.803017 
L 200.585455 347.01343 
L 201.092727 346.091257 
L 201.6 343.969798 
L 202.107273 340.842629 
L 202.614545 342.377122 
L 203.121818 343.060301 
L 203.629091 342.042172 
L 204.643636 337.937187 
L 205.150909 345.103465 
L 205.658182 340.468147 
L 206.165455 342.30109 
L 206.672727 341.8867 
L 207.18 339.700935 
L 207.687273 340.893372 
L 208.194545 343.099858 
L 208.701818 343.416396 
L 209.209091 341.85398 
L 209.716364 342.063332 
L 210.223636 344.555981 
L 211.238182 341.407845 
L 211.745455 343.27671 
L 212.252727 343.863866 
L 212.76 347.357151 
L 213.774545 348.814366 
L 214.281818 350.549228 
L 214.789091 350.19742 
L 215.296364 351.80716 
L 215.803636 351.404729 
L 216.310909 349.228707 
L 216.818182 347.781308 
L 217.325455 349.226471 
L 217.832727 349.262152 
L 218.34 349.770135 
L 218.847273 346.023305 
L 219.354545 346.329339 
L 219.861818 346.829262 
L 220.876364 349.315443 
L 221.383636 351.519398 
L 221.890909 348.193656 
L 222.398182 351.097511 
L 222.905455 350.94849 
L 223.412727 346.62068 
L 223.92 345.455684 
L 224.934545 343.939631 
L 225.441818 341.255106 
L 225.949091 349.756882 
L 226.456364 346.838965 
L 226.963636 346.560475 
L 227.470909 346.095592 
L 227.978182 347.719243 
L 228.485455 343.141351 
L 228.992727 347.916676 
L 229.5 346.247974 
L 230.007273 347.644723 
L 230.514545 347.136777 
L 231.021818 349.763836 
L 231.529091 349.895696 
L 232.036364 349.135071 
L 232.543636 349.377242 
L 233.050909 353.638759 
L 233.558182 354.555495 
L 234.065455 350.091109 
L 234.572727 353.685146 
L 235.08 358.640493 
L 235.587273 353.945601 
L 236.094545 354.874801 
L 236.601818 351.181414 
L 237.109091 351.316383 
L 237.616364 350.430097 
L 238.123636 348.72208 
L 238.630909 349.316533 
L 239.138182 344.605653 
L 239.645455 345.304898 
L 240.152727 345.665627 
L 240.66 342.96025 
L 241.674545 332.801902 
L 242.181818 328.169592 
L 242.689091 327.105693 
L 243.703636 325.916996 
L 244.210909 327.818037 
L 244.718182 326.991807 
L 245.225455 324.078714 
L 246.24 314.673091 
L 246.747273 315.57326 
L 247.254545 315.0718 
L 248.269091 308.870169 
L 248.776364 307.7865 
L 249.283636 308.969335 
L 249.790909 310.667102 
L 250.298182 304.223968 
L 250.805455 302.603892 
L 251.312727 299.653093 
L 251.82 301.176811 
L 252.327273 303.856693 
L 252.834545 296.074424 
L 253.341818 300.979863 
L 253.849091 298.037006 
L 254.356364 293.789898 
L 254.863636 295.089042 
L 255.370909 291.542672 
L 255.878182 285.79986 
L 256.385455 289.963169 
L 256.892727 290.418631 
L 257.4 289.786105 
L 257.907273 285.714694 
L 258.414545 283.541357 
L 258.921818 284.331848 
L 259.429091 287.512345 
L 259.936364 285.376124 
L 260.443636 285.042811 
L 260.950909 284.385633 
L 261.458182 283.387112 
L 261.965455 288.062505 
L 262.472727 286.013909 
L 262.98 290.869726 
L 263.487273 288.797802 
L 263.994545 288.088635 
L 264.501818 289.798874 
L 265.009091 289.067969 
L 265.516364 288.91283 
L 266.023636 293.15005 
L 266.530909 291.066234 
L 267.038182 291.024402 
L 267.545455 286.910639 
L 268.052727 287.209368 
L 268.56 287.122096 
L 269.574545 285.979307 
L 270.081818 287.616274 
L 270.589091 286.914219 
L 271.096364 284.609949 
L 271.603636 285.515532 
L 272.110909 284.735448 
L 272.618182 281.994937 
L 273.125455 283.85416 
L 273.632727 282.495441 
L 274.14 287.835811 
L 274.647273 280.978938 
L 275.154545 276.439714 
L 275.661818 276.081512 
L 276.169091 271.185286 
L 276.676364 270.940478 
L 277.183636 268.901326 
L 277.690909 268.277435 
L 278.198182 266.773655 
L 278.705455 266.405068 
L 279.212727 264.482279 
L 279.72 260.300462 
L 280.227273 253.568391 
L 280.734545 253.618268 
L 281.749091 245.387598 
L 282.256364 245.400859 
L 282.763636 246.031875 
L 283.270909 246.218776 
L 284.285455 239.51848 
L 284.792727 239.231512 
L 285.3 236.477277 
L 285.807273 235.908021 
L 286.314545 235.892003 
L 286.821818 237.117265 
L 287.329091 239.435432 
L 287.836364 239.153514 
L 288.343636 238.507855 
L 288.850909 235.649103 
L 289.358182 233.480047 
L 289.865455 232.782017 
L 290.372727 238.061355 
L 290.88 235.667823 
L 291.387273 236.788252 
L 291.894545 237.158271 
L 292.909091 243.165815 
L 293.416364 237.330272 
L 293.923636 237.163447 
L 294.430909 236.679056 
L 294.938182 238.890001 
L 295.445455 240.218935 
L 295.952727 237.507027 
L 296.46 239.012566 
L 296.967273 231.508846 
L 297.981818 225.015335 
L 298.489091 231.468236 
L 298.996364 227.10994 
L 299.503636 226.480336 
L 300.518182 227.260987 
L 301.025455 221.751908 
L 301.532727 219.02744 
L 302.04 225.015715 
L 302.547273 223.538741 
L 303.054545 219.354218 
L 303.561818 216.814753 
L 304.069091 221.996822 
L 304.576364 223.758327 
L 305.083636 226.841096 
L 305.590909 228.109199 
L 306.098182 223.945978 
L 306.605455 224.714819 
L 307.112727 223.147566 
L 308.127273 230.730653 
L 308.634545 228.108435 
L 309.141818 227.811846 
L 309.649091 232.997907 
L 310.156364 233.318775 
L 311.170909 228.691832 
L 311.678182 229.221357 
L 312.185455 224.912166 
L 312.692727 226.715804 
L 313.2 221.493337 
L 313.707273 219.019159 
L 314.214545 218.941617 
L 314.721818 224.015062 
L 315.229091 224.05168 
L 315.736364 222.58226 
L 316.243636 219.870497 
L 316.750909 224.582405 
L 317.258182 220.088446 
L 317.765455 220.017955 
L 318.272727 222.804953 
L 318.78 223.074643 
L 319.287273 221.571237 
L 319.794545 218.909347 
L 320.301818 219.107704 
L 320.809091 218.264556 
L 321.316364 215.311192 
L 321.823636 215.919697 
L 322.838182 208.42959 
L 323.345455 205.893653 
L 323.852727 201.71972 
L 324.36 204.400725 
L 324.867273 205.026944 
L 325.374545 209.084194 
L 325.881818 207.64941 
L 326.389091 209.923869 
L 326.896364 201.413472 
L 327.403636 204.488833 
L 327.910909 204.461347 
L 328.418182 204.929376 
L 328.925455 199.303477 
L 329.432727 199.718639 
L 329.94 203.036866 
L 330.447273 202.785412 
L 330.954545 199.214094 
L 331.461818 200.68342 
L 331.969091 196.483309 
L 332.476364 196.217685 
L 332.983636 194.620162 
L 333.490909 195.288592 
L 333.998182 199.770987 
L 334.505455 197.536397 
L 335.012727 200.747932 
L 335.52 205.159263 
L 336.027273 207.257125 
L 336.534545 200.632284 
L 337.041818 202.013242 
L 337.549091 197.471707 
L 338.056364 201.451606 
L 338.563636 202.948076 
L 339.070909 202.131365 
L 339.578182 198.102614 
L 340.085455 200.822818 
L 340.592727 205.349586 
L 341.1 207.771801 
L 341.607273 203.275896 
L 342.114545 206.995189 
L 342.621818 205.395696 
L 343.129091 206.874217 
L 343.636364 203.238742 
L 344.143636 198.220569 
L 344.650909 198.346714 
L 345.158182 197.07996 
L 345.665455 193.25589 
L 346.172727 186.539162 
L 346.68 182.732603 
L 347.187273 189.142007 
L 347.694545 188.160713 
L 348.201818 180.777301 
L 348.709091 177.584182 
L 349.216364 176.87279 
L 349.723636 169.658758 
L 350.230909 168.742683 
L 351.245455 179.841795 
L 351.752727 180.855116 
L 352.26 180.485737 
L 352.767273 177.890594 
L 353.274545 181.153767 
L 353.781818 179.993825 
L 354.289091 181.165434 
L 355.810909 171.149369 
L 356.825455 183.462678 
L 357.332727 187.204413 
L 357.84 188.00518 
L 358.347273 188.134626 
L 358.854545 185.21547 
L 359.361818 185.779814 
L 359.869091 191.881508 
L 360.376364 194.835781 
L 360.883636 187.24529 
L 361.390909 187.331554 
L 361.898182 190.498486 
L 362.405455 186.100145 
L 362.912727 191.212787 
L 364.434545 196.01707 
L 364.941818 194.990199 
L 365.449091 197.399561 
L 365.956364 195.753911 
L 366.463636 202.55654 
L 366.970909 201.161391 
L 367.478182 204.813631 
L 367.985455 200.040112 
L 368.492727 201.372616 
L 369 213.480838 
L 369.507273 217.968762 
L 370.014545 216.915172 
L 370.521818 213.20625 
L 371.029091 217.045904 
L 372.043636 221.597216 
L 372.550909 218.896924 
L 373.058182 221.201713 
L 373.565455 219.566748 
L 374.072727 222.875642 
L 374.58 218.638965 
L 375.087273 218.960087 
L 375.594545 217.8321 
L 376.101818 218.143942 
L 377.116364 217.880302 
L 377.623636 220.117468 
L 378.130909 220.646159 
L 379.145455 217.395986 
L 379.652727 213.583187 
L 380.16 213.053262 
L 380.667273 220.508567 
L 381.174545 217.865073 
L 381.681818 221.534158 
L 382.189091 220.352377 
L 382.696364 220.75894 
L 383.203636 221.894144 
L 383.710909 212.580282 
L 384.218182 210.894512 
L 384.725455 214.538917 
L 385.232727 216.649974 
L 385.74 210.916229 
L 386.247273 209.884963 
L 386.754545 213.215636 
L 387.261818 214.0962 
L 387.769091 219.434769 
L 388.276364 227.138033 
L 388.783636 228.725443 
L 389.290909 224.90971 
L 389.798182 218.324008 
L 390.305455 214.926006 
L 390.812727 213.793741 
L 391.32 211.406992 
L 391.827273 208.36157 
L 392.841818 203.884159 
L 393.349091 202.570838 
L 393.856364 208.510755 
L 394.363636 208.452906 
L 394.870909 203.900873 
L 395.378182 205.262956 
L 395.885455 208.433713 
L 396.392727 208.465078 
L 396.9 208.32664 
L 397.914545 205.036116 
L 398.421818 206.496383 
L 398.929091 205.592634 
L 399.436364 205.146213 
L 399.943636 203.779271 
L 400.450909 206.070814 
L 400.958182 199.362271 
L 401.972727 211.808308 
L 402.48 207.741841 
L 402.987273 206.762379 
L 403.494545 201.852198 
L 404.001818 203.882455 
L 404.509091 204.665675 
L 405.016364 206.686237 
L 405.523636 207.852062 
L 406.030909 205.814213 
L 406.538182 207.730997 
L 407.045455 205.926232 
L 407.552727 205.489998 
L 408.06 208.49897 
L 408.567273 210.006123 
L 409.074545 206.953954 
L 409.581818 205.215052 
L 410.596364 197.35654 
L 411.103636 197.201206 
L 411.610909 196.687508 
L 412.625455 198.086607 
L 413.132727 193.223925 
L 414.147273 205.958891 
L 414.654545 210.17489 
L 415.161818 211.296368 
L 415.669091 210.727057 
L 416.683636 220.812346 
L 417.190909 221.582007 
L 417.698182 220.962177 
L 418.205455 226.410835 
L 418.712727 226.303828 
L 419.22 216.910552 
L 419.727273 217.999473 
L 420.234545 214.522449 
L 420.741818 213.221429 
L 421.249091 210.159194 
L 421.756364 210.762211 
L 422.770909 203.779501 
L 423.278182 210.616849 
L 423.785455 214.584744 
L 424.292727 215.150677 
L 425.307273 210.04754 
L 425.814545 209.692708 
L 426.321818 209.031853 
L 426.829091 201.444483 
L 427.336364 205.830705 
L 427.843636 202.019083 
L 428.350909 209.28464 
L 428.858182 214.008487 
L 429.365455 210.878764 
L 430.38 194.450717 
L 430.887273 196.771835 
L 431.394545 196.584101 
L 431.901818 198.357733 
L 432.409091 195.291894 
L 432.916364 189.954986 
L 433.423636 186.541312 
L 433.930909 185.201673 
L 434.438182 176.045056 
L 434.945455 178.737957 
L 435.452727 179.000149 
L 435.96 180.703046 
L 436.467273 179.516271 
L 436.974545 177.662435 
L 437.481818 180.554969 
L 438.496364 188.472734 
L 439.003636 183.372541 
L 439.510909 183.034256 
L 440.018182 179.545297 
L 440.525455 178.205022 
L 441.032727 180.096331 
L 441.54 181.401234 
L 442.047273 181.709243 
L 442.554545 181.32357 
L 443.061818 183.329582 
L 443.569091 183.469554 
L 444.076364 182.908746 
L 444.583636 178.82433 
L 445.090909 177.207243 
L 445.598182 178.50347 
L 446.105455 176.706818 
L 446.612727 175.925175 
L 447.12 176.8097 
L 447.627273 176.089633 
L 449.149091 163.691972 
L 449.656364 169.526431 
L 450.163636 167.438428 
L 450.670909 169.15714 
L 451.178182 170.261799 
L 452.192727 181.727879 
L 452.7 178.028811 
L 453.207273 176.702742 
L 453.714545 179.397528 
L 454.221818 177.087452 
L 454.729091 177.00093 
L 455.743636 170.794772 
L 456.250909 169.562981 
L 456.758182 169.068901 
L 457.265455 167.518898 
L 457.772727 162.981508 
L 458.28 164.414681 
L 458.787273 162.900733 
L 459.294545 163.809115 
L 459.801818 163.730821 
L 460.309091 157.925432 
L 460.816364 157.733288 
L 461.323636 156.704937 
L 461.830909 157.758301 
L 462.338182 156.164799 
L 462.845455 153.453235 
L 463.352727 154.819669 
L 463.86 151.137795 
L 464.874545 158.478746 
L 465.381818 151.447189 
L 465.889091 148.620661 
L 466.396364 150.541019 
L 467.410909 144.644536 
L 467.918182 139.335285 
L 468.425455 136.878311 
L 468.932727 136.966048 
L 469.44 138.627597 
L 469.947273 139.093976 
L 470.454545 138.954626 
L 471.469091 145.426209 
L 471.976364 148.730604 
L 472.483636 145.691611 
L 472.990909 141.149724 
L 473.498182 144.711745 
L 474.512727 138.428896 
L 475.02 136.364247 
L 475.527273 141.36054 
L 476.034545 144.796825 
L 476.541818 142.530544 
L 477.049091 144.352663 
L 477.556364 144.583604 
L 478.063636 143.444625 
L 478.570909 143.039174 
L 479.078182 141.49048 
L 479.585455 143.808886 
L 480.092727 148.77633 
L 480.6 150.266381 
L 481.107273 154.851861 
L 481.614545 153.149986 
L 482.121818 148.358889 
L 482.629091 146.883032 
L 483.136364 145.020165 
L 484.150909 149.865051 
L 484.658182 157.676024 
L 485.165455 158.290461 
L 485.672727 161.982742 
L 486.687273 149.086238 
L 487.194545 151.425207 
L 487.701818 149.276159 
L 488.209091 147.710759 
L 488.716364 143.78269 
L 489.223636 145.449817 
L 489.730909 152.156925 
L 490.238182 148.771212 
L 490.745455 154.086695 
L 491.252727 154.807888 
L 491.76 157.927883 
L 492.267273 156.006252 
L 492.774545 159.007966 
L 493.281818 159.191795 
L 493.789091 163.277925 
L 494.296364 164.618014 
L 494.803636 167.926664 
L 495.310909 167.101052 
L 495.818182 169.873967 
L 496.325455 173.4169 
L 496.832727 171.193489 
L 497.34 167.829042 
L 498.354545 179.557621 
L 499.369091 183.84286 
L 499.876364 187.412109 
L 500.383636 185.610999 
L 500.890909 179.099653 
L 501.398182 180.970322 
L 501.905455 184.080025 
L 502.412727 177.955832 
L 502.92 181.154551 
L 503.427273 172.743744 
L 503.934545 168.041977 
L 504.441818 165.010701 
L 504.949091 165.473106 
L 505.456364 169.672522 
L 506.470909 159.627852 
L 506.978182 157.465391 
L 507.992727 158.26687 
L 508.5 158.907908 
L 509.007273 156.049755 
L 510.529091 164.89205 
L 511.036364 162.703617 
L 511.543636 159.539616 
L 512.050909 159.873362 
L 512.558182 156.970436 
L 513.065455 157.253918 
L 513.572727 157.667898 
L 514.08 162.683103 
L 514.587273 170.387625 
L 515.094545 171.445516 
L 515.601818 173.458203 
L 516.109091 173.09324 
L 516.616364 173.610104 
L 517.123636 171.302363 
L 517.630909 170.877794 
L 518.138182 172.614551 
L 518.645455 173.457944 
L 519.152727 177.473276 
L 519.66 175.471743 
L 520.167273 174.937564 
L 520.674545 175.702841 
L 521.181818 174.38568 
L 521.689091 174.387918 
L 522.196364 176.991743 
L 522.703636 180.671707 
L 523.210909 182.219571 
L 523.718182 178.512721 
L 524.225455 185.172924 
L 524.732727 187.210025 
L 525.24 185.655038 
L 525.747273 190.65141 
L 526.254545 189.92827 
L 526.761818 188.075139 
L 527.269091 185.209998 
L 527.776364 183.742976 
L 528.283636 181.374067 
L 528.790909 178.152891 
L 529.298182 184.042779 
L 529.805455 191.412065 
L 530.312727 192.194622 
L 530.82 196.992302 
L 531.327273 199.868773 
L 531.834545 197.578975 
L 532.849091 202.423311 
L 533.356364 199.982852 
L 533.863636 190.50304 
L 534.370909 188.549577 
L 534.878182 191.496706 
L 535.385455 190.635122 
L 535.892727 188.151899 
L 536.4 189.911234 
L 536.907273 186.246783 
L 537.414545 187.598884 
L 537.921818 192.60234 
L 538.429091 192.173559 
L 538.936364 186.314727 
L 539.443636 184.82453 
L 539.950909 186.049248 
L 540.458182 186.935627 
L 540.965455 183.628224 
L 541.472727 183.753168 
L 541.98 182.515129 
L 542.487273 182.679348 
L 542.994545 185.935441 
L 543.501818 183.566657 
L 544.009091 182.171043 
L 544.516364 182.518434 
L 545.530909 171.368389 
L 546.038182 172.667948 
L 546.545455 173.354693 
L 547.052727 175.893661 
L 547.56 177.437197 
L 548.067273 171.720576 
L 548.574545 173.754165 
L 549.081818 172.292788 
L 549.589091 171.668084 
L 550.096364 168.082403 
L 551.110909 158.739175 
L 551.618182 167.526406 
L 552.125455 170.115626 
L 552.632727 170.429452 
L 553.14 165.644929 
L 554.154545 169.227024 
L 554.661818 169.594387 
L 555.169091 169.473941 
L 555.676364 162.324643 
L 556.183636 159.245082 
L 556.690909 157.565141 
L 557.198182 159.947633 
L 557.705455 158.40236 
L 558.212727 155.318489 
L 558.72 154.212546 
L 559.227273 156.098117 
L 559.734545 154.850213 
L 560.749091 148.895848 
L 561.256364 150.932205 
L 562.270909 156.312605 
L 563.285455 149.980646 
L 564.3 154.024198 
L 564.807273 150.207623 
L 565.314545 153.339444 
L 565.821818 152.292773 
L 566.329091 149.180262 
L 566.836364 147.367577 
L 567.343636 148.867599 
L 567.850909 146.84748 
L 568.358182 145.659898 
L 568.865455 142.998094 
L 569.372727 142.62388 
L 569.88 144.783723 
L 570.387273 149.089764 
L 571.401818 144.331279 
L 571.909091 139.649938 
L 572.923636 135.597937 
L 573.430909 131.285918 
L 573.938182 134.277594 
L 574.445455 135.788468 
L 574.952727 137.98415 
L 575.46 134.225251 
L 576.981818 132.835096 
L 577.489091 129.786497 
L 577.996364 124.852765 
L 578.503636 128.978657 
L 579.010909 125.411214 
L 579.518182 119.82961 
L 580.025455 124.224703 
L 580.532727 124.434625 
L 581.04 126.663292 
L 581.547273 130.839103 
L 582.054545 126.336684 
L 582.561818 128.790555 
L 583.069091 125.210213 
L 583.576364 127.917944 
L 584.083636 126.47742 
L 584.590909 128.049515 
L 585.098182 124.183256 
L 585.605455 130.979152 
L 586.112727 136.120245 
L 586.62 136.988644 
L 587.127273 138.458783 
L 587.634545 142.02112 
L 588.141818 136.235966 
L 588.649091 140.138064 
L 589.156364 141.923638 
L 589.663636 151.579263 
L 590.170909 148.761464 
L 590.678182 148.664247 
L 591.185455 149.251071 
L 591.692727 155.393433 
L 592.2 150.709985 
L 592.707273 147.772655 
L 593.214545 140.491326 
L 593.721818 137.964726 
L 594.229091 136.848815 
L 594.736364 136.904426 
L 595.243636 137.596412 
L 595.750909 133.426848 
L 596.258182 139.799525 
L 596.765455 137.78934 
L 597.272727 139.039496 
L 597.78 137.8368 
L 598.287273 132.074317 
L 598.794545 131.07489 
L 599.301818 136.025343 
L 600.316364 128.782736 
L 600.823636 123.174668 
L 601.330909 123.364677 
L 601.838182 125.675991 
L 602.345455 129.396827 
L 602.852727 131.135631 
L 603.36 141.563534 
L 603.867273 145.45289 
L 604.881818 143.694525 
L 605.389091 142.597116 
L 605.896364 135.716307 
L 606.403636 137.95034 
L 607.418182 141.226329 
L 607.925455 140.571518 
L 608.432727 137.540884 
L 609.447273 146.909181 
L 609.954545 146.174463 
L 610.461818 146.128385 
L 610.969091 145.163897 
L 611.476364 145.684685 
L 611.983636 149.321646 
L 612.490909 148.457035 
L 613.505455 155.071731 
L 614.012727 155.789057 
L 615.027273 148.741252 
L 615.534545 144.256802 
L 616.041818 145.941391 
L 616.549091 145.547803 
L 617.056364 144.594132 
L 617.563636 141.791224 
L 618.070909 145.237962 
L 618.578182 149.547332 
L 619.085455 148.249225 
L 619.592727 144.832417 
L 620.1 148.687973 
L 620.607273 144.925568 
L 621.114545 146.803858 
L 621.621818 147.284694 
L 622.129091 151.362448 
L 622.636364 148.289394 
L 622.636364 148.289394 
" clip-path="url(#pa5b8ca3355)" style="fill: none; stroke: #ff7f0e; stroke-width: 0.5; stroke-linecap: square"/>
   </g>
   <g id="line2d_15">
    <path d="M 115.363636 368.985585 
L 115.870909 364.846653 
L 116.378182 366.072129 
L 116.885455 364.182052 
L 117.392727 364.510829 
L 117.9 368.292937 
L 118.407273 369.284394 
L 118.914545 365.449119 
L 119.421818 362.494423 
L 119.929091 362.053542 
L 120.436364 367.3385 
L 120.943636 365.576175 
L 121.450909 365.00307 
L 121.958182 362.145984 
L 122.465455 362.767479 
L 122.972727 364.98539 
L 123.48 361.687091 
L 123.987273 361.608039 
L 124.494545 362.721807 
L 125.001818 360.136279 
L 125.509091 362.706815 
L 126.016364 357.718853 
L 126.523636 356.448484 
L 127.538182 348.012714 
L 128.045455 348.492543 
L 128.552727 344.569773 
L 129.06 344.070928 
L 129.567273 342.197454 
L 130.581818 335.285351 
L 131.596364 338.745554 
L 132.103636 342.193674 
L 132.610909 341.597624 
L 133.118182 345.665266 
L 133.625455 347.341005 
L 134.132727 341.909597 
L 134.64 342.48778 
L 135.147273 342.748252 
L 135.654545 344.667532 
L 136.161818 346.020781 
L 136.669091 345.241523 
L 137.176364 346.581567 
L 137.683636 346.669271 
L 138.190909 346.083141 
L 138.698182 344.589914 
L 139.205455 344.37215 
L 139.712727 348.286631 
L 140.22 346.541077 
L 140.727273 343.187909 
L 141.234545 345.168678 
L 142.249091 347.9402 
L 142.756364 353.823246 
L 143.263636 355.686539 
L 143.770909 353.748588 
L 144.278182 354.232615 
L 145.292727 353.620433 
L 145.8 352.557182 
L 146.307273 354.513568 
L 146.814545 357.049161 
L 147.321818 362.273074 
L 147.829091 359.43966 
L 148.843636 350.673631 
L 149.858182 356.799626 
L 150.365455 357.161902 
L 150.872727 356.587973 
L 151.38 358.103845 
L 151.887273 356.601522 
L 152.394545 352.564032 
L 152.901818 351.031698 
L 153.409091 353.129733 
L 153.916364 350.205212 
L 154.423636 352.549104 
L 154.930909 353.414329 
L 155.438182 347.798397 
L 155.945455 349.985536 
L 156.452727 353.5865 
L 156.96 354.806738 
L 157.467273 359.873028 
L 157.974545 361.038666 
L 158.481818 360.227542 
L 158.989091 360.394109 
L 159.496364 358.471295 
L 160.003636 360.861689 
L 160.510909 364.786641 
L 161.018182 364.299931 
L 161.525455 366.528832 
L 162.032727 362.415833 
L 162.54 366.175521 
L 163.554545 366.600222 
L 164.061818 364.410958 
L 164.569091 365.37273 
L 165.076364 363.410749 
L 165.583636 361.955581 
L 166.090909 359.5646 
L 166.598182 357.795441 
L 167.105455 361.886728 
L 167.612727 359.464893 
L 168.12 358.479964 
L 168.627273 359.490384 
L 169.134545 362.251374 
L 169.641818 362.326341 
L 170.149091 362.915968 
L 170.656364 360.858257 
L 171.163636 353.253217 
L 172.178182 348.580003 
L 172.685455 346.930945 
L 173.192727 344.164841 
L 173.7 340.703929 
L 174.207273 342.964123 
L 174.714545 346.606383 
L 175.221818 347.999723 
L 175.729091 351.130964 
L 176.236364 349.193939 
L 176.743636 347.759283 
L 177.250909 347.211807 
L 177.758182 344.014788 
L 178.265455 345.891073 
L 178.772727 345.681556 
L 179.28 348.430967 
L 179.787273 344.632906 
L 180.294545 343.980221 
L 180.801818 339.607176 
L 181.309091 339.57429 
L 181.816364 335.77767 
L 182.323636 340.65669 
L 182.830909 338.974404 
L 183.338182 335.317833 
L 183.845455 332.701652 
L 184.352727 330.853573 
L 184.86 330.617934 
L 185.367273 331.969275 
L 185.874545 333.894628 
L 186.381818 333.222279 
L 186.889091 331.706893 
L 187.396364 335.345303 
L 187.903636 341.523854 
L 188.410909 341.178313 
L 188.918182 340.979082 
L 189.425455 342.136326 
L 189.932727 340.700515 
L 190.44 336.124112 
L 190.947273 338.357049 
L 191.454545 339.874807 
L 191.961818 339.951489 
L 192.469091 343.748155 
L 193.483636 345.453271 
L 193.990909 348.416572 
L 194.498182 348.229353 
L 195.005455 344.51424 
L 195.512727 344.816693 
L 196.02 345.911355 
L 196.527273 346.357313 
L 197.541818 344.74072 
L 198.049091 348.600247 
L 198.556364 348.100163 
L 199.063636 339.761331 
L 199.570909 345.938105 
L 200.078182 350.381636 
L 200.585455 345.889812 
L 201.092727 344.879197 
L 201.6 342.787029 
L 202.107273 339.691607 
L 202.614545 341.059193 
L 203.121818 341.730646 
L 203.629091 340.752921 
L 204.643636 336.673304 
L 205.150909 343.509241 
L 205.658182 339.212722 
L 206.165455 340.862128 
L 206.672727 340.493061 
L 207.18 338.364459 
L 207.687273 339.441064 
L 208.194545 341.583175 
L 208.701818 341.940803 
L 209.209091 340.440324 
L 209.716364 340.592544 
L 210.223636 342.989316 
L 211.238182 339.961698 
L 211.745455 341.710315 
L 212.252727 342.311993 
L 212.76 345.694681 
L 213.774545 347.225326 
L 214.281818 348.922762 
L 214.789091 348.633543 
L 215.296364 350.182042 
L 215.803636 349.83667 
L 216.310909 347.727219 
L 216.818182 346.26364 
L 217.325455 347.60147 
L 217.832727 347.658944 
L 218.34 348.143507 
L 218.847273 344.533019 
L 219.354545 344.715181 
L 219.861818 345.18174 
L 220.876364 347.608611 
L 221.383636 349.765368 
L 221.890909 346.616218 
L 222.398182 349.329599 
L 222.905455 349.252287 
L 223.412727 345.071567 
L 223.92 343.819007 
L 224.934545 342.25131 
L 225.441818 339.618285 
L 225.949091 347.729529 
L 226.456364 345.127409 
L 226.963636 344.795234 
L 227.470909 344.329149 
L 227.978182 345.873803 
L 228.485455 341.488518 
L 228.992727 345.964578 
L 229.5 344.462392 
L 230.007273 345.767197 
L 230.514545 345.30553 
L 231.021818 347.824233 
L 231.529091 348.018231 
L 232.036364 347.291291 
L 232.543636 347.501586 
L 233.050909 351.615444 
L 233.558182 352.61637 
L 234.065455 348.344212 
L 234.572727 351.69341 
L 235.08 356.562051 
L 235.587273 352.173683 
L 236.094545 352.958015 
L 236.601818 349.404244 
L 237.109091 349.424436 
L 237.616364 348.549922 
L 238.123636 346.861376 
L 238.630909 347.371222 
L 239.138182 342.819272 
L 239.645455 343.347952 
L 240.152727 343.683774 
L 240.66 341.063752 
L 241.674545 330.98201 
L 242.181818 326.332731 
L 242.689091 325.122553 
L 243.703636 323.829042 
L 244.210909 325.615035 
L 244.718182 324.841865 
L 245.225455 321.98907 
L 246.24 312.61877 
L 246.747273 313.317557 
L 247.254545 312.803756 
L 248.269091 306.649789 
L 248.776364 305.465854 
L 249.283636 306.528531 
L 249.790909 308.160114 
L 250.298182 301.955176 
L 250.805455 300.185712 
L 251.312727 297.235673 
L 251.82 298.57575 
L 252.327273 301.15651 
L 252.834545 293.680319 
L 253.341818 298.175777 
L 253.849091 295.411795 
L 254.356364 291.202504 
L 254.863636 292.295253 
L 255.370909 288.850806 
L 255.878182 283.163644 
L 256.385455 286.969173 
L 256.892727 287.459306 
L 257.4 286.828462 
L 257.907273 282.84323 
L 258.414545 280.590013 
L 258.921818 281.237241 
L 259.429091 284.279001 
L 259.936364 282.263301 
L 260.443636 281.855081 
L 260.950909 281.169705 
L 261.458182 280.146412 
L 261.965455 284.596232 
L 262.472727 282.706681 
L 262.98 287.324048 
L 263.487273 285.423474 
L 263.994545 284.666014 
L 264.501818 286.26587 
L 265.009091 285.572033 
L 265.516364 285.374054 
L 266.023636 289.432372 
L 266.530909 287.504242 
L 267.038182 287.389636 
L 267.545455 283.376733 
L 268.052727 283.514387 
L 268.56 283.385944 
L 269.574545 282.180766 
L 270.081818 283.706706 
L 270.589091 283.033799 
L 271.096364 280.754304 
L 271.603636 281.527307 
L 272.110909 280.751979 
L 272.618182 278.041818 
L 273.125455 279.720757 
L 273.632727 278.408314 
L 274.14 283.4996 
L 274.647273 276.975344 
L 275.154545 272.373092 
L 275.661818 271.838034 
L 276.169091 267.022843 
L 276.676364 266.58984 
L 277.183636 264.538137 
L 277.690909 263.817679 
L 278.198182 262.283819 
L 278.705455 261.828435 
L 279.212727 259.900023 
L 279.72 255.745594 
L 280.227273 249.053664 
L 280.734545 248.837059 
L 281.749091 240.593103 
L 282.256364 240.408141 
L 282.763636 240.933227 
L 283.270909 241.062066 
L 284.285455 234.372422 
L 284.792727 233.924755 
L 285.3 231.171723 
L 285.807273 230.472962 
L 286.314545 230.365124 
L 286.821818 231.481512 
L 287.329091 233.697322 
L 287.836364 233.435554 
L 288.343636 232.756625 
L 289.358182 227.677876 
L 289.865455 226.869764 
L 290.372727 231.889091 
L 290.88 229.652948 
L 291.387273 230.629942 
L 291.894545 230.9602 
L 292.909091 236.7663 
L 293.416364 231.161315 
L 293.923636 230.798011 
L 294.430909 230.252133 
L 294.938182 232.31668 
L 295.445455 233.60525 
L 295.952727 230.965645 
L 296.46 232.299257 
L 296.967273 225.005791 
L 297.981818 218.262834 
L 298.489091 224.331548 
L 298.996364 220.200879 
L 299.503636 219.418348 
L 300.518182 220.020733 
L 301.025455 214.626274 
L 301.532727 211.764941 
L 302.04 217.403549 
L 302.547273 216.055333 
L 303.054545 211.906811 
L 303.561818 209.260117 
L 304.069091 214.12848 
L 304.576364 215.900618 
L 305.083636 218.890036 
L 305.590909 220.158412 
L 306.098182 216.114267 
L 306.605455 216.694223 
L 307.112727 215.123312 
L 308.127273 222.415808 
L 308.634545 219.927732 
L 309.141818 219.526273 
L 309.649091 224.48806 
L 310.156364 224.887073 
L 311.170909 220.248164 
L 311.678182 220.638531 
L 312.185455 216.400318 
L 312.692727 217.963239 
L 313.2 212.863201 
L 313.707273 210.247765 
L 314.214545 210.012732 
L 314.721818 214.847588 
L 315.229091 214.952078 
L 315.736364 213.478469 
L 316.243636 210.746735 
L 316.750909 215.176615 
L 317.258182 210.870658 
L 317.765455 210.624291 
L 318.272727 213.250835 
L 318.78 213.522416 
L 319.287273 212.015369 
L 319.794545 209.32841 
L 320.301818 209.376474 
L 320.809091 208.485053 
L 321.316364 205.521592 
L 321.823636 205.955393 
L 322.838182 198.427642 
L 323.345455 195.774132 
L 323.852727 191.551261 
L 324.36 193.940772 
L 324.867273 194.523485 
L 325.374545 198.408622 
L 325.881818 197.059246 
L 326.389091 199.175493 
L 326.896364 190.900597 
L 327.403636 193.58567 
L 327.910909 193.543799 
L 328.418182 193.925809 
L 328.925455 188.397415 
L 329.432727 188.568568 
L 329.94 191.708899 
L 330.447273 191.477354 
L 330.954545 187.934682 
L 331.461818 189.190682 
L 331.969091 185.06119 
L 332.476364 184.608671 
L 332.983636 182.954023 
L 333.490909 183.472999 
L 333.998182 187.763852 
L 334.505455 185.640648 
L 335.012727 188.643681 
L 335.52 192.95194 
L 336.027273 195.061365 
L 336.534545 188.630316 
L 337.041818 189.734144 
L 337.549091 185.264862 
L 338.056364 188.932601 
L 338.563636 190.409242 
L 339.070909 189.592564 
L 339.578182 185.585297 
L 340.085455 188.044673 
L 340.592727 192.438872 
L 341.1 194.859042 
L 341.607273 190.501808 
L 342.114545 193.942841 
L 342.621818 192.412091 
L 343.129091 193.748082 
L 343.636364 190.17899 
L 344.143636 185.124294 
L 344.650909 185.017692 
L 345.158182 183.686448 
L 345.665455 179.839225 
L 346.172727 173.101012 
L 346.68 169.100983 
L 347.187273 175.112114 
L 347.694545 174.223816 
L 348.201818 166.933997 
L 348.709091 163.530182 
L 349.216364 162.630145 
L 349.723636 155.46973 
L 350.230909 154.267298 
L 351.245455 164.98655 
L 351.752727 166.051956 
L 352.26 165.666113 
L 352.767273 163.061977 
L 353.274545 166.093091 
L 353.781818 164.967608 
L 354.289091 166.006561 
L 355.303636 159.76184 
L 355.810909 155.848182 
L 356.825455 167.713352 
L 357.332727 171.46736 
L 357.84 172.308157 
L 358.347273 172.410446 
L 358.854545 169.508345 
L 359.361818 169.907518 
L 359.869091 175.790217 
L 360.376364 178.770719 
L 360.883636 171.400122 
L 361.390909 171.214673 
L 361.898182 174.208531 
L 362.405455 169.922007 
L 362.912727 174.715307 
L 364.434545 179.430061 
L 364.941818 178.410043 
L 365.449091 180.671292 
L 365.956364 179.062158 
L 366.463636 185.593775 
L 366.970909 184.352813 
L 367.478182 187.836342 
L 367.985455 183.21597 
L 368.492727 184.328727 
L 369 196.109015 
L 369.507273 200.775034 
L 370.014545 199.862212 
L 370.521818 196.188039 
L 371.029091 199.78431 
L 372.043636 204.282704 
L 372.550909 201.666771 
L 373.058182 203.796262 
L 373.565455 202.198908 
L 374.072727 205.331563 
L 374.58 201.220119 
L 375.087273 201.362026 
L 375.594545 200.192324 
L 376.101818 200.396222 
L 377.116364 200.004738 
L 377.623636 202.121109 
L 378.130909 202.636384 
L 379.145455 199.31649 
L 379.652727 195.471793 
L 380.16 194.769469 
L 380.667273 201.956449 
L 381.174545 199.508056 
L 381.681818 202.981683 
L 382.189091 201.867564 
L 382.696364 202.184747 
L 383.203636 203.246559 
L 383.710909 194.108957 
L 384.218182 192.134549 
L 384.725455 195.5466 
L 385.232727 197.626062 
L 385.74 192.014587 
L 386.247273 190.783762 
L 386.754545 193.92416 
L 387.261818 194.800831 
L 387.769091 199.991448 
L 388.276364 207.627247 
L 388.783636 209.368281 
L 389.290909 205.665203 
L 389.798182 199.078932 
L 390.305455 195.500975 
L 390.812727 194.203333 
L 391.32 191.742046 
L 391.827273 188.607551 
L 392.841818 183.893002 
L 393.349091 182.450242 
L 393.856364 188.135056 
L 394.363636 188.163246 
L 394.870909 183.652797 
L 395.378182 184.792558 
L 395.885455 187.850794 
L 396.392727 187.902974 
L 396.9 187.713034 
L 397.914545 184.305664 
L 398.421818 185.61871 
L 398.929091 184.697543 
L 399.436364 184.167277 
L 399.943636 182.742799 
L 400.450909 184.875177 
L 400.958182 178.291186 
L 401.465455 183.692873 
L 401.972727 190.297563 
L 402.48 186.449319 
L 402.987273 185.339081 
L 403.494545 180.429251 
L 404.001818 182.203941 
L 404.509091 182.937405 
L 405.016364 184.869194 
L 405.523636 186.003201 
L 406.030909 183.980235 
L 406.538182 185.741494 
L 407.045455 183.954987 
L 407.552727 183.413809 
L 408.06 186.277971 
L 408.567273 187.770908 
L 409.074545 184.765261 
L 409.581818 182.916142 
L 410.596364 174.891695 
L 411.103636 174.530928 
L 411.610909 173.922077 
L 412.625455 175.127899 
L 413.132727 170.303906 
L 414.147273 182.692473 
L 414.654545 186.946568 
L 415.161818 188.13552 
L 415.669091 187.577924 
L 416.683636 197.517127 
L 417.190909 198.376617 
L 417.698182 197.764282 
L 418.205455 203.055496 
L 418.712727 203.056901 
L 419.22 193.800562 
L 419.727273 194.550538 
L 420.234545 191.071988 
L 420.741818 189.620502 
L 421.249091 186.490509 
L 421.756364 186.911862 
L 422.770909 179.807017 
L 423.278182 186.330527 
L 423.785455 190.332469 
L 424.292727 190.954596 
L 425.307273 185.795152 
L 425.814545 185.301942 
L 426.321818 184.564012 
L 426.829091 177.017728 
L 427.336364 181.030866 
L 427.843636 177.307169 
L 428.350909 184.266613 
L 428.858182 189.033792 
L 429.365455 186.052146 
L 430.38 169.464915 
L 430.887273 171.416768 
L 431.394545 171.177062 
L 431.901818 172.827868 
L 432.409091 169.78435 
L 432.916364 164.380814 
L 433.423636 160.78496 
L 433.930909 159.264369 
L 434.438182 150.120814 
L 434.945455 152.401458 
L 435.452727 152.605279 
L 435.96 154.193203 
L 436.467273 152.988914 
L 436.974545 151.055758 
L 437.481818 153.761146 
L 438.496364 161.575502 
L 439.003636 156.626457 
L 439.510909 156.097728 
L 440.018182 152.571116 
L 440.525455 151.069791 
L 441.032727 152.794398 
L 441.54 154.039379 
L 442.047273 154.302546 
L 442.554545 153.859253 
L 443.061818 155.746901 
L 443.569091 155.865059 
L 444.076364 155.248946 
L 444.583636 151.141347 
L 445.090909 149.353736 
L 445.598182 150.484904 
L 446.105455 148.659362 
L 446.612727 147.75591 
L 447.12 148.513378 
L 447.627273 147.741435 
L 449.149091 135.018735 
L 449.656364 140.519762 
L 450.163636 138.515763 
L 450.670909 140.071774 
L 451.178182 141.118381 
L 452.192727 152.472138 
L 452.7 148.927781 
L 453.207273 147.472851 
L 453.714545 150.011037 
L 454.221818 147.731357 
L 454.729091 147.510686 
L 455.743636 141.128089 
L 456.250909 139.735426 
L 456.758182 139.109863 
L 457.265455 137.469474 
L 457.772727 132.859955 
L 458.28 134.041947 
L 458.787273 132.479224 
L 459.294545 133.237169 
L 459.801818 133.088924 
L 460.309091 127.277805 
L 460.816364 126.830756 
L 461.323636 125.696578 
L 461.830909 126.602365 
L 462.338182 124.961523 
L 462.845455 122.151942 
L 463.352727 123.321463 
L 463.86 119.625364 
L 464.874545 126.663499 
L 465.381818 119.752197 
L 465.889091 116.690459 
L 466.396364 118.387677 
L 467.410909 112.33914 
L 467.918182 106.906179 
L 468.425455 104.21339 
L 468.932727 104.097553 
L 469.44 105.613128 
L 469.947273 106.009708 
L 470.454545 105.787923 
L 470.961818 108.573407 
L 471.976364 115.341344 
L 472.483636 112.366634 
L 472.990909 107.728823 
L 473.498182 111.015975 
L 474.512727 104.62432 
L 475.02 102.389977 
L 475.527273 107.144363 
L 476.034545 110.566717 
L 476.541818 108.346641 
L 477.049091 110.004747 
L 477.556364 110.19064 
L 478.063636 108.987063 
L 478.570909 108.464342 
L 479.078182 106.826294 
L 479.585455 108.972852 
L 480.092727 113.843407 
L 480.6 115.372819 
L 481.107273 119.878681 
L 481.614545 118.257964 
L 482.121818 113.414324 
L 483.136364 109.740465 
L 483.643636 111.756469 
L 484.150909 114.322173 
L 484.658182 122.028584 
L 485.165455 122.785145 
L 485.672727 126.404734 
L 486.687273 113.426356 
L 487.194545 115.464653 
L 488.209091 111.577956 
L 488.716364 107.543138 
L 489.223636 108.969539 
L 489.730909 115.531709 
L 490.238182 112.280745 
L 490.745455 117.373267 
L 491.252727 118.147327 
L 491.76 121.187954 
L 492.267273 119.302605 
L 492.774545 122.149139 
L 493.281818 122.332684 
L 493.789091 126.309588 
L 494.296364 127.677136 
L 494.803636 130.92874 
L 495.310909 130.140732 
L 495.818182 132.801761 
L 496.325455 136.315965 
L 496.832727 134.153024 
L 497.34 130.699621 
L 498.354545 142.216845 
L 499.369091 146.587762 
L 499.876364 150.138968 
L 500.383636 148.406465 
L 500.890909 141.855093 
L 501.398182 143.448 
L 501.905455 146.482081 
L 502.412727 140.423868 
L 502.92 143.348622 
L 503.427273 135.005834 
L 503.934545 130.026904 
L 504.441818 126.768223 
L 504.949091 127.016187 
L 505.456364 131.073943 
L 506.470909 120.911873 
L 506.978182 118.526074 
L 507.485455 118.697087 
L 507.992727 119.037808 
L 508.5 119.587359 
L 509.007273 116.680888 
L 510.529091 125.296598 
L 511.036364 123.119965 
L 511.543636 119.852148 
L 512.050909 120.004736 
L 512.558182 117.036261 
L 513.065455 117.141332 
L 513.572727 117.457503 
L 514.08 122.350527 
L 514.587273 130.053361 
L 515.094545 131.266296 
L 515.601818 133.257112 
L 516.109091 132.899317 
L 516.616364 133.344686 
L 517.123636 131.000082 
L 517.630909 130.439614 
L 518.138182 132.064831 
L 518.645455 132.868428 
L 519.152727 136.805157 
L 519.66 134.862331 
L 520.167273 134.21565 
L 520.674545 134.881974 
L 521.181818 133.516362 
L 521.689091 133.40403 
L 522.196364 135.906167 
L 522.703636 139.556832 
L 523.210909 141.135271 
L 523.718182 137.442509 
L 524.225455 143.890261 
L 524.732727 146.026297 
L 525.24 144.493378 
L 525.747273 149.360562 
L 526.254545 148.719336 
L 526.761818 146.809368 
L 527.269091 143.843885 
L 527.776364 142.225521 
L 528.283636 139.740108 
L 528.790909 136.381043 
L 529.298182 142.046444 
L 529.805455 149.446785 
L 530.312727 150.382187 
L 530.82 155.143219 
L 531.327273 158.096868 
L 531.834545 155.867973 
L 532.849091 160.598437 
L 533.356364 158.182155 
L 533.863636 148.630461 
L 534.370909 146.338977 
L 534.878182 149.099176 
L 535.385455 148.228372 
L 535.892727 145.659398 
L 536.4 147.258383 
L 536.907273 143.577059 
L 537.414545 144.742578 
L 537.921818 149.670945 
L 538.429091 149.31713 
L 538.936364 143.423352 
L 539.443636 141.704337 
L 540.458182 143.612299 
L 540.965455 140.270245 
L 541.472727 140.22573 
L 541.98 138.908698 
L 542.487273 138.955207 
L 542.994545 142.117555 
L 543.501818 139.776833 
L 544.009091 138.256475 
L 544.516364 138.481871 
L 545.530909 127.06559 
L 546.038182 128.092704 
L 546.545455 128.698252 
L 547.052727 131.154712 
L 547.56 132.683483 
L 548.067273 126.966501 
L 548.574545 128.75566 
L 549.081818 127.26081 
L 549.589091 126.517074 
L 550.096364 122.841471 
L 551.110909 113.099957 
L 551.618182 121.605014 
L 552.125455 124.324423 
L 552.632727 124.653619 
L 553.14 119.835903 
L 554.154545 123.156782 
L 554.661818 123.49092 
L 555.169091 123.309396 
L 555.676364 116.106885 
L 556.183636 112.749922 
L 556.690909 110.871756 
L 557.198182 113.083481 
L 557.705455 111.507039 
L 558.212727 108.302967 
L 558.72 107.016199 
L 559.227273 108.75799 
L 559.734545 107.469274 
L 560.749091 101.236848 
L 561.256364 103.070683 
L 562.270909 108.376361 
L 563.285455 101.895126 
L 564.3 105.703445 
L 564.807273 101.867846 
L 565.314545 104.799585 
L 565.821818 103.747108 
L 566.329091 100.533089 
L 566.836364 98.544548 
L 567.343636 99.883782 
L 567.850909 97.808815 
L 568.358182 96.474641 
L 568.865455 93.684464 
L 569.372727 93.131678 
L 569.88 95.16623 
L 570.387273 99.424148 
L 571.401818 94.576587 
L 571.909091 89.745005 
L 572.923636 85.283774 
L 573.430909 80.80663 
L 573.938182 83.548451 
L 574.445455 85.018179 
L 574.952727 87.156867 
L 575.46 83.379382 
L 576.981818 81.561251 
L 577.489091 78.402698 
L 577.996364 73.286645 
L 578.503636 77.144549 
L 579.010909 73.575611 
L 579.518182 67.803917 
L 580.025455 71.910277 
L 580.532727 72.1159 
L 581.04 74.251062 
L 581.547273 78.388658 
L 582.054545 73.926433 
L 582.561818 76.169906 
L 583.069091 72.558735 
L 583.576364 75.06704 
L 584.083636 73.59661 
L 584.590909 75.032783 
L 585.098182 71.114013 
L 586.112727 82.920844 
L 586.62 83.868146 
L 587.127273 85.302383 
L 587.634545 88.833711 
L 588.141818 83.078927 
L 588.649091 86.741462 
L 589.156364 88.535732 
L 589.663636 98.165041 
L 590.170909 95.554335 
L 590.678182 95.335821 
L 591.185455 95.842838 
L 591.692727 101.92384 
L 592.2 97.337491 
L 592.707273 94.204944 
L 593.214545 86.73916 
L 593.721818 83.892065 
L 594.229091 82.569082 
L 594.736364 82.467586 
L 595.243636 83.046329 
L 595.750909 78.789137 
L 596.258182 84.943363 
L 596.765455 83.003739 
L 597.272727 84.12027 
L 597.78 82.85842 
L 598.287273 76.967179 
L 598.794545 75.699491 
L 599.301818 80.501485 
L 599.809091 77.173757 
L 600.316364 73.103442 
L 600.823636 67.269256 
L 601.330909 67.173651 
L 601.838182 69.357299 
L 602.345455 73.034393 
L 602.852727 74.788036 
L 603.36 85.201562 
L 603.867273 89.327625 
L 604.374545 88.617828 
L 605.389091 86.375206 
L 605.896364 79.364811 
L 606.910909 82.86487 
L 607.418182 84.483324 
L 607.925455 83.788348 
L 608.432727 80.648665 
L 609.447273 89.9078 
L 609.954545 89.220844 
L 610.461818 89.089938 
L 610.969091 88.041738 
L 611.476364 88.451407 
L 611.983636 92.023415 
L 612.490909 91.1772 
L 613.505455 97.724386 
L 614.012727 98.479274 
L 615.027273 91.192666 
L 615.534545 86.495463 
L 616.041818 87.945475 
L 616.549091 87.482018 
L 617.056364 86.417358 
L 617.563636 83.480721 
L 618.070909 86.757713 
L 618.578182 91.077663 
L 619.085455 89.820453 
L 619.592727 86.286233 
L 620.1 89.970555 
L 620.607273 86.206186 
L 621.114545 87.903528 
L 621.621818 88.341248 
L 622.129091 92.364708 
L 622.636364 89.314925 
L 622.636364 89.314925 
" clip-path="url(#pa5b8ca3355)" style="fill: none; stroke: #2ca02c; stroke-width: 0.5; stroke-linecap: square"/>
   </g>
   <g id="patch_3">
    <path d="M 90 384.48 
L 90 51.84 
" style="fill: none; stroke: #000000; stroke-width: 0.8; stroke-linejoin: miter; stroke-linecap: square"/>
   </g>
   <g id="patch_4">
    <path d="M 648 384.48 
L 648 51.84 
" style="fill: none; stroke: #000000; stroke-width: 0.8; stroke-linejoin: miter; stroke-linecap: square"/>
   </g>
   <g id="patch_5">
    <path d="M 90 384.48 
L 648 384.48 
" style="fill: none; stroke: #000000; stroke-width: 0.8; stroke-linejoin: miter; stroke-linecap: square"/>
   </g>
   <g id="patch_6">
    <path d="M 90 51.84 
L 648 51.84 
" style="fill: none; stroke: #000000; stroke-width: 0.8; stroke-linejoin: miter; stroke-linecap: square"/>
   </g>
   <g id="text_15">
    <!-- Comparison of paths for $\alpha=0.02$ -->
    <g transform="translate(269.94 45.84) scale(0.12 -0.12)">
     <defs>
      <path id="DejaVuSans-43" d="M 4122 4306 
L 4122 3641 
Q 3803 3938 3442 4084 
Q 3081 4231 2675 4231 
Q 1875 4231 1450 3742 
Q 1025 3253 1025 2328 
Q 1025 1406 1450 917 
Q 1875 428 2675 428 
Q 3081 428 3442 575 
Q 3803 722 4122 1019 
L 4122 359 
Q 3791 134 3420 21 
Q 3050 -91 2638 -91 
Q 1578 -91 968 557 
Q 359 1206 359 2328 
Q 359 3453 968 4101 
Q 1578 4750 2638 4750 
Q 3056 4750 3426 4639 
Q 3797 4528 4122 4306 
z
" transform="scale(0.015625)"/>
      <path id="DejaVuSans-6f" d="M 1959 3097 
Q 1497 3097 1228 2736 
Q 959 2375 959 1747 
Q 959 1119 1226 758 
Q 1494 397 1959 397 
Q 2419 397 2687 759 
Q 2956 1122 2956 1747 
Q 2956 2369 2687 2733 
Q 2419 3097 1959 3097 
z
M 1959 3584 
Q 2709 3584 3137 3096 
Q 3566 2609 3566 1747 
Q 3566 888 3137 398 
Q 2709 -91 1959 -91 
Q 1206 -91 779 398 
Q 353 888 353 1747 
Q 353 2609 779 3096 
Q 1206 3584 1959 3584 
z
" transform="scale(0.015625)"/>
      <path id="DejaVuSans-6d" d="M 3328 2828 
Q 3544 3216 3844 3400 
Q 4144 3584 4550 3584 
Q 5097 3584 5394 3201 
Q 5691 2819 5691 2113 
L 5691 0 
L 5113 0 
L 5113 2094 
Q 5113 2597 4934 2840 
Q 4756 3084 4391 3084 
Q 3944 3084 3684 2787 
Q 3425 2491 3425 1978 
L 3425 0 
L 2847 0 
L 2847 2094 
Q 2847 2600 2669 2842 
Q 2491 3084 2119 3084 
Q 1678 3084 1418 2786 
Q 1159 2488 1159 1978 
L 1159 0 
L 581 0 
L 581 3500 
L 1159 3500 
L 1159 2956 
Q 1356 3278 1631 3431 
Q 1906 3584 2284 3584 
Q 2666 3584 2933 3390 
Q 3200 3197 3328 2828 
z
" transform="scale(0.015625)"/>
      <path id="DejaVuSans-70" d="M 1159 525 
L 1159 -1331 
L 581 -1331 
L 581 3500 
L 1159 3500 
L 1159 2969 
Q 1341 3281 1617 3432 
Q 1894 3584 2278 3584 
Q 2916 3584 3314 3078 
Q 3713 2572 3713 1747 
Q 3713 922 3314 415 
Q 2916 -91 2278 -91 
Q 1894 -91 1617 61 
Q 1341 213 1159 525 
z
M 3116 1747 
Q 3116 2381 2855 2742 
Q 2594 3103 2138 3103 
Q 1681 3103 1420 2742 
Q 1159 2381 1159 1747 
Q 1159 1113 1420 752 
Q 1681 391 2138 391 
Q 2594 391 2855 752 
Q 3116 1113 3116 1747 
z
" transform="scale(0.015625)"/>
      <path id="DejaVuSans-61" d="M 2194 1759 
Q 1497 1759 1228 1600 
Q 959 1441 959 1056 
Q 959 750 1161 570 
Q 1363 391 1709 391 
Q 2188 391 2477 730 
Q 2766 1069 2766 1631 
L 2766 1759 
L 2194 1759 
z
M 3341 1997 
L 3341 0 
L 2766 0 
L 2766 531 
Q 2569 213 2275 61 
Q 1981 -91 1556 -91 
Q 1019 -91 701 211 
Q 384 513 384 1019 
Q 384 1609 779 1909 
Q 1175 2209 1959 2209 
L 2766 2209 
L 2766 2266 
Q 2766 2663 2505 2880 
Q 2244 3097 1772 3097 
Q 1472 3097 1187 3025 
Q 903 2953 641 2809 
L 641 3341 
Q 956 3463 1253 3523 
Q 1550 3584 1831 3584 
Q 2591 3584 2966 3190 
Q 3341 2797 3341 1997 
z
" transform="scale(0.015625)"/>
      <path id="DejaVuSans-72" d="M 2631 2963 
Q 2534 3019 2420 3045 
Q 2306 3072 2169 3072 
Q 1681 3072 1420 2755 
Q 1159 2438 1159 1844 
L 1159 0 
L 581 0 
L 581 3500 
L 1159 3500 
L 1159 2956 
Q 1341 3275 1631 3429 
Q 1922 3584 2338 3584 
Q 2397 3584 2469 3576 
Q 2541 3569 2628 3553 
L 2631 2963 
z
" transform="scale(0.015625)"/>
      <path id="DejaVuSans-69" d="M 603 3500 
L 1178 3500 
L 1178 0 
L 603 0 
L 603 3500 
z
M 603 4863 
L 1178 4863 
L 1178 4134 
L 603 4134 
L 603 4863 
z
" transform="scale(0.015625)"/>
      <path id="DejaVuSans-73" d="M 2834 3397 
L 2834 2853 
Q 2591 2978 2328 3040 
Q 2066 3103 1784 3103 
Q 1356 3103 1142 2972 
Q 928 2841 928 2578 
Q 928 2378 1081 2264 
Q 1234 2150 1697 2047 
L 1894 2003 
Q 2506 1872 2764 1633 
Q 3022 1394 3022 966 
Q 3022 478 2636 193 
Q 2250 -91 1575 -91 
Q 1294 -91 989 -36 
Q 684 19 347 128 
L 347 722 
Q 666 556 975 473 
Q 1284 391 1588 391 
Q 1994 391 2212 530 
Q 2431 669 2431 922 
Q 2431 1156 2273 1281 
Q 2116 1406 1581 1522 
L 1381 1569 
Q 847 1681 609 1914 
Q 372 2147 372 2553 
Q 372 3047 722 3315 
Q 1072 3584 1716 3584 
Q 2034 3584 2315 3537 
Q 2597 3491 2834 3397 
z
" transform="scale(0.015625)"/>
      <path id="DejaVuSans-6e" d="M 3513 2113 
L 3513 0 
L 2938 0 
L 2938 2094 
Q 2938 2591 2744 2837 
Q 2550 3084 2163 3084 
Q 1697 3084 1428 2787 
Q 1159 2491 1159 1978 
L 1159 0 
L 581 0 
L 581 3500 
L 1159 3500 
L 1159 2956 
Q 1366 3272 1645 3428 
Q 1925 3584 2291 3584 
Q 2894 3584 3203 3211 
Q 3513 2838 3513 2113 
z
" transform="scale(0.015625)"/>
      <path id="DejaVuSans-20" transform="scale(0.015625)"/>
      <path id="DejaVuSans-66" d="M 2375 4863 
L 2375 4384 
L 1825 4384 
Q 1516 4384 1395 4259 
Q 1275 4134 1275 3809 
L 1275 3500 
L 2222 3500 
L 2222 3053 
L 1275 3053 
L 1275 0 
L 697 0 
L 697 3053 
L 147 3053 
L 147 3500 
L 697 3500 
L 697 3744 
Q 697 4328 969 4595 
Q 1241 4863 1831 4863 
L 2375 4863 
z
" transform="scale(0.015625)"/>
      <path id="DejaVuSans-74" d="M 1172 4494 
L 1172 3500 
L 2356 3500 
L 2356 3053 
L 1172 3053 
L 1172 1153 
Q 1172 725 1289 603 
Q 1406 481 1766 481 
L 2356 481 
L 2356 0 
L 1766 0 
Q 1100 0 847 248 
Q 594 497 594 1153 
L 594 3053 
L 172 3053 
L 172 3500 
L 594 3500 
L 594 4494 
L 1172 4494 
z
" transform="scale(0.015625)"/>
      <path id="DejaVuSans-68" d="M 3513 2113 
L 3513 0 
L 2938 0 
L 2938 2094 
Q 2938 2591 2744 2837 
Q 2550 3084 2163 3084 
Q 1697 3084 1428 2787 
Q 1159 2491 1159 1978 
L 1159 0 
L 581 0 
L 581 4863 
L 1159 4863 
L 1159 2956 
Q 1366 3272 1645 3428 
Q 1925 3584 2291 3584 
Q 2894 3584 3203 3211 
Q 3513 2838 3513 2113 
z
" transform="scale(0.015625)"/>
      <path id="DejaVuSans-Oblique-3b1" d="M 2619 1628 
L 2622 2350 
Q 2625 3088 2069 3091 
Q 1653 3094 1394 2747 
Q 1069 2319 959 1747 
Q 825 1059 994 731 
Q 1169 397 1547 397 
Q 1966 397 2319 1063 
L 2619 1628 
z
M 2166 3578 
Q 3141 3594 3128 2584 
Q 3128 2584 3616 3500 
L 4128 3500 
L 3119 1603 
L 3109 919 
Q 3109 766 3194 638 
Q 3291 488 3391 488 
L 3669 488 
L 3575 0 
L 3228 0 
Q 2934 0 2722 263 
Q 2622 394 2619 669 
Q 2416 334 2066 50 
Q 1900 -81 1453 -78 
Q 722 -72 456 397 
Q 184 884 353 1747 
Q 534 2675 1009 3097 
Q 1544 3569 2166 3578 
z
" transform="scale(0.015625)"/>
      <path id="DejaVuSans-3d" d="M 678 2906 
L 4684 2906 
L 4684 2381 
L 678 2381 
L 678 2906 
z
M 678 1631 
L 4684 1631 
L 4684 1100 
L 678 1100 
L 678 1631 
z
" transform="scale(0.015625)"/>
     </defs>
     <use xlink:href="#DejaVuSans-43" transform="translate(0 0.015625)"/>
     <use xlink:href="#DejaVuSans-6f" transform="translate(69.824219 0.015625)"/>
     <use xlink:href="#DejaVuSans-6d" transform="translate(131.005859 0.015625)"/>
     <use xlink:href="#DejaVuSans-70" transform="translate(228.417969 0.015625)"/>
     <use xlink:href="#DejaVuSans-61" transform="translate(291.894531 0.015625)"/>
     <use xlink:href="#DejaVuSans-72" transform="translate(353.173828 0.015625)"/>
     <use xlink:href="#DejaVuSans-69" transform="translate(394.287109 0.015625)"/>
     <use xlink:href="#DejaVuSans-73" transform="translate(422.070312 0.015625)"/>
     <use xlink:href="#DejaVuSans-6f" transform="translate(474.169922 0.015625)"/>
     <use xlink:href="#DejaVuSans-6e" transform="translate(535.351562 0.015625)"/>
     <use xlink:href="#DejaVuSans-20" transform="translate(598.730469 0.015625)"/>
     <use xlink:href="#DejaVuSans-6f" transform="translate(630.517578 0.015625)"/>
     <use xlink:href="#DejaVuSans-66" transform="translate(691.699219 0.015625)"/>
     <use xlink:href="#DejaVuSans-20" transform="translate(726.904297 0.015625)"/>
     <use xlink:href="#DejaVuSans-70" transform="translate(758.691406 0.015625)"/>
     <use xlink:href="#DejaVuSans-61" transform="translate(822.167969 0.015625)"/>
     <use xlink:href="#DejaVuSans-74" transform="translate(883.447266 0.015625)"/>
     <use xlink:href="#DejaVuSans-68" transform="translate(922.65625 0.015625)"/>
     <use xlink:href="#DejaVuSans-73" transform="translate(986.035156 0.015625)"/>
     <use xlink:href="#DejaVuSans-20" transform="translate(1038.134766 0.015625)"/>
     <use xlink:href="#DejaVuSans-66" transform="translate(1069.921875 0.015625)"/>
     <use xlink:href="#DejaVuSans-6f" transform="translate(1105.126953 0.015625)"/>
     <use xlink:href="#DejaVuSans-72" transform="translate(1166.308594 0.015625)"/>
     <use xlink:href="#DejaVuSans-20" transform="translate(1207.421875 0.015625)"/>
     <use xlink:href="#DejaVuSans-Oblique-3b1" transform="translate(1239.208984 0.015625)"/>
     <use xlink:href="#DejaVuSans-3d" transform="translate(1324.609375 0.015625)"/>
     <use xlink:href="#DejaVuSans-30" transform="translate(1427.880859 0.015625)"/>
     <use xlink:href="#DejaVuSans-2e" transform="translate(1491.503906 0.015625)"/>
     <use xlink:href="#DejaVuSans-30" transform="translate(1523.291016 0.015625)"/>
     <use xlink:href="#DejaVuSans-32" transform="translate(1586.914062 0.015625)"/>
    </g>
   </g>
   <g id="legend_1">
    <g id="patch_7">
     <path d="M 97 103.874375 
L 258.154688 103.874375 
Q 260.154688 103.874375 260.154688 101.874375 
L 260.154688 58.84 
Q 260.154688 56.84 258.154688 56.84 
L 97 56.84 
Q 95 56.84 95 58.84 
L 95 101.874375 
Q 95 103.874375 97 103.874375 
z
" style="fill: #ffffff; opacity: 0.8; stroke: #cccccc; stroke-linejoin: miter"/>
    </g>
    <g id="line2d_16">
     <path d="M 99 64.938437 
L 109 64.938437 
L 119 64.938437 
" style="fill: none; stroke: #1f77b4; stroke-width: 0.5; stroke-linecap: square"/>
    </g>
    <g id="text_16">
     <!-- Modified Euler-Maruyama -->
     <g transform="translate(127 68.438437) scale(0.1 -0.1)">
      <defs>
       <path id="DejaVuSans-4d" d="M 628 4666 
L 1569 4666 
L 2759 1491 
L 3956 4666 
L 4897 4666 
L 4897 0 
L 4281 0 
L 4281 4097 
L 3078 897 
L 2444 897 
L 1241 4097 
L 1241 0 
L 628 0 
L 628 4666 
z
" transform="scale(0.015625)"/>
       <path id="DejaVuSans-64" d="M 2906 2969 
L 2906 4863 
L 3481 4863 
L 3481 0 
L 2906 0 
L 2906 525 
Q 2725 213 2448 61 
Q 2172 -91 1784 -91 
Q 1150 -91 751 415 
Q 353 922 353 1747 
Q 353 2572 751 3078 
Q 1150 3584 1784 3584 
Q 2172 3584 2448 3432 
Q 2725 3281 2906 2969 
z
M 947 1747 
Q 947 1113 1208 752 
Q 1469 391 1925 391 
Q 2381 391 2643 752 
Q 2906 1113 2906 1747 
Q 2906 2381 2643 2742 
Q 2381 3103 1925 3103 
Q 1469 3103 1208 2742 
Q 947 2381 947 1747 
z
" transform="scale(0.015625)"/>
       <path id="DejaVuSans-65" d="M 3597 1894 
L 3597 1613 
L 953 1613 
Q 991 1019 1311 708 
Q 1631 397 2203 397 
Q 2534 397 2845 478 
Q 3156 559 3463 722 
L 3463 178 
Q 3153 47 2828 -22 
Q 2503 -91 2169 -91 
Q 1331 -91 842 396 
Q 353 884 353 1716 
Q 353 2575 817 3079 
Q 1281 3584 2069 3584 
Q 2775 3584 3186 3129 
Q 3597 2675 3597 1894 
z
M 3022 2063 
Q 3016 2534 2758 2815 
Q 2500 3097 2075 3097 
Q 1594 3097 1305 2825 
Q 1016 2553 972 2059 
L 3022 2063 
z
" transform="scale(0.015625)"/>
       <path id="DejaVuSans-45" d="M 628 4666 
L 3578 4666 
L 3578 4134 
L 1259 4134 
L 1259 2753 
L 3481 2753 
L 3481 2222 
L 1259 2222 
L 1259 531 
L 3634 531 
L 3634 0 
L 628 0 
L 628 4666 
z
" transform="scale(0.015625)"/>
       <path id="DejaVuSans-75" d="M 544 1381 
L 544 3500 
L 1119 3500 
L 1119 1403 
Q 1119 906 1312 657 
Q 1506 409 1894 409 
Q 2359 409 2629 706 
Q 2900 1003 2900 1516 
L 2900 3500 
L 3475 3500 
L 3475 0 
L 2900 0 
L 2900 538 
Q 2691 219 2414 64 
Q 2138 -91 1772 -91 
Q 1169 -91 856 284 
Q 544 659 544 1381 
z
M 1991 3584 
L 1991 3584 
z
" transform="scale(0.015625)"/>
       <path id="DejaVuSans-6c" d="M 603 4863 
L 1178 4863 
L 1178 0 
L 603 0 
L 603 4863 
z
" transform="scale(0.015625)"/>
       <path id="DejaVuSans-2d" d="M 313 2009 
L 1997 2009 
L 1997 1497 
L 313 1497 
L 313 2009 
z
" transform="scale(0.015625)"/>
       <path id="DejaVuSans-79" d="M 2059 -325 
Q 1816 -950 1584 -1140 
Q 1353 -1331 966 -1331 
L 506 -1331 
L 506 -850 
L 844 -850 
Q 1081 -850 1212 -737 
Q 1344 -625 1503 -206 
L 1606 56 
L 191 3500 
L 800 3500 
L 1894 763 
L 2988 3500 
L 3597 3500 
L 2059 -325 
z
" transform="scale(0.015625)"/>
      </defs>
      <use xlink:href="#DejaVuSans-4d"/>
      <use xlink:href="#DejaVuSans-6f" x="86.279297"/>
      <use xlink:href="#DejaVuSans-64" x="147.460938"/>
      <use xlink:href="#DejaVuSans-69" x="210.9375"/>
      <use xlink:href="#DejaVuSans-66" x="238.720703"/>
      <use xlink:href="#DejaVuSans-69" x="273.925781"/>
      <use xlink:href="#DejaVuSans-65" x="301.708984"/>
      <use xlink:href="#DejaVuSans-64" x="363.232422"/>
      <use xlink:href="#DejaVuSans-20" x="426.708984"/>
      <use xlink:href="#DejaVuSans-45" x="458.496094"/>
      <use xlink:href="#DejaVuSans-75" x="521.679688"/>
      <use xlink:href="#DejaVuSans-6c" x="585.058594"/>
      <use xlink:href="#DejaVuSans-65" x="612.841797"/>
      <use xlink:href="#DejaVuSans-72" x="674.365234"/>
      <use xlink:href="#DejaVuSans-2d" x="709.103516"/>
      <use xlink:href="#DejaVuSans-4d" x="745.1875"/>
      <use xlink:href="#DejaVuSans-61" x="831.466797"/>
      <use xlink:href="#DejaVuSans-72" x="892.746094"/>
      <use xlink:href="#DejaVuSans-75" x="933.859375"/>
      <use xlink:href="#DejaVuSans-79" x="997.238281"/>
      <use xlink:href="#DejaVuSans-61" x="1056.417969"/>
      <use xlink:href="#DejaVuSans-6d" x="1117.697266"/>
      <use xlink:href="#DejaVuSans-61" x="1215.109375"/>
     </g>
    </g>
    <g id="line2d_17">
     <path d="M 99 79.616562 
L 109 79.616562 
L 119 79.616562 
" style="fill: none; stroke: #ff7f0e; stroke-width: 0.5; stroke-linecap: square"/>
    </g>
    <g id="text_17">
     <!-- Fast algorithm -->
     <g transform="translate(127 83.116562) scale(0.1 -0.1)">
      <defs>
       <path id="DejaVuSans-46" d="M 628 4666 
L 3309 4666 
L 3309 4134 
L 1259 4134 
L 1259 2759 
L 3109 2759 
L 3109 2228 
L 1259 2228 
L 1259 0 
L 628 0 
L 628 4666 
z
" transform="scale(0.015625)"/>
       <path id="DejaVuSans-67" d="M 2906 1791 
Q 2906 2416 2648 2759 
Q 2391 3103 1925 3103 
Q 1463 3103 1205 2759 
Q 947 2416 947 1791 
Q 947 1169 1205 825 
Q 1463 481 1925 481 
Q 2391 481 2648 825 
Q 2906 1169 2906 1791 
z
M 3481 434 
Q 3481 -459 3084 -895 
Q 2688 -1331 1869 -1331 
Q 1566 -1331 1297 -1286 
Q 1028 -1241 775 -1147 
L 775 -588 
Q 1028 -725 1275 -790 
Q 1522 -856 1778 -856 
Q 2344 -856 2625 -561 
Q 2906 -266 2906 331 
L 2906 616 
Q 2728 306 2450 153 
Q 2172 0 1784 0 
Q 1141 0 747 490 
Q 353 981 353 1791 
Q 353 2603 747 3093 
Q 1141 3584 1784 3584 
Q 2172 3584 2450 3431 
Q 2728 3278 2906 2969 
L 2906 3500 
L 3481 3500 
L 3481 434 
z
" transform="scale(0.015625)"/>
      </defs>
      <use xlink:href="#DejaVuSans-46"/>
      <use xlink:href="#DejaVuSans-61" x="48.394531"/>
      <use xlink:href="#DejaVuSans-73" x="109.673828"/>
      <use xlink:href="#DejaVuSans-74" x="161.773438"/>
      <use xlink:href="#DejaVuSans-20" x="200.982422"/>
      <use xlink:href="#DejaVuSans-61" x="232.769531"/>
      <use xlink:href="#DejaVuSans-6c" x="294.048828"/>
      <use xlink:href="#DejaVuSans-67" x="321.832031"/>
      <use xlink:href="#DejaVuSans-6f" x="385.308594"/>
      <use xlink:href="#DejaVuSans-72" x="446.490234"/>
      <use xlink:href="#DejaVuSans-69" x="487.603516"/>
      <use xlink:href="#DejaVuSans-74" x="515.386719"/>
      <use xlink:href="#DejaVuSans-68" x="554.595703"/>
      <use xlink:href="#DejaVuSans-6d" x="617.974609"/>
     </g>
    </g>
    <g id="line2d_18">
     <path d="M 99 94.294687 
L 109 94.294687 
L 119 94.294687 
" style="fill: none; stroke: #2ca02c; stroke-width: 0.5; stroke-linecap: square"/>
    </g>
    <g id="text_18">
     <!-- Multifactor approximation -->
     <g transform="translate(127 97.794687) scale(0.1 -0.1)">
      <defs>
       <path id="DejaVuSans-63" d="M 3122 3366 
L 3122 2828 
Q 2878 2963 2633 3030 
Q 2388 3097 2138 3097 
Q 1578 3097 1268 2742 
Q 959 2388 959 1747 
Q 959 1106 1268 751 
Q 1578 397 2138 397 
Q 2388 397 2633 464 
Q 2878 531 3122 666 
L 3122 134 
Q 2881 22 2623 -34 
Q 2366 -91 2075 -91 
Q 1284 -91 818 406 
Q 353 903 353 1747 
Q 353 2603 823 3093 
Q 1294 3584 2113 3584 
Q 2378 3584 2631 3529 
Q 2884 3475 3122 3366 
z
" transform="scale(0.015625)"/>
       <path id="DejaVuSans-78" d="M 3513 3500 
L 2247 1797 
L 3578 0 
L 2900 0 
L 1881 1375 
L 863 0 
L 184 0 
L 1544 1831 
L 300 3500 
L 978 3500 
L 1906 2253 
L 2834 3500 
L 3513 3500 
z
" transform="scale(0.015625)"/>
      </defs>
      <use xlink:href="#DejaVuSans-4d"/>
      <use xlink:href="#DejaVuSans-75" x="86.279297"/>
      <use xlink:href="#DejaVuSans-6c" x="149.658203"/>
      <use xlink:href="#DejaVuSans-74" x="177.441406"/>
      <use xlink:href="#DejaVuSans-69" x="216.650391"/>
      <use xlink:href="#DejaVuSans-66" x="244.433594"/>
      <use xlink:href="#DejaVuSans-61" x="279.638672"/>
      <use xlink:href="#DejaVuSans-63" x="340.917969"/>
      <use xlink:href="#DejaVuSans-74" x="395.898438"/>
      <use xlink:href="#DejaVuSans-6f" x="435.107422"/>
      <use xlink:href="#DejaVuSans-72" x="496.289062"/>
      <use xlink:href="#DejaVuSans-20" x="537.402344"/>
      <use xlink:href="#DejaVuSans-61" x="569.189453"/>
      <use xlink:href="#DejaVuSans-70" x="630.46875"/>
      <use xlink:href="#DejaVuSans-70" x="693.945312"/>
      <use xlink:href="#DejaVuSans-72" x="757.421875"/>
      <use xlink:href="#DejaVuSans-6f" x="796.285156"/>
      <use xlink:href="#DejaVuSans-78" x="854.341797"/>
      <use xlink:href="#DejaVuSans-69" x="913.521484"/>
      <use xlink:href="#DejaVuSans-6d" x="941.304688"/>
      <use xlink:href="#DejaVuSans-61" x="1038.716797"/>
      <use xlink:href="#DejaVuSans-74" x="1099.996094"/>
      <use xlink:href="#DejaVuSans-69" x="1139.205078"/>
      <use xlink:href="#DejaVuSans-6f" x="1166.988281"/>
      <use xlink:href="#DejaVuSans-6e" x="1228.169922"/>
     </g>
    </g>
   </g>
  </g>
 </g>
 <defs>
  <clipPath id="pa5b8ca3355">
   <rect x="90" y="51.84" width="558" height="332.64"/>
  </clipPath>
 </defs>
</svg>
