<?xml version="1.0" encoding="utf-8" standalone="no"?>
<!DOCTYPE svg PUBLIC "-//W3C//DTD SVG 1.1//EN"
  "http://www.w3.org/Graphics/SVG/1.1/DTD/svg11.dtd">
<svg xmlns:xlink="http://www.w3.org/1999/xlink" width="720pt" height="432pt" viewBox="0 0 720 432" xmlns="http://www.w3.org/2000/svg" version="1.1">
 <metadata>
  <rdf:RDF xmlns:dc="http://purl.org/dc/elements/1.1/" xmlns:cc="http://creativecommons.org/ns#" xmlns:rdf="http://www.w3.org/1999/02/22-rdf-syntax-ns#">
   <cc:Work>
    <dc:type rdf:resource="http://purl.org/dc/dcmitype/StillImage"/>
    <dc:date>2024-04-19T09:47:25.052590</dc:date>
    <dc:format>image/svg+xml</dc:format>
    <dc:creator>
     <cc:Agent>
      <dc:title>Matplotlib v3.8.0, https://matplotlib.org/</dc:title>
     </cc:Agent>
    </dc:creator>
   </cc:Work>
  </rdf:RDF>
 </metadata>
 <defs>
  <style type="text/css">*{stroke-linejoin: round; stroke-linecap: butt}</style>
 </defs>
 <g id="figure_1">
  <g id="patch_1">
   <path d="M 0 432 
L 720 432 
L 720 0 
L 0 0 
z
" style="fill: #ffffff"/>
  </g>
  <g id="axes_1">
   <g id="patch_2">
    <path d="M 90 384.48 
L 648 384.48 
L 648 51.84 
L 90 51.84 
z
" style="fill: #ffffff"/>
   </g>
   <g id="matplotlib.axis_1">
    <g id="xtick_1">
     <g id="line2d_1">
      <defs>
       <path id="mdd5f6eeb03" d="M 0 0 
L 0 3.5 
" style="stroke: #000000; stroke-width: 0.8"/>
      </defs>
      <g>
       <use xlink:href="#mdd5f6eeb03" x="115.363636" y="384.48" style="stroke: #000000; stroke-width: 0.8"/>
      </g>
     </g>
     <g id="text_1">
      <!-- 0.0 -->
      <g transform="translate(107.412074 399.078438) scale(0.1 -0.1)">
       <defs>
        <path id="DejaVuSans-30" d="M 2034 4250 
Q 1547 4250 1301 3770 
Q 1056 3291 1056 2328 
Q 1056 1369 1301 889 
Q 1547 409 2034 409 
Q 2525 409 2770 889 
Q 3016 1369 3016 2328 
Q 3016 3291 2770 3770 
Q 2525 4250 2034 4250 
z
M 2034 4750 
Q 2819 4750 3233 4129 
Q 3647 3509 3647 2328 
Q 3647 1150 3233 529 
Q 2819 -91 2034 -91 
Q 1250 -91 836 529 
Q 422 1150 422 2328 
Q 422 3509 836 4129 
Q 1250 4750 2034 4750 
z
" transform="scale(0.015625)"/>
        <path id="DejaVuSans-2e" d="M 684 794 
L 1344 794 
L 1344 0 
L 684 0 
L 684 794 
z
" transform="scale(0.015625)"/>
       </defs>
       <use xlink:href="#DejaVuSans-30"/>
       <use xlink:href="#DejaVuSans-2e" x="63.623047"/>
       <use xlink:href="#DejaVuSans-30" x="95.410156"/>
      </g>
     </g>
    </g>
    <g id="xtick_2">
     <g id="line2d_2">
      <g>
       <use xlink:href="#mdd5f6eeb03" x="216.818182" y="384.48" style="stroke: #000000; stroke-width: 0.8"/>
      </g>
     </g>
     <g id="text_2">
      <!-- 0.2 -->
      <g transform="translate(208.866619 399.078438) scale(0.1 -0.1)">
       <defs>
        <path id="DejaVuSans-32" d="M 1228 531 
L 3431 531 
L 3431 0 
L 469 0 
L 469 531 
Q 828 903 1448 1529 
Q 2069 2156 2228 2338 
Q 2531 2678 2651 2914 
Q 2772 3150 2772 3378 
Q 2772 3750 2511 3984 
Q 2250 4219 1831 4219 
Q 1534 4219 1204 4116 
Q 875 4013 500 3803 
L 500 4441 
Q 881 4594 1212 4672 
Q 1544 4750 1819 4750 
Q 2544 4750 2975 4387 
Q 3406 4025 3406 3419 
Q 3406 3131 3298 2873 
Q 3191 2616 2906 2266 
Q 2828 2175 2409 1742 
Q 1991 1309 1228 531 
z
" transform="scale(0.015625)"/>
       </defs>
       <use xlink:href="#DejaVuSans-30"/>
       <use xlink:href="#DejaVuSans-2e" x="63.623047"/>
       <use xlink:href="#DejaVuSans-32" x="95.410156"/>
      </g>
     </g>
    </g>
    <g id="xtick_3">
     <g id="line2d_3">
      <g>
       <use xlink:href="#mdd5f6eeb03" x="318.272727" y="384.48" style="stroke: #000000; stroke-width: 0.8"/>
      </g>
     </g>
     <g id="text_3">
      <!-- 0.4 -->
      <g transform="translate(310.321165 399.078438) scale(0.1 -0.1)">
       <defs>
        <path id="DejaVuSans-34" d="M 2419 4116 
L 825 1625 
L 2419 1625 
L 2419 4116 
z
M 2253 4666 
L 3047 4666 
L 3047 1625 
L 3713 1625 
L 3713 1100 
L 3047 1100 
L 3047 0 
L 2419 0 
L 2419 1100 
L 313 1100 
L 313 1709 
L 2253 4666 
z
" transform="scale(0.015625)"/>
       </defs>
       <use xlink:href="#DejaVuSans-30"/>
       <use xlink:href="#DejaVuSans-2e" x="63.623047"/>
       <use xlink:href="#DejaVuSans-34" x="95.410156"/>
      </g>
     </g>
    </g>
    <g id="xtick_4">
     <g id="line2d_4">
      <g>
       <use xlink:href="#mdd5f6eeb03" x="419.727273" y="384.48" style="stroke: #000000; stroke-width: 0.8"/>
      </g>
     </g>
     <g id="text_4">
      <!-- 0.6 -->
      <g transform="translate(411.77571 399.078438) scale(0.1 -0.1)">
       <defs>
        <path id="DejaVuSans-36" d="M 2113 2584 
Q 1688 2584 1439 2293 
Q 1191 2003 1191 1497 
Q 1191 994 1439 701 
Q 1688 409 2113 409 
Q 2538 409 2786 701 
Q 3034 994 3034 1497 
Q 3034 2003 2786 2293 
Q 2538 2584 2113 2584 
z
M 3366 4563 
L 3366 3988 
Q 3128 4100 2886 4159 
Q 2644 4219 2406 4219 
Q 1781 4219 1451 3797 
Q 1122 3375 1075 2522 
Q 1259 2794 1537 2939 
Q 1816 3084 2150 3084 
Q 2853 3084 3261 2657 
Q 3669 2231 3669 1497 
Q 3669 778 3244 343 
Q 2819 -91 2113 -91 
Q 1303 -91 875 529 
Q 447 1150 447 2328 
Q 447 3434 972 4092 
Q 1497 4750 2381 4750 
Q 2619 4750 2861 4703 
Q 3103 4656 3366 4563 
z
" transform="scale(0.015625)"/>
       </defs>
       <use xlink:href="#DejaVuSans-30"/>
       <use xlink:href="#DejaVuSans-2e" x="63.623047"/>
       <use xlink:href="#DejaVuSans-36" x="95.410156"/>
      </g>
     </g>
    </g>
    <g id="xtick_5">
     <g id="line2d_5">
      <g>
       <use xlink:href="#mdd5f6eeb03" x="521.181818" y="384.48" style="stroke: #000000; stroke-width: 0.8"/>
      </g>
     </g>
     <g id="text_5">
      <!-- 0.8 -->
      <g transform="translate(513.230256 399.078438) scale(0.1 -0.1)">
       <defs>
        <path id="DejaVuSans-38" d="M 2034 2216 
Q 1584 2216 1326 1975 
Q 1069 1734 1069 1313 
Q 1069 891 1326 650 
Q 1584 409 2034 409 
Q 2484 409 2743 651 
Q 3003 894 3003 1313 
Q 3003 1734 2745 1975 
Q 2488 2216 2034 2216 
z
M 1403 2484 
Q 997 2584 770 2862 
Q 544 3141 544 3541 
Q 544 4100 942 4425 
Q 1341 4750 2034 4750 
Q 2731 4750 3128 4425 
Q 3525 4100 3525 3541 
Q 3525 3141 3298 2862 
Q 3072 2584 2669 2484 
Q 3125 2378 3379 2068 
Q 3634 1759 3634 1313 
Q 3634 634 3220 271 
Q 2806 -91 2034 -91 
Q 1263 -91 848 271 
Q 434 634 434 1313 
Q 434 1759 690 2068 
Q 947 2378 1403 2484 
z
M 1172 3481 
Q 1172 3119 1398 2916 
Q 1625 2713 2034 2713 
Q 2441 2713 2670 2916 
Q 2900 3119 2900 3481 
Q 2900 3844 2670 4047 
Q 2441 4250 2034 4250 
Q 1625 4250 1398 4047 
Q 1172 3844 1172 3481 
z
" transform="scale(0.015625)"/>
       </defs>
       <use xlink:href="#DejaVuSans-30"/>
       <use xlink:href="#DejaVuSans-2e" x="63.623047"/>
       <use xlink:href="#DejaVuSans-38" x="95.410156"/>
      </g>
     </g>
    </g>
    <g id="xtick_6">
     <g id="line2d_6">
      <g>
       <use xlink:href="#mdd5f6eeb03" x="622.636364" y="384.48" style="stroke: #000000; stroke-width: 0.8"/>
      </g>
     </g>
     <g id="text_6">
      <!-- 1.0 -->
      <g transform="translate(614.684801 399.078438) scale(0.1 -0.1)">
       <defs>
        <path id="DejaVuSans-31" d="M 794 531 
L 1825 531 
L 1825 4091 
L 703 3866 
L 703 4441 
L 1819 4666 
L 2450 4666 
L 2450 531 
L 3481 531 
L 3481 0 
L 794 0 
L 794 531 
z
" transform="scale(0.015625)"/>
       </defs>
       <use xlink:href="#DejaVuSans-31"/>
       <use xlink:href="#DejaVuSans-2e" x="63.623047"/>
       <use xlink:href="#DejaVuSans-30" x="95.410156"/>
      </g>
     </g>
    </g>
    <g id="text_7">
     <!-- $t$ -->
     <g transform="translate(367 412.756563) scale(0.1 -0.1)">
      <defs>
       <path id="DejaVuSans-Oblique-74" d="M 2706 3500 
L 2619 3053 
L 1472 3053 
L 1100 1153 
Q 1081 1047 1072 975 
Q 1063 903 1063 863 
Q 1063 663 1183 572 
Q 1303 481 1569 481 
L 2150 481 
L 2053 0 
L 1503 0 
Q 991 0 739 200 
Q 488 400 488 806 
Q 488 878 497 964 
Q 506 1050 525 1153 
L 897 3053 
L 409 3053 
L 500 3500 
L 978 3500 
L 1172 4494 
L 1747 4494 
L 1556 3500 
L 2706 3500 
z
" transform="scale(0.015625)"/>
      </defs>
      <use xlink:href="#DejaVuSans-Oblique-74" transform="translate(0 0.78125)"/>
     </g>
    </g>
   </g>
   <g id="matplotlib.axis_2">
    <g id="ytick_1">
     <g id="line2d_7">
      <defs>
       <path id="m3281abc23c" d="M 0 0 
L -3.5 0 
" style="stroke: #000000; stroke-width: 0.8"/>
      </defs>
      <g>
       <use xlink:href="#m3281abc23c" x="90" y="377.174968" style="stroke: #000000; stroke-width: 0.8"/>
      </g>
     </g>
     <g id="text_8">
      <!-- 0.03 -->
      <g transform="translate(60.734375 380.974187) scale(0.1 -0.1)">
       <defs>
        <path id="DejaVuSans-33" d="M 2597 2516 
Q 3050 2419 3304 2112 
Q 3559 1806 3559 1356 
Q 3559 666 3084 287 
Q 2609 -91 1734 -91 
Q 1441 -91 1130 -33 
Q 819 25 488 141 
L 488 750 
Q 750 597 1062 519 
Q 1375 441 1716 441 
Q 2309 441 2620 675 
Q 2931 909 2931 1356 
Q 2931 1769 2642 2001 
Q 2353 2234 1838 2234 
L 1294 2234 
L 1294 2753 
L 1863 2753 
Q 2328 2753 2575 2939 
Q 2822 3125 2822 3475 
Q 2822 3834 2567 4026 
Q 2313 4219 1838 4219 
Q 1578 4219 1281 4162 
Q 984 4106 628 3988 
L 628 4550 
Q 988 4650 1302 4700 
Q 1616 4750 1894 4750 
Q 2613 4750 3031 4423 
Q 3450 4097 3450 3541 
Q 3450 3153 3228 2886 
Q 3006 2619 2597 2516 
z
" transform="scale(0.015625)"/>
       </defs>
       <use xlink:href="#DejaVuSans-30"/>
       <use xlink:href="#DejaVuSans-2e" x="63.623047"/>
       <use xlink:href="#DejaVuSans-30" x="95.410156"/>
       <use xlink:href="#DejaVuSans-33" x="159.033203"/>
      </g>
     </g>
    </g>
    <g id="ytick_2">
     <g id="line2d_8">
      <g>
       <use xlink:href="#m3281abc23c" x="90" y="319.436509" style="stroke: #000000; stroke-width: 0.8"/>
      </g>
     </g>
     <g id="text_9">
      <!-- 0.04 -->
      <g transform="translate(60.734375 323.235727) scale(0.1 -0.1)">
       <use xlink:href="#DejaVuSans-30"/>
       <use xlink:href="#DejaVuSans-2e" x="63.623047"/>
       <use xlink:href="#DejaVuSans-30" x="95.410156"/>
       <use xlink:href="#DejaVuSans-34" x="159.033203"/>
      </g>
     </g>
    </g>
    <g id="ytick_3">
     <g id="line2d_9">
      <g>
       <use xlink:href="#m3281abc23c" x="90" y="261.698049" style="stroke: #000000; stroke-width: 0.8"/>
      </g>
     </g>
     <g id="text_10">
      <!-- 0.05 -->
      <g transform="translate(60.734375 265.497268) scale(0.1 -0.1)">
       <defs>
        <path id="DejaVuSans-35" d="M 691 4666 
L 3169 4666 
L 3169 4134 
L 1269 4134 
L 1269 2991 
Q 1406 3038 1543 3061 
Q 1681 3084 1819 3084 
Q 2600 3084 3056 2656 
Q 3513 2228 3513 1497 
Q 3513 744 3044 326 
Q 2575 -91 1722 -91 
Q 1428 -91 1123 -41 
Q 819 9 494 109 
L 494 744 
Q 775 591 1075 516 
Q 1375 441 1709 441 
Q 2250 441 2565 725 
Q 2881 1009 2881 1497 
Q 2881 1984 2565 2268 
Q 2250 2553 1709 2553 
Q 1456 2553 1204 2497 
Q 953 2441 691 2322 
L 691 4666 
z
" transform="scale(0.015625)"/>
       </defs>
       <use xlink:href="#DejaVuSans-30"/>
       <use xlink:href="#DejaVuSans-2e" x="63.623047"/>
       <use xlink:href="#DejaVuSans-30" x="95.410156"/>
       <use xlink:href="#DejaVuSans-35" x="159.033203"/>
      </g>
     </g>
    </g>
    <g id="ytick_4">
     <g id="line2d_10">
      <g>
       <use xlink:href="#m3281abc23c" x="90" y="203.95959" style="stroke: #000000; stroke-width: 0.8"/>
      </g>
     </g>
     <g id="text_11">
      <!-- 0.06 -->
      <g transform="translate(60.734375 207.758809) scale(0.1 -0.1)">
       <use xlink:href="#DejaVuSans-30"/>
       <use xlink:href="#DejaVuSans-2e" x="63.623047"/>
       <use xlink:href="#DejaVuSans-30" x="95.410156"/>
       <use xlink:href="#DejaVuSans-36" x="159.033203"/>
      </g>
     </g>
    </g>
    <g id="ytick_5">
     <g id="line2d_11">
      <g>
       <use xlink:href="#m3281abc23c" x="90" y="146.221131" style="stroke: #000000; stroke-width: 0.8"/>
      </g>
     </g>
     <g id="text_12">
      <!-- 0.07 -->
      <g transform="translate(60.734375 150.02035) scale(0.1 -0.1)">
       <defs>
        <path id="DejaVuSans-37" d="M 525 4666 
L 3525 4666 
L 3525 4397 
L 1831 0 
L 1172 0 
L 2766 4134 
L 525 4134 
L 525 4666 
z
" transform="scale(0.015625)"/>
       </defs>
       <use xlink:href="#DejaVuSans-30"/>
       <use xlink:href="#DejaVuSans-2e" x="63.623047"/>
       <use xlink:href="#DejaVuSans-30" x="95.410156"/>
       <use xlink:href="#DejaVuSans-37" x="159.033203"/>
      </g>
     </g>
    </g>
    <g id="ytick_6">
     <g id="line2d_12">
      <g>
       <use xlink:href="#m3281abc23c" x="90" y="88.482672" style="stroke: #000000; stroke-width: 0.8"/>
      </g>
     </g>
     <g id="text_13">
      <!-- 0.08 -->
      <g transform="translate(60.734375 92.281891) scale(0.1 -0.1)">
       <use xlink:href="#DejaVuSans-30"/>
       <use xlink:href="#DejaVuSans-2e" x="63.623047"/>
       <use xlink:href="#DejaVuSans-30" x="95.410156"/>
       <use xlink:href="#DejaVuSans-38" x="159.033203"/>
      </g>
     </g>
    </g>
    <g id="text_14">
     <!-- $V_t$ -->
     <g transform="translate(54.654688 223.11) rotate(-90) scale(0.1 -0.1)">
      <defs>
       <path id="DejaVuSans-Oblique-56" d="M 1319 0 
L 500 4666 
L 1119 4666 
L 1797 653 
L 4063 4666 
L 4750 4666 
L 2053 0 
L 1319 0 
z
" transform="scale(0.015625)"/>
      </defs>
      <use xlink:href="#DejaVuSans-Oblique-56" transform="translate(0 0.09375)"/>
      <use xlink:href="#DejaVuSans-Oblique-74" transform="translate(68.408203 -16.3125) scale(0.7)"/>
     </g>
    </g>
   </g>
   <g id="line2d_13">
    <path d="M 115.363636 324.055585 
L 115.870909 289.775152 
L 116.378182 320.96963 
L 116.885455 301.213961 
L 117.392727 313.962281 
L 117.9 346.460794 
L 118.407273 336.484812 
L 118.914545 298.633552 
L 119.421818 289.167094 
L 119.929091 301.878634 
L 120.436364 353.321754 
L 120.943636 314.559112 
L 121.450909 315.400453 
L 121.958182 293.814054 
L 122.972727 331.751654 
L 123.48 294.3216 
L 124.494545 320.283009 
L 125.001818 293.91918 
L 125.509091 329.402226 
L 126.016364 276.686455 
L 126.523636 288.227593 
L 127.030909 258.806071 
L 127.538182 245.583403 
L 128.045455 276.882548 
L 128.552727 244.376759 
L 129.06 263.4004 
L 129.567273 253.950723 
L 130.074545 236.326686 
L 130.581818 224.072216 
L 131.089091 264.913957 
L 131.596364 279.006565 
L 132.103636 303.118092 
L 132.610909 281.466507 
L 133.118182 319.897328 
L 133.625455 313.339608 
L 134.132727 257.360568 
L 134.64 287.321247 
L 135.147273 289.100779 
L 135.654545 305.773819 
L 136.161818 308.257824 
L 136.669091 294.297059 
L 137.176364 308.873109 
L 138.190909 296.714799 
L 138.698182 286.231614 
L 139.205455 292.03278 
L 139.712727 328.698926 
L 140.22 295.4294 
L 140.727273 272.344629 
L 141.234545 307.433253 
L 141.741818 309.881168 
L 142.249091 316.742107 
L 142.756364 357.930855 
L 143.263636 342.46891 
L 143.770909 314.45774 
L 144.278182 324.023784 
L 144.785455 317.665993 
L 145.292727 316.0938 
L 145.8 307.692491 
L 146.307273 329.287062 
L 146.814545 340.712689 
L 147.321818 369.36 
L 147.829091 321.597844 
L 148.336364 288.82199 
L 148.843636 275.89443 
L 149.350909 325.770985 
L 149.858182 339.080384 
L 150.365455 326.946721 
L 150.872727 318.619049 
L 151.38 332.920369 
L 151.887273 312.841862 
L 152.394545 284.170879 
L 152.901818 290.363758 
L 153.409091 319.44942 
L 153.916364 286.528819 
L 154.423636 321.59206 
L 154.930909 318.741167 
L 155.438182 267.040402 
L 155.945455 313.855973 
L 156.452727 335.976159 
L 156.96 328.585129 
L 157.467273 362.708389 
L 158.481818 330.224774 
L 158.989091 332.344786 
L 159.496364 314.327818 
L 160.003636 342.593949 
L 160.510909 362.524519 
L 161.018182 338.968874 
L 161.525455 355.819564 
L 162.032727 311.465032 
L 162.54 359.69554 
L 163.047273 343.438105 
L 163.554545 341.41075 
L 164.061818 321.163514 
L 164.569091 338.190385 
L 165.076364 317.824362 
L 165.583636 313.955093 
L 166.090909 301.267072 
L 166.598182 298.679249 
L 167.105455 345.668172 
L 167.612727 307.879067 
L 168.12 309.137154 
L 168.627273 323.62134 
L 169.134545 342.787809 
L 169.641818 330.050192 
L 170.149091 332.928678 
L 170.656364 312.286702 
L 171.163636 255.84428 
L 171.670909 270.424971 
L 172.178182 269.268118 
L 172.685455 270.220064 
L 173.7 244.158792 
L 174.207273 288.926713 
L 174.714545 314.179211 
L 175.221818 309.382661 
L 175.729091 328.679119 
L 176.236364 296.741681 
L 176.743636 291.305504 
L 177.250909 293.993349 
L 177.758182 269.869927 
L 178.265455 304.326473 
L 178.772727 295.517932 
L 179.28 321.076773 
L 179.787273 276.359034 
L 180.294545 287.471905 
L 180.801818 254.070708 
L 181.309091 277.68236 
L 181.816364 247.764067 
L 182.323636 315.881403 
L 182.830909 279.673344 
L 183.338182 254.372915 
L 183.845455 250.048795 
L 184.352727 250.223474 
L 184.86 262.021155 
L 185.367273 279.624118 
L 185.874545 292.481836 
L 186.381818 278.020378 
L 186.889091 267.81548 
L 187.903636 344.221978 
L 188.410909 310.343484 
L 188.918182 306.02119 
L 189.425455 314.913723 
L 189.932727 296.174421 
L 190.44 261.950464 
L 190.947273 305.470428 
L 191.454545 309.444046 
L 191.961818 302.680413 
L 192.469091 334.058692 
L 192.976364 321.717344 
L 193.483636 322.283356 
L 193.990909 340.752931 
L 194.498182 323.39058 
L 195.005455 290.58114 
L 195.512727 309.282114 
L 196.02 318.147194 
L 196.527273 316.661657 
L 197.034545 306.806643 
L 197.541818 303.50505 
L 198.049091 340.570315 
L 198.556364 317.875381 
L 199.063636 248.093631 
L 199.570909 345.773965 
L 200.078182 351.399191 
L 200.585455 294.417313 
L 201.092727 302.142983 
L 201.6 289.859162 
L 202.107273 273.777692 
L 202.614545 303.593157 
L 203.121818 305.203599 
L 203.629091 294.354085 
L 204.136364 280.787006 
L 204.643636 275.119302 
L 205.150909 348.681763 
L 205.658182 282.392343 
L 206.165455 313.290607 
L 206.672727 302.862008 
L 207.18 285.923234 
L 207.687273 306.017063 
L 208.194545 320.198054 
L 208.701818 312.774072 
L 209.209091 297.285724 
L 209.716364 305.107295 
L 210.223636 325.310254 
L 210.730909 300.771328 
L 211.238182 294.274702 
L 211.745455 316.94817 
L 212.252727 314.177079 
L 212.76 339.051058 
L 213.267273 328.625279 
L 213.774545 328.05381 
L 214.281818 336.731591 
L 214.789091 324.756116 
L 215.296364 336.732123 
L 215.803636 325.363847 
L 216.310909 307.695729 
L 216.818182 304.185532 
L 217.325455 323.384384 
L 217.832727 318.206737 
L 218.34 321.548962 
L 218.847273 288.93248 
L 219.354545 307.298408 
L 219.861818 312.24125 
L 220.369091 321.662855 
L 220.876364 325.037081 
L 221.383636 336.720412 
L 221.890909 300.14243 
L 222.398182 336.35524 
L 222.905455 322.92307 
L 223.412727 287.143035 
L 223.92 295.192601 
L 224.427273 296.582113 
L 224.934545 295.891949 
L 225.441818 278.374894 
L 225.949091 365.869437 
L 226.456364 307.127102 
L 226.963636 311.674455 
L 227.470909 308.989167 
L 227.978182 324.302302 
L 228.485455 280.832811 
L 228.992727 340.819908 
L 229.5 308.009487 
L 230.007273 324.153931 
L 230.514545 313.935701 
L 231.021818 336.432579 
L 232.036364 316.856776 
L 232.543636 320.92491 
L 233.050909 353.765723 
L 233.558182 341.285501 
L 234.065455 299.840412 
L 234.572727 346.314702 
L 235.08 368.860326 
L 235.587273 312.086179 
L 236.094545 333.649382 
L 236.601818 300.977827 
L 237.109091 316.957586 
L 237.616364 310.998917 
L 238.123636 301.494723 
L 238.630909 315.013868 
L 239.138182 275.689114 
L 239.645455 303.065928 
L 240.152727 306.446549 
L 240.66 283.917229 
L 241.167273 249.44019 
L 242.181818 221.562277 
L 242.689091 241.755476 
L 243.196364 249.28143 
L 243.703636 253.147191 
L 244.210909 277.221508 
L 244.718182 264.545661 
L 245.225455 244.197023 
L 245.732727 213.077514 
L 246.24 203.145304 
L 246.747273 240.025518 
L 247.254545 238.425716 
L 247.761818 219.004592 
L 248.269091 205.741753 
L 248.776364 217.480079 
L 249.283636 240.267226 
L 249.790909 254.525735 
L 250.298182 192.413648 
L 250.805455 208.616588 
L 251.312727 196.00865 
L 251.82 230.814159 
L 252.327273 253.257347 
L 252.834545 174.967989 
L 253.341818 260.015456 
L 253.849091 215.774389 
L 254.356364 190.556658 
L 254.863636 227.602559 
L 255.878182 160.49848 
L 256.385455 236.063366 
L 256.892727 225.956638 
L 257.4 219.618064 
L 257.907273 187.406304 
L 258.414545 189.164241 
L 258.921818 213.071186 
L 259.429091 243.232422 
L 259.936364 211.570234 
L 260.443636 218.608143 
L 260.950909 216.838046 
L 261.458182 213.160722 
L 261.965455 263.070695 
L 262.472727 224.994419 
L 262.98 276.329106 
L 263.487273 236.591886 
L 263.994545 236.883175 
L 264.501818 255.977545 
L 265.009091 242.401669 
L 265.516364 243.855831 
L 266.023636 282.207266 
L 266.530909 245.387053 
L 267.038182 251.647044 
L 267.545455 216.668176 
L 268.052727 238.968288 
L 268.56 240.108462 
L 269.067273 237.218368 
L 269.574545 236.006109 
L 270.081818 254.720636 
L 270.589091 242.330234 
L 271.096364 225.312577 
L 271.603636 245.258588 
L 272.110909 236.49277 
L 272.618182 216.820157 
L 273.125455 248.227299 
L 273.632727 230.440176 
L 274.14 284.74269 
L 274.647273 204.724946 
L 275.154545 190.181436 
L 275.661818 213.541277 
L 276.169091 176.70122 
L 276.676364 202.028065 
L 277.183636 191.037732 
L 277.690909 199.525177 
L 278.198182 193.525159 
L 278.705455 201.348281 
L 279.212727 189.617198 
L 279.72 163.530997 
L 280.227273 124.153401 
L 280.734545 165.90532 
L 281.241818 135.851623 
L 281.749091 123.244643 
L 282.256364 152.95592 
L 282.763636 167.738178 
L 283.270909 172.046397 
L 283.778182 144.747422 
L 284.285455 131.059851 
L 284.792727 152.005443 
L 285.3 134.119473 
L 285.807273 147.763238 
L 286.314545 156.781325 
L 287.329091 192.271259 
L 287.836364 180.156722 
L 288.343636 175.955031 
L 288.850909 154.125216 
L 289.358182 149.864665 
L 289.865455 158.44927 
L 290.372727 216.35278 
L 290.88 172.002635 
L 291.387273 192.233894 
L 291.894545 191.948738 
L 292.401818 216.495753 
L 292.909091 230.770455 
L 293.416364 164.223771 
L 293.923636 187.149425 
L 294.430909 187.032345 
L 294.938182 211.480113 
L 295.445455 214.016385 
L 295.952727 183.454662 
L 296.46 209.443431 
L 296.967273 137.738279 
L 297.474545 142.974509 
L 297.981818 134.303375 
L 298.489091 219.929631 
L 298.996364 154.869716 
L 300.010909 178.773526 
L 300.518182 183.512477 
L 301.025455 133.487909 
L 301.532727 135.739988 
L 302.04 213.194243 
L 303.054545 142.281801 
L 303.561818 140.46419 
L 304.069091 207.589141 
L 304.576364 201.111766 
L 305.083636 219.003008 
L 305.590909 214.181283 
L 306.098182 169.736235 
L 306.605455 194.69622 
L 307.112727 179.348745 
L 307.62 223.707031 
L 308.127273 236.897725 
L 308.634545 196.100695 
L 309.141818 202.193421 
L 309.649091 249.974812 
L 310.156364 227.933907 
L 310.663636 200.735472 
L 311.170909 192.637897 
L 311.678182 208.102642 
L 312.185455 169.557268 
L 312.692727 207.287322 
L 313.2 156.255058 
L 313.707273 158.563485 
L 314.214545 175.276936 
L 314.721818 226.663943 
L 315.229091 204.766763 
L 316.243636 172.388751 
L 316.750909 230.027281 
L 317.258182 171.472909 
L 317.765455 189.509207 
L 318.272727 217.689329 
L 318.78 208.066711 
L 319.794545 175.851244 
L 320.301818 191.784067 
L 320.809091 186.171197 
L 321.316364 165.297275 
L 321.823636 187.153601 
L 322.330909 152.266025 
L 322.838182 140.428257 
L 323.345455 138.931534 
L 323.852727 118.236471 
L 324.36 171.154999 
L 324.867273 169.942023 
L 325.374545 205.991897 
L 325.881818 175.297354 
L 326.389091 201.153521 
L 326.896364 116.78944 
L 327.403636 185.817838 
L 327.910909 176.045981 
L 328.418182 181.396675 
L 328.925455 130.136592 
L 329.94 195.72292 
L 330.447273 179.799317 
L 330.954545 148.569776 
L 331.461818 180.179793 
L 331.969091 138.859836 
L 332.476364 157.672834 
L 332.983636 148.828434 
L 333.490909 165.861055 
L 333.998182 206.532009 
L 334.505455 167.056753 
L 335.012727 204.671539 
L 335.52 228.221168 
L 336.027273 223.438145 
L 336.534545 154.357899 
L 337.041818 194.120234 
L 337.549091 150.676308 
L 338.056364 209.377618 
L 338.563636 206.043171 
L 339.070909 190.974677 
L 339.578182 158.149591 
L 340.085455 202.54687 
L 340.592727 231.441174 
L 341.1 229.837065 
L 341.607273 178.125948 
L 342.114545 228.658691 
L 342.621818 198.747278 
L 343.129091 216.634819 
L 343.636364 178.775022 
L 344.143636 149.449218 
L 344.650909 177.174389 
L 345.158182 170.216087 
L 345.665455 144.458748 
L 346.172727 103.559943 
L 346.68 105.37628 
L 347.187273 195.757898 
L 347.694545 161.68958 
L 348.201818 99.243454 
L 348.709091 106.31039 
L 349.216364 123.908505 
L 349.723636 66.96 
L 350.230909 99.750174 
L 350.738182 171.423987 
L 351.245455 193.116337 
L 351.752727 176.857868 
L 352.26 166.233353 
L 352.767273 143.592349 
L 353.274545 186.332909 
L 353.781818 162.347772 
L 354.289091 177.335888 
L 354.796364 144.751454 
L 355.303636 131.696046 
L 355.810909 113.9614 
L 356.318182 197.508224 
L 356.825455 221.362702 
L 357.332727 222.847235 
L 357.84 208.092983 
L 358.347273 200.988091 
L 358.854545 172.43438 
L 359.361818 189.290616 
L 359.869091 240.788842 
L 360.376364 235.588119 
L 360.883636 155.776697 
L 361.898182 216.209849 
L 362.405455 165.084744 
L 362.912727 229.269368 
L 363.42 219.327164 
L 363.927273 224.269922 
L 364.434545 226.306718 
L 364.941818 208.360162 
L 365.449091 230.968206 
L 365.956364 205.311598 
L 366.463636 268.539497 
L 366.970909 225.399272 
L 367.478182 256.344585 
L 367.985455 199.576166 
L 368.492727 227.5944 
L 369 323.066835 
L 369.507273 298.050858 
L 370.521818 230.449578 
L 371.029091 274.525242 
L 371.536364 272.933515 
L 372.043636 278.962292 
L 372.550909 243.568514 
L 373.058182 269.595795 
L 373.565455 245.211913 
L 374.072727 276.451684 
L 374.58 227.531679 
L 375.087273 244.75334 
L 375.594545 234.721112 
L 376.101818 241.889292 
L 376.609091 239.617992 
L 377.116364 238.728145 
L 377.623636 257.570405 
L 378.130909 251.422187 
L 378.638182 234.479911 
L 379.145455 225.685807 
L 379.652727 201.187317 
L 380.16 215.075577 
L 380.667273 284.689207 
L 381.174545 231.257892 
L 381.681818 268.676099 
L 382.189091 242.218926 
L 382.696364 247.569799 
L 383.203636 254.15295 
L 383.710909 172.387912 
L 384.218182 196.318744 
L 384.725455 242.465298 
L 385.232727 246.205187 
L 385.74 189.192666 
L 386.247273 204.030211 
L 386.754545 241.547404 
L 387.261818 235.509792 
L 388.276364 310.012459 
L 388.783636 284.512716 
L 389.798182 197.641771 
L 390.305455 196.748484 
L 390.812727 206.92975 
L 391.827273 183.152202 
L 392.334545 181.570834 
L 392.841818 176.449987 
L 393.349091 180.069945 
L 393.856364 244.107466 
L 394.363636 218.543795 
L 394.870909 178.163037 
L 395.378182 211.107209 
L 395.885455 235.177194 
L 396.392727 221.496757 
L 396.9 218.684623 
L 397.407273 203.245596 
L 397.914545 199.132113 
L 398.421818 220.17015 
L 398.929091 207.499911 
L 399.436364 207.852965 
L 399.943636 199.147946 
L 400.450909 226.510188 
L 400.958182 161.143244 
L 401.465455 243.713811 
L 401.972727 274.117211 
L 402.48 210.816824 
L 402.987273 214.283324 
L 403.494545 177.210082 
L 404.001818 218.744102 
L 404.509091 219.383544 
L 405.016364 233.27129 
L 405.523636 233.566242 
L 406.030909 210.057621 
L 406.538182 234.326997 
L 407.045455 211.176775 
L 407.552727 214.446585 
L 408.06 242.965096 
L 408.567273 241.963856 
L 409.074545 208.368236 
L 409.581818 205.069198 
L 410.089091 180.853425 
L 410.596364 165.326317 
L 411.103636 187.05854 
L 411.610909 188.516958 
L 412.118182 199.922806 
L 412.625455 205.654066 
L 413.132727 161.729281 
L 413.64 248.598068 
L 414.147273 264.403366 
L 414.654545 269.426801 
L 415.669091 240.472154 
L 416.176364 283.291008 
L 416.683636 293.608464 
L 417.190909 274.313398 
L 417.698182 260.114517 
L 418.205455 302.287094 
L 418.712727 275.015437 
L 419.22 195.902748 
L 419.727273 242.021591 
L 420.234545 212.107466 
L 420.741818 216.88813 
L 421.249091 199.413595 
L 421.756364 221.065454 
L 422.263636 191.820206 
L 422.770909 178.7985 
L 423.278182 260.330128 
L 423.785455 263.103736 
L 424.292727 247.847131 
L 424.8 221.597747 
L 425.307273 208.369471 
L 425.814545 217.9539 
L 426.321818 216.026549 
L 426.829091 155.566753 
L 427.336364 232.309587 
L 427.843636 185.099759 
L 428.350909 266.616237 
L 428.858182 271.801198 
L 429.365455 223.44606 
L 429.872727 157.668315 
L 430.38 127.65635 
L 430.887273 193.950941 
L 431.394545 189.495602 
L 431.901818 209.036554 
L 432.916364 144.145528 
L 433.423636 141.572179 
L 433.930909 152.604192 
L 434.438182 82.155226 
L 434.945455 159.035345 
L 435.452727 158.003339 
L 435.96 176.239693 
L 436.467273 160.691598 
L 436.974545 151.127335 
L 437.481818 189.14635 
L 438.496364 229.133854 
L 439.003636 165.529984 
L 439.510909 181.676721 
L 440.018182 154.924793 
L 440.525455 160.762617 
L 441.032727 188.084469 
L 441.54 193.402111 
L 442.047273 190.560242 
L 442.554545 185.701253 
L 443.061818 205.180829 
L 444.076364 191.130278 
L 444.583636 158.05295 
L 445.090909 163.083405 
L 445.598182 186.127551 
L 446.105455 167.363367 
L 446.612727 169.877748 
L 447.12 183.897682 
L 447.627273 175.544249 
L 448.134545 142.828084 
L 448.641818 130.025795 
L 449.149091 111.795311 
L 449.656364 194.876194 
L 450.163636 154.057682 
L 450.670909 178.739206 
L 451.178182 182.339116 
L 451.685455 232.989666 
L 452.192727 243.8325 
L 452.7 187.385515 
L 453.207273 186.443694 
L 453.714545 215.932845 
L 454.221818 184.466465 
L 454.729091 192.313151 
L 455.236364 164.127949 
L 455.743636 155.537025 
L 456.758182 166.172284 
L 457.265455 157.951833 
L 457.772727 127.205226 
L 458.28 165.454637 
L 458.787273 150.397906 
L 459.294545 168.006285 
L 459.801818 165.899146 
L 460.309091 116.379149 
L 460.816364 143.78362 
L 461.323636 141.26629 
L 461.830909 159.400216 
L 462.845455 128.198321 
L 463.352727 156.867487 
L 463.86 121.506291 
L 464.367273 175.789705 
L 464.874545 192.13754 
L 465.381818 115.35958 
L 465.889091 119.295765 
L 466.396364 156.198575 
L 466.903636 126.657849 
L 467.410909 113.189362 
L 467.918182 82.99854 
L 468.425455 91.198351 
L 469.44 134.041895 
L 469.947273 134.321945 
L 470.454545 132.84624 
L 470.961818 161.751874 
L 471.469091 180.222459 
L 471.976364 190.981676 
L 472.483636 147.555824 
L 472.990909 117.726716 
L 473.498182 173.458109 
L 474.005455 131.867571 
L 474.512727 118.338617 
L 475.02 117.102274 
L 475.527273 177.423079 
L 476.034545 185.936064 
L 476.541818 149.374223 
L 477.049091 173.467703 
L 477.556364 167.430154 
L 478.063636 155.510342 
L 478.570909 156.901239 
L 479.078182 146.003126 
L 480.092727 208.240394 
L 480.6 196.537886 
L 481.107273 224.606284 
L 482.121818 148.772281 
L 482.629091 156.303711 
L 483.136364 149.478783 
L 483.643636 180.147896 
L 484.150909 194.667231 
L 484.658182 247.839377 
L 485.165455 214.896374 
L 485.672727 236.212076 
L 486.18 158.379345 
L 486.687273 134.171141 
L 487.194545 184.987325 
L 487.701818 159.957485 
L 488.209091 156.572717 
L 488.716364 131.467524 
L 489.223636 167.881853 
L 489.730909 222.505621 
L 490.238182 164.496503 
L 490.745455 221.968042 
L 491.252727 203.228152 
L 491.76 222.379959 
L 492.267273 190.284428 
L 492.774545 220.676824 
L 493.281818 207.580021 
L 493.789091 237.814278 
L 494.296364 228.105544 
L 494.803636 244.86225 
L 495.310909 220.338371 
L 495.818182 242.121319 
L 496.325455 255.642049 
L 496.832727 219.191146 
L 497.34 195.989639 
L 497.847273 260.634268 
L 498.354545 277.923012 
L 498.861818 264.652923 
L 499.369091 267.149263 
L 499.876364 280.072162 
L 500.383636 246.538264 
L 500.890909 196.184676 
L 501.398182 237.898919 
L 501.905455 256.586397 
L 502.412727 193.799951 
L 502.92 244.305074 
L 503.427273 164.42917 
L 503.934545 157.086359 
L 504.441818 157.659044 
L 504.949091 182.417887 
L 505.456364 222.007133 
L 505.963636 161.036583 
L 506.470909 141.940458 
L 506.978182 148.74922 
L 507.485455 168.360751 
L 508.5 181.866632 
L 509.007273 156.016882 
L 509.514545 198.64537 
L 510.021818 217.263227 
L 510.529091 216.658456 
L 511.036364 187.175179 
L 511.543636 167.425547 
L 512.050909 185.545202 
L 512.558182 161.539313 
L 513.065455 178.605011 
L 513.572727 183.78843 
L 514.587273 266.150457 
L 515.094545 237.057176 
L 515.601818 242.144366 
L 516.109091 226.294116 
L 516.616364 228.123677 
L 517.123636 204.754618 
L 517.630909 209.346683 
L 518.138182 226.001809 
L 518.645455 224.944865 
L 519.152727 252.562444 
L 519.66 217.333604 
L 520.167273 217.569405 
L 520.674545 225.508675 
L 521.181818 210.760214 
L 521.689091 215.527849 
L 522.703636 254.966503 
L 523.210909 248.793677 
L 523.718182 208.953853 
L 524.225455 277.78521 
L 524.732727 262.969942 
L 525.24 237.384722 
L 525.747273 280.292823 
L 526.254545 251.024187 
L 527.269091 216.371378 
L 527.776364 216.121583 
L 528.283636 204.089028 
L 528.790909 188.667192 
L 529.298182 256.708124 
L 529.805455 289.943459 
L 530.312727 261.426767 
L 530.82 289.654403 
L 531.327273 286.780484 
L 531.834545 252.092476 
L 532.341818 277.77317 
L 532.849091 280.283602 
L 533.356364 249.015556 
L 533.863636 178.920095 
L 534.370909 201.844427 
L 534.878182 242.095645 
L 535.892727 207.875877 
L 536.4 234.655316 
L 536.907273 198.667956 
L 537.414545 226.275933 
L 537.921818 263.916539 
L 538.429091 238.264293 
L 538.936364 189.12623 
L 539.443636 200.714623 
L 539.950909 221.649203 
L 540.458182 225.896177 
L 540.965455 195.062895 
L 541.472727 210.813605 
L 541.98 202.255484 
L 542.487273 210.514122 
L 542.994545 238.928092 
L 543.501818 205.718085 
L 544.009091 202.565408 
L 544.516364 213.014561 
L 545.023636 165.588883 
L 545.530909 142.625771 
L 546.038182 185.921765 
L 546.545455 192.228507 
L 547.052727 213.618331 
L 547.56 216.25286 
L 548.067273 161.159026 
L 548.574545 204.230158 
L 549.081818 186.012273 
L 549.589091 187.854952 
L 550.603636 135.879717 
L 551.110909 123.576867 
L 551.618182 233.161803 
L 552.125455 216.573138 
L 552.632727 205.182394 
L 553.14 161.289366 
L 553.647273 200.050294 
L 554.154545 206.778851 
L 555.169091 199.278879 
L 555.676364 138.765315 
L 556.690909 149.021336 
L 557.198182 184.018913 
L 558.212727 144.612246 
L 558.72 151.855919 
L 559.227273 178.279181 
L 560.749091 131.138854 
L 561.256364 168.763127 
L 561.763636 187.79907 
L 562.270909 198.187674 
L 562.778182 157.382045 
L 563.285455 144.499974 
L 563.792727 180.255703 
L 564.3 189.50285 
L 564.807273 148.603673 
L 565.314545 193.501585 
L 566.329091 149.209655 
L 566.836364 148.490772 
L 567.343636 173.685182 
L 567.850909 152.085401 
L 568.358182 151.85294 
L 568.865455 136.431128 
L 569.372727 148.437625 
L 570.387273 202.771817 
L 570.894545 162.807047 
L 571.401818 150.551209 
L 571.909091 121.077549 
L 572.416364 127.31652 
L 572.923636 124.294627 
L 573.430909 99.504791 
L 573.938182 153.340888 
L 574.445455 157.905249 
L 574.952727 171.503135 
L 575.46 129.310251 
L 575.967273 142.29636 
L 576.474545 143.103369 
L 576.981818 143.580653 
L 577.489091 120.770199 
L 577.996364 92.417393 
L 578.503636 159.393423 
L 579.010909 113.752083 
L 579.518182 79.897881 
L 580.025455 153.173428 
L 580.532727 139.418239 
L 581.04 158.859298 
L 581.547273 185.541045 
L 582.054545 127.470025 
L 582.561818 167.267483 
L 583.069091 126.744762 
L 583.576364 167.192248 
L 584.083636 144.255532 
L 584.590909 164.325329 
L 585.098182 124.626431 
L 585.605455 203.782601 
L 586.112727 215.448292 
L 586.62 195.938086 
L 587.127273 199.283313 
L 587.634545 218.99603 
L 588.141818 153.197842 
L 588.649091 208.468064 
L 589.156364 205.956771 
L 589.663636 274.810511 
L 590.170909 207.608608 
L 590.678182 209.624478 
L 591.185455 212.110896 
L 591.692727 257.695131 
L 592.2 192.10039 
L 592.707273 180.750132 
L 593.214545 131.598161 
L 593.721818 143.754469 
L 594.229091 152.020453 
L 595.243636 171.875953 
L 595.750909 134.870093 
L 596.258182 212.603542 
L 596.765455 169.026204 
L 597.272727 186.048875 
L 597.78 170.617294 
L 598.287273 125.878175 
L 598.794545 144.4635 
L 599.301818 198.163828 
L 599.809091 149.713853 
L 600.316364 128.810466 
L 600.823636 98.917501 
L 601.838182 159.012456 
L 602.345455 183.859514 
L 602.852727 181.857496 
L 603.36 260.432833 
L 603.867273 239.980484 
L 604.374545 209.70569 
L 604.881818 198.478335 
L 605.389091 190.400181 
L 605.896364 135.805642 
L 606.403636 186.725166 
L 607.418182 200.556246 
L 607.925455 186.631904 
L 608.432727 162.346393 
L 608.94 221.437852 
L 609.447273 231.820548 
L 609.954545 204.733355 
L 610.461818 203.151813 
L 610.969091 193.483217 
L 611.476364 200.871902 
L 611.983636 228.423456 
L 612.490909 204.162404 
L 612.998182 230.193676 
L 613.505455 243.31186 
L 614.012727 230.301985 
L 614.52 194.444558 
L 615.027273 177.173783 
L 615.534545 154.972559 
L 616.041818 193.04588 
L 616.549091 185.843338 
L 617.056364 180.290586 
L 617.563636 161.625211 
L 618.070909 206.073211 
L 618.578182 228.067934 
L 619.592727 170.904805 
L 620.1 219.126545 
L 620.607273 172.328011 
L 621.114545 203.029275 
L 621.621818 199.910157 
L 622.129091 231.036974 
L 622.636364 187.316467 
L 622.636364 187.316467 
" clip-path="url(#p8d5d39f590)" style="fill: none; stroke: #1f77b4; stroke-width: 0.5; stroke-linecap: square"/>
   </g>
   <g id="line2d_14">
    <path d="M 115.363636 324.055585 
L 115.870909 321.981032 
L 116.378182 322.642253 
L 116.885455 321.693152 
L 117.392727 321.88166 
L 117.9 323.780291 
L 118.407273 324.236414 
L 118.914545 322.293622 
L 119.421818 320.849304 
L 119.929091 320.669819 
L 120.436364 323.33566 
L 120.943636 322.399516 
L 121.450909 322.120724 
L 121.958182 320.695559 
L 122.465455 321.041256 
L 122.972727 322.154814 
L 123.48 320.479325 
L 123.987273 320.472448 
L 124.494545 321.039182 
L 125.001818 319.734673 
L 125.509091 321.051352 
L 126.016364 318.529924 
L 126.523636 317.946256 
L 127.538182 313.806163 
L 128.045455 314.111772 
L 128.552727 312.161982 
L 129.06 311.966807 
L 129.567273 311.0513 
L 130.581818 307.669522 
L 131.596364 309.46239 
L 132.103636 311.174763 
L 132.610909 310.83505 
L 133.118182 312.869903 
L 133.625455 313.660091 
L 134.132727 310.905769 
L 134.64 311.245977 
L 135.147273 311.379939 
L 135.654545 312.341264 
L 136.161818 312.997946 
L 136.669091 312.586637 
L 137.176364 313.260523 
L 137.683636 313.288138 
L 138.190909 312.988646 
L 138.698182 312.244344 
L 139.205455 312.152504 
L 139.712727 314.121038 
L 140.22 313.20429 
L 140.727273 311.533602 
L 141.234545 312.565097 
L 142.249091 313.925686 
L 142.756364 316.852042 
L 143.263636 317.71176 
L 143.770909 316.698665 
L 144.278182 316.947524 
L 145.292727 316.632904 
L 145.8 316.101763 
L 146.307273 317.094139 
L 146.814545 318.345135 
L 147.321818 320.928988 
L 147.829091 319.439891 
L 148.843636 315.111968 
L 149.858182 318.222615 
L 150.365455 318.368168 
L 150.872727 318.06763 
L 151.38 318.828742 
L 151.887273 318.057646 
L 152.394545 316.046265 
L 152.901818 315.326292 
L 153.409091 316.408016 
L 153.916364 314.929158 
L 154.423636 316.136643 
L 154.930909 316.552323 
L 155.438182 313.725793 
L 155.945455 314.882957 
L 156.452727 316.677672 
L 156.96 317.248632 
L 157.467273 319.763415 
L 157.974545 320.281264 
L 158.481818 319.842206 
L 158.989091 319.921786 
L 159.496364 318.951573 
L 160.003636 320.167888 
L 160.510909 322.110692 
L 161.018182 321.816041 
L 161.525455 322.923863 
L 162.032727 320.831608 
L 162.54 322.752771 
L 163.554545 322.918143 
L 164.061818 321.814118 
L 164.569091 322.317905 
L 165.076364 321.328344 
L 165.583636 320.620604 
L 166.090909 319.444432 
L 166.598182 318.592049 
L 167.105455 320.673434 
L 167.612727 319.423826 
L 168.12 318.951401 
L 168.627273 319.473726 
L 169.134545 320.850952 
L 169.641818 320.856621 
L 170.149091 321.143119 
L 170.656364 320.101236 
L 171.163636 316.309587 
L 172.178182 314.11128 
L 172.685455 313.328932 
L 173.192727 311.978161 
L 173.7 310.289227 
L 174.207273 311.477837 
L 174.714545 313.296318 
L 175.221818 313.956302 
L 175.729091 315.501354 
L 176.236364 314.487623 
L 176.743636 313.777996 
L 177.250909 313.519462 
L 177.758182 311.927082 
L 178.265455 312.907182 
L 178.772727 312.791822 
L 179.28 314.171911 
L 179.787273 312.238366 
L 180.294545 311.947191 
L 180.801818 309.770951 
L 181.309091 309.810064 
L 181.816364 307.923691 
L 182.323636 310.42069 
L 182.830909 309.537861 
L 183.338182 307.718373 
L 183.845455 306.451855 
L 184.352727 305.568002 
L 184.86 305.485113 
L 185.367273 306.177935 
L 185.874545 307.134993 
L 186.381818 306.776542 
L 186.889091 306.019979 
L 187.396364 307.860716 
L 187.903636 310.919466 
L 188.410909 310.667013 
L 188.918182 310.548724 
L 189.425455 311.120899 
L 189.932727 310.383084 
L 190.44 308.099515 
L 190.947273 309.271661 
L 191.454545 310.020157 
L 191.961818 310.040857 
L 192.469091 311.938206 
L 193.483636 312.724713 
L 193.990909 314.191058 
L 194.498182 314.056073 
L 195.005455 312.183722 
L 195.512727 312.371676 
L 196.02 312.924222 
L 196.527273 313.137323 
L 197.541818 312.327145 
L 198.049091 314.271499 
L 198.556364 313.979569 
L 199.063636 309.796459 
L 199.570909 312.98479 
L 200.078182 315.163478 
L 200.585455 312.854489 
L 201.092727 312.383156 
L 201.6 311.351795 
L 202.107273 309.829533 
L 202.614545 310.559108 
L 203.121818 310.893549 
L 203.629091 310.398763 
L 204.643636 308.393209 
L 205.150909 311.849622 
L 205.658182 309.628707 
L 206.165455 310.489285 
L 206.672727 310.291492 
L 207.18 309.226694 
L 207.687273 309.790714 
L 208.194545 310.858214 
L 208.701818 311.012761 
L 209.209091 310.250552 
L 209.716364 310.340026 
L 210.223636 311.541741 
L 211.238182 310.008747 
L 211.745455 310.903075 
L 212.252727 311.189316 
L 212.76 312.874523 
L 213.774545 313.57851 
L 214.281818 314.412805 
L 214.789091 314.241907 
L 215.296364 315.012445 
L 215.803636 314.817857 
L 216.310909 313.757758 
L 216.818182 313.045708 
L 217.325455 313.737475 
L 217.832727 313.757227 
L 218.34 313.99843 
L 218.847273 312.183201 
L 219.861818 312.555918 
L 220.876364 313.757157 
L 221.383636 314.82176 
L 221.890909 313.214398 
L 222.398182 314.601502 
L 222.905455 314.536698 
L 223.412727 312.436516 
L 223.92 311.853913 
L 224.934545 311.111654 
L 225.441818 309.80779 
L 225.949091 313.909244 
L 226.456364 312.523976 
L 227.470909 312.138591 
L 227.978182 312.918324 
L 228.485455 310.704618 
L 228.992727 312.994194 
L 229.5 312.201477 
L 230.007273 312.864443 
L 230.514545 312.6191 
L 231.021818 313.882942 
L 231.529091 313.950937 
L 232.036364 313.5766 
L 232.543636 313.685864 
L 233.050909 315.744669 
L 233.558182 316.198016 
L 234.065455 314.032974 
L 234.572727 315.751049 
L 235.08 318.159946 
L 235.587273 315.898775 
L 236.094545 316.324244 
L 236.601818 314.538672 
L 237.109091 314.588393 
L 237.616364 314.159837 
L 238.123636 313.328221 
L 238.630909 313.608167 
L 239.138182 311.328987 
L 239.645455 311.648577 
L 240.152727 311.826035 
L 240.66 310.51525 
L 241.674545 305.56638 
L 242.181818 303.310434 
L 242.689091 302.781702 
L 243.703636 302.199974 
L 244.210909 303.114137 
L 244.718182 302.715308 
L 245.225455 301.29463 
L 246.24 296.70343 
L 246.747273 297.122915 
L 247.254545 296.880705 
L 248.269091 293.852614 
L 248.776364 293.310524 
L 249.283636 293.873747 
L 249.790909 294.691878 
L 250.298182 291.567849 
L 250.805455 290.749948 
L 251.312727 289.309843 
L 251.82 290.029587 
L 252.327273 291.324132 
L 252.834545 287.553237 
L 253.341818 289.8878 
L 253.849091 288.472249 
L 254.356364 286.391174 
L 254.863636 286.994694 
L 255.370909 285.272601 
L 255.878182 282.466841 
L 256.385455 284.453093 
L 256.892727 284.679294 
L 257.4 284.358634 
L 257.907273 282.369023 
L 258.414545 281.287964 
L 258.921818 281.651657 
L 259.429091 283.182165 
L 259.936364 282.142602 
L 260.443636 281.95536 
L 260.950909 281.62039 
L 261.458182 281.118571 
L 261.965455 283.364101 
L 262.472727 282.37154 
L 262.98 284.696533 
L 263.487273 283.692304 
L 263.994545 283.320884 
L 264.501818 284.130388 
L 265.009091 283.765743 
L 265.516364 283.670128 
L 266.023636 285.706043 
L 266.530909 284.693884 
L 267.038182 284.646502 
L 267.545455 282.636811 
L 268.052727 282.751598 
L 268.56 282.697406 
L 269.574545 282.110051 
L 270.081818 282.885521 
L 270.589091 282.534747 
L 271.096364 281.397709 
L 271.603636 281.812303 
L 272.110909 281.422307 
L 272.618182 280.074355 
L 273.125455 280.950089 
L 273.632727 280.283057 
L 274.14 282.849505 
L 274.647273 279.526666 
L 275.154545 277.281756 
L 275.661818 277.079782 
L 276.169091 274.692621 
L 276.676364 274.542314 
L 277.183636 273.53989 
L 277.690909 273.214457 
L 278.198182 272.467116 
L 278.705455 272.265879 
L 279.212727 271.314726 
L 279.72 269.261727 
L 280.227273 265.965104 
L 280.734545 265.950935 
L 281.749091 261.913695 
L 282.256364 261.889628 
L 282.763636 262.178835 
L 283.270909 262.250879 
L 284.285455 258.943737 
L 284.792727 258.771673 
L 285.3 257.414037 
L 285.807273 257.105637 
L 286.314545 257.073797 
L 286.821818 257.644307 
L 287.329091 258.747917 
L 287.836364 258.591769 
L 288.343636 258.248735 
L 289.358182 255.743346 
L 289.865455 255.373044 
L 290.372727 257.908923 
L 290.88 256.739228 
L 291.387273 257.243974 
L 291.894545 257.400494 
L 292.909091 260.27125 
L 293.416364 257.418454 
L 293.923636 257.286879 
L 294.430909 257.027311 
L 294.938182 258.073409 
L 295.445455 258.699753 
L 295.952727 257.358429 
L 296.46 258.051497 
L 296.967273 254.386618 
L 297.981818 251.148149 
L 298.489091 254.248914 
L 298.996364 252.130361 
L 299.503636 251.778334 
L 300.518182 252.103643 
L 301.025455 249.399957 
L 301.532727 248.028759 
L 302.04 250.904643 
L 302.547273 250.181601 
L 303.054545 248.110226 
L 303.561818 246.832411 
L 304.069091 249.315778 
L 304.576364 250.16245 
L 305.083636 251.633124 
L 305.590909 252.226571 
L 306.098182 250.172999 
L 306.605455 250.499855 
L 307.112727 249.712721 
L 308.127273 253.348399 
L 308.634545 252.05245 
L 309.141818 251.865151 
L 309.649091 254.356377 
L 310.156364 254.500181 
L 311.170909 252.176869 
L 311.678182 252.399526 
L 312.185455 250.278336 
L 312.692727 251.112312 
L 313.2 248.552559 
L 313.707273 247.302221 
L 314.214545 247.231196 
L 314.721818 249.673155 
L 315.229091 249.679483 
L 315.736364 248.930816 
L 316.243636 247.574778 
L 316.750909 249.82867 
L 317.258182 247.629683 
L 317.765455 247.54683 
L 318.272727 248.874992 
L 318.78 248.985992 
L 319.287273 248.222546 
L 319.794545 246.890272 
L 320.301818 246.948127 
L 320.809091 246.510236 
L 321.316364 245.03979 
L 321.823636 245.296315 
L 322.838182 241.579989 
L 323.345455 240.305879 
L 323.852727 238.238003 
L 324.36 239.501472 
L 324.867273 239.788188 
L 325.374545 241.733048 
L 325.881818 241.014227 
L 326.389091 242.080176 
L 326.896364 237.909163 
L 327.403636 239.343092 
L 327.910909 239.312918 
L 328.418182 239.507004 
L 328.925455 236.734147 
L 329.432727 236.883343 
L 329.94 238.472004 
L 330.447273 238.327809 
L 330.954545 236.550239 
L 331.461818 237.219149 
L 331.969091 235.145556 
L 332.476364 234.967212 
L 332.983636 234.156497 
L 333.490909 234.443546 
L 333.998182 236.597316 
L 334.505455 235.487911 
L 335.012727 237.006637 
L 335.52 239.132742 
L 336.027273 240.132034 
L 336.534545 236.868726 
L 337.041818 237.480832 
L 337.549091 235.23996 
L 338.056364 237.130726 
L 338.563636 237.842782 
L 339.070909 237.412547 
L 339.578182 235.407896 
L 340.085455 236.685994 
L 340.592727 238.871433 
L 341.1 240.031984 
L 341.607273 237.807461 
L 342.114545 239.568113 
L 342.621818 238.767667 
L 343.129091 239.44662 
L 343.636364 237.64349 
L 344.143636 235.147076 
L 344.650909 235.160088 
L 345.158182 234.513185 
L 345.665455 232.610081 
L 346.172727 229.286401 
L 346.68 227.375229 
L 347.187273 230.462808 
L 347.694545 229.97567 
L 348.201818 226.329091 
L 348.709091 224.708949 
L 349.216364 224.32039 
L 349.723636 220.764067 
L 350.230909 220.257705 
L 351.245455 225.627771 
L 351.752727 226.097172 
L 352.26 225.874935 
L 352.767273 224.563614 
L 353.274545 226.108086 
L 353.781818 225.514675 
L 354.289091 226.041379 
L 355.810909 221.014686 
L 356.825455 226.968209 
L 357.332727 228.773154 
L 357.84 229.130663 
L 358.347273 229.15112 
L 358.854545 227.682324 
L 359.361818 227.907794 
L 359.869091 230.855178 
L 360.376364 232.281269 
L 360.883636 228.536457 
L 361.390909 228.51029 
L 361.898182 230.025586 
L 362.405455 227.849212 
L 362.912727 230.294441 
L 364.434545 232.556039 
L 364.941818 232.018662 
L 365.449091 233.154055 
L 365.956364 232.319841 
L 366.463636 235.603111 
L 366.970909 234.907072 
L 367.478182 236.647111 
L 367.985455 234.286154 
L 368.492727 234.882538 
L 369 240.779428 
L 369.507273 242.980985 
L 370.014545 242.434474 
L 370.521818 240.57253 
L 371.029091 242.403005 
L 372.043636 244.58349 
L 372.550909 243.233457 
L 373.058182 244.316933 
L 373.565455 243.492615 
L 374.072727 245.073745 
L 374.58 242.978755 
L 375.087273 243.087556 
L 375.594545 242.50731 
L 376.101818 242.625623 
L 377.116364 242.435994 
L 377.623636 243.500468 
L 378.130909 243.735951 
L 379.145455 242.074662 
L 379.652727 240.170548 
L 380.16 239.86881 
L 380.667273 243.493153 
L 381.174545 242.193484 
L 381.681818 243.94585 
L 382.189091 243.347831 
L 382.696364 243.508792 
L 383.203636 244.035283 
L 383.710909 239.44197 
L 384.218182 238.55233 
L 384.725455 240.30992 
L 385.232727 241.330547 
L 385.74 238.49401 
L 386.247273 237.935635 
L 386.754545 239.537936 
L 387.261818 239.951876 
L 387.769091 242.539143 
L 388.276364 246.301746 
L 388.783636 247.069372 
L 389.290909 245.162921 
L 389.798182 241.883844 
L 390.305455 240.16553 
L 390.812727 239.574279 
L 391.32 238.374473 
L 391.827273 236.845031 
L 392.841818 234.57648 
L 393.349091 233.896745 
L 393.856364 236.778229 
L 394.363636 236.740306 
L 394.870909 234.470115 
L 395.378182 235.089166 
L 395.885455 236.620425 
L 396.9 236.510445 
L 397.914545 234.821657 
L 398.421818 235.502134 
L 398.929091 235.032333 
L 399.436364 234.776663 
L 399.943636 234.071708 
L 400.450909 235.15971 
L 400.958182 231.841968 
L 401.972727 237.887338 
L 402.48 235.876482 
L 402.987273 235.341597 
L 403.494545 232.894458 
L 404.001818 233.84296 
L 404.509091 234.205983 
L 405.016364 235.167933 
L 405.523636 235.713537 
L 406.030909 234.681134 
L 406.538182 235.580879 
L 407.045455 234.668495 
L 407.552727 234.413654 
L 408.06 235.858548 
L 408.567273 236.57695 
L 409.074545 235.046779 
L 409.581818 234.146783 
L 410.596364 230.203973 
L 411.103636 230.085469 
L 411.610909 229.80444 
L 412.625455 230.429122 
L 413.132727 228.007433 
L 414.147273 234.210021 
L 414.654545 236.263356 
L 415.161818 236.787934 
L 415.669091 236.471261 
L 416.683636 241.375467 
L 417.190909 241.731726 
L 417.698182 241.390503 
L 418.205455 244.033406 
L 418.712727 243.966521 
L 419.22 239.30797 
L 419.727273 239.779155 
L 420.234545 238.048681 
L 420.741818 237.368186 
L 421.249091 235.830329 
L 421.756364 236.088823 
L 422.770909 232.586012 
L 423.278182 235.911277 
L 423.785455 237.860228 
L 424.292727 238.116358 
L 425.307273 235.527064 
L 425.814545 235.313098 
L 426.321818 234.957651 
L 426.829091 231.189916 
L 427.336364 233.29297 
L 427.843636 231.406389 
L 428.350909 234.937469 
L 428.858182 237.258829 
L 429.365455 235.696067 
L 430.38 227.495788 
L 430.887273 228.588461 
L 431.394545 228.480999 
L 431.901818 229.322869 
L 432.409091 227.786805 
L 432.916364 225.113553 
L 433.423636 223.382972 
L 433.930909 222.683291 
L 434.438182 218.139708 
L 434.945455 219.403617 
L 435.452727 219.515974 
L 435.96 220.321294 
L 436.467273 219.706623 
L 436.974545 218.751511 
L 437.481818 220.13388 
L 438.496364 223.982573 
L 439.003636 221.442385 
L 439.510909 221.215762 
L 440.018182 219.46015 
L 440.525455 218.75164 
L 441.032727 219.645312 
L 441.54 220.259911 
L 442.047273 220.377913 
L 442.554545 220.149802 
L 443.061818 221.098877 
L 443.569091 221.136909 
L 444.076364 220.821359 
L 444.583636 218.767034 
L 445.090909 217.918369 
L 445.598182 218.517954 
L 446.105455 217.601372 
L 446.612727 217.171944 
L 447.12 217.569099 
L 447.627273 217.180112 
L 449.149091 210.92496 
L 449.656364 213.753637 
L 450.163636 212.710013 
L 450.670909 213.508632 
L 451.178182 214.020588 
L 452.192727 219.621104 
L 452.7 217.766659 
L 453.207273 217.0531 
L 453.714545 218.339534 
L 454.221818 217.170295 
L 454.729091 217.07869 
L 455.743636 213.927102 
L 456.250909 213.273839 
L 456.758182 212.990436 
L 457.265455 212.186921 
L 457.772727 209.903641 
L 458.28 210.558293 
L 458.787273 209.780577 
L 459.294545 210.184557 
L 459.801818 210.110263 
L 460.309091 207.20242 
L 460.816364 207.04719 
L 461.323636 206.502798 
L 461.830909 206.980483 
L 462.338182 206.157288 
L 462.845455 204.770667 
L 463.352727 205.395826 
L 463.86 203.542375 
L 464.874545 207.087403 
L 465.381818 203.580348 
L 465.889091 202.113281 
L 466.396364 203.014166 
L 467.410909 200.015204 
L 467.918182 197.340055 
L 468.425455 196.067875 
L 468.932727 196.064895 
L 469.44 196.846381 
L 469.947273 197.039348 
L 470.454545 196.926049 
L 471.469091 200.042415 
L 471.976364 201.639586 
L 472.483636 200.097971 
L 472.990909 197.791405 
L 473.498182 199.492398 
L 474.512727 196.297758 
L 475.02 195.222803 
L 475.527273 197.644634 
L 476.034545 199.318605 
L 476.541818 198.159969 
L 477.049091 199.003421 
L 477.556364 199.078093 
L 478.063636 198.46774 
L 478.570909 198.216439 
L 479.078182 197.40341 
L 479.585455 198.500159 
L 480.092727 200.92222 
L 480.6 201.629347 
L 481.107273 203.853656 
L 481.614545 202.977751 
L 482.121818 200.549135 
L 483.136364 198.787951 
L 484.150909 201.10405 
L 484.658182 204.935767 
L 485.165455 205.219218 
L 485.672727 206.997812 
L 486.687273 200.49964 
L 487.194545 201.599611 
L 487.701818 200.50564 
L 488.209091 199.679548 
L 488.716364 197.686286 
L 489.223636 198.457342 
L 489.730909 201.746913 
L 490.238182 200.04764 
L 490.745455 202.620453 
L 491.252727 202.952349 
L 491.76 204.452692 
L 492.267273 203.463942 
L 492.774545 204.897897 
L 493.281818 204.955594 
L 493.789091 206.936263 
L 494.296364 207.570188 
L 494.803636 209.168613 
L 495.310909 208.724671 
L 495.818182 210.050904 
L 496.325455 211.775062 
L 496.832727 210.639187 
L 497.34 208.916464 
L 498.354545 214.667098 
L 499.369091 216.729116 
L 499.876364 218.464453 
L 500.383636 217.539063 
L 500.890909 214.256122 
L 501.398182 215.123924 
L 501.905455 216.641789 
L 502.412727 213.573413 
L 502.92 215.100666 
L 503.427273 210.900914 
L 503.934545 208.498667 
L 504.441818 206.946589 
L 504.949091 207.134807 
L 505.456364 209.189053 
L 506.470909 204.117466 
L 506.978182 202.991919 
L 507.992727 203.31399 
L 508.5 203.594998 
L 509.007273 202.136944 
L 510.529091 206.420226 
L 511.036364 205.294322 
L 511.543636 203.669908 
L 512.050909 203.784292 
L 512.558182 202.304429 
L 513.572727 202.563286 
L 514.08 205.016957 
L 514.587273 208.822667 
L 515.094545 209.329011 
L 515.601818 210.283537 
L 516.109091 210.063459 
L 516.616364 210.274913 
L 517.123636 209.087255 
L 517.630909 208.827116 
L 518.138182 209.651284 
L 518.645455 210.038053 
L 519.152727 211.997839 
L 519.66 210.975088 
L 520.167273 210.659273 
L 520.674545 210.999398 
L 521.181818 210.30818 
L 521.689091 210.265567 
L 522.196364 211.52375 
L 522.703636 213.326064 
L 523.210909 214.068523 
L 523.718182 212.186034 
L 524.225455 215.447841 
L 524.732727 216.449037 
L 525.24 215.638853 
L 525.747273 218.080379 
L 526.254545 217.699976 
L 526.761818 216.733172 
L 527.269091 215.262097 
L 527.776364 214.4865 
L 528.283636 213.268391 
L 528.790909 211.622268 
L 529.298182 214.51203 
L 529.805455 218.171427 
L 530.312727 218.546796 
L 530.82 220.896238 
L 531.327273 222.306558 
L 531.834545 221.133619 
L 532.849091 223.474927 
L 533.356364 222.228575 
L 533.863636 217.457069 
L 534.370909 216.418174 
L 534.878182 217.855712 
L 535.385455 217.407677 
L 535.892727 216.132396 
L 536.4 216.967793 
L 536.907273 215.115094 
L 537.414545 215.741974 
L 537.921818 218.210233 
L 538.429091 217.979056 
L 538.936364 215.016747 
L 539.443636 214.217778 
L 540.458182 215.208324 
L 540.965455 213.52713 
L 541.472727 213.542669 
L 541.98 212.893318 
L 542.487273 212.936896 
L 542.994545 214.528032 
L 543.501818 213.322521 
L 544.009091 212.580107 
L 544.516364 212.714272 
L 545.530909 207.064061 
L 546.038182 207.662941 
L 546.545455 207.980922 
L 547.052727 209.215405 
L 547.56 209.957855 
L 548.067273 207.071351 
L 548.574545 208.027465 
L 549.081818 207.272215 
L 549.589091 206.918074 
L 550.096364 205.09028 
L 551.110909 200.327764 
L 551.618182 204.665846 
L 552.125455 205.956343 
L 552.632727 206.078084 
L 553.14 203.647608 
L 554.154545 205.350389 
L 554.661818 205.499887 
L 555.169091 205.400604 
L 555.676364 201.790291 
L 556.183636 200.189108 
L 556.690909 199.307071 
L 557.198182 200.457071 
L 557.705455 199.65778 
L 558.212727 198.07224 
L 558.72 197.470772 
L 559.227273 198.371798 
L 559.734545 197.716895 
L 560.749091 194.647694 
L 561.256364 195.615964 
L 562.270909 198.241141 
L 563.285455 194.985892 
L 564.3 196.92469 
L 564.807273 194.981382 
L 565.314545 196.489438 
L 565.821818 195.937675 
L 566.329091 194.334674 
L 566.836364 193.376214 
L 567.343636 194.080388 
L 567.850909 193.036198 
L 568.358182 192.393018 
L 568.865455 191.017578 
L 569.372727 190.780439 
L 569.88 191.819011 
L 570.387273 193.937673 
L 571.401818 191.472664 
L 571.909091 189.080865 
L 572.923636 186.952004 
L 573.430909 184.748988 
L 573.938182 186.189378 
L 574.445455 186.916009 
L 574.952727 187.97405 
L 575.46 186.055031 
L 576.981818 185.209014 
L 577.489091 183.637798 
L 577.996364 181.114455 
L 578.503636 183.118596 
L 579.010909 181.307431 
L 579.518182 178.455095 
L 580.025455 180.59075 
L 580.532727 180.670006 
L 581.04 181.737237 
L 581.547273 183.786509 
L 582.054545 181.497598 
L 582.561818 182.658161 
L 583.069091 180.829059 
L 583.576364 182.123204 
L 584.083636 181.366453 
L 584.590909 182.099618 
L 585.098182 180.122489 
L 585.605455 183.462962 
L 586.112727 186.016267 
L 586.62 186.416462 
L 587.127273 187.101986 
L 587.634545 188.841086 
L 588.141818 185.905239 
L 588.649091 187.789415 
L 589.156364 188.654648 
L 589.663636 193.451191 
L 590.170909 192.023685 
L 590.678182 191.910342 
L 591.185455 192.157893 
L 591.692727 195.194132 
L 592.2 192.821662 
L 592.707273 191.283072 
L 593.214545 187.580302 
L 593.721818 186.248444 
L 594.229091 185.644612 
L 594.736364 185.630412 
L 595.243636 185.936938 
L 595.750909 183.80575 
L 596.258182 186.942446 
L 596.765455 185.915353 
L 597.272727 186.486543 
L 597.78 185.842955 
L 598.287273 182.902468 
L 598.794545 182.337126 
L 599.301818 184.777068 
L 600.316364 181.058499 
L 600.823636 178.18825 
L 601.330909 178.222798 
L 601.838182 179.343613 
L 602.345455 181.174551 
L 602.852727 182.012319 
L 603.36 187.200937 
L 603.867273 189.139578 
L 604.881818 188.156522 
L 605.389091 187.553907 
L 605.896364 184.049431 
L 606.403636 185.103072 
L 607.418182 186.678435 
L 607.925455 186.309258 
L 608.432727 184.738141 
L 609.447273 189.364335 
L 609.954545 188.961151 
L 610.461818 188.88587 
L 610.969091 188.35539 
L 611.476364 188.569083 
L 611.983636 190.355236 
L 612.490909 189.889144 
L 613.505455 193.130834 
L 614.012727 193.457456 
L 615.027273 189.811631 
L 615.534545 187.504526 
L 616.041818 188.297603 
L 616.549091 188.068679 
L 617.056364 187.54606 
L 617.563636 186.091482 
L 618.070909 187.7735 
L 618.578182 189.912851 
L 619.085455 189.229946 
L 619.592727 187.459294 
L 620.1 189.343334 
L 620.607273 187.423655 
L 621.114545 188.310352 
L 621.621818 188.51835 
L 622.129091 190.52821 
L 622.636364 188.952283 
L 622.636364 188.952283 
" clip-path="url(#p8d5d39f590)" style="fill: none; stroke: #ff7f0e; stroke-width: 0.5; stroke-linecap: square"/>
   </g>
   <g id="patch_3">
    <path d="M 90 384.48 
L 90 51.84 
" style="fill: none; stroke: #000000; stroke-width: 0.8; stroke-linejoin: miter; stroke-linecap: square"/>
   </g>
   <g id="patch_4">
    <path d="M 648 384.48 
L 648 51.84 
" style="fill: none; stroke: #000000; stroke-width: 0.8; stroke-linejoin: miter; stroke-linecap: square"/>
   </g>
   <g id="patch_5">
    <path d="M 90 384.48 
L 648 384.48 
" style="fill: none; stroke: #000000; stroke-width: 0.8; stroke-linejoin: miter; stroke-linecap: square"/>
   </g>
   <g id="patch_6">
    <path d="M 90 51.84 
L 648 51.84 
" style="fill: none; stroke: #000000; stroke-width: 0.8; stroke-linejoin: miter; stroke-linecap: square"/>
   </g>
   <g id="text_15">
    <!-- Euler-Maruyama paths -->
    <g transform="translate(301.253438 45.84) scale(0.12 -0.12)">
     <defs>
      <path id="DejaVuSans-45" d="M 628 4666 
L 3578 4666 
L 3578 4134 
L 1259 4134 
L 1259 2753 
L 3481 2753 
L 3481 2222 
L 1259 2222 
L 1259 531 
L 3634 531 
L 3634 0 
L 628 0 
L 628 4666 
z
" transform="scale(0.015625)"/>
      <path id="DejaVuSans-75" d="M 544 1381 
L 544 3500 
L 1119 3500 
L 1119 1403 
Q 1119 906 1312 657 
Q 1506 409 1894 409 
Q 2359 409 2629 706 
Q 2900 1003 2900 1516 
L 2900 3500 
L 3475 3500 
L 3475 0 
L 2900 0 
L 2900 538 
Q 2691 219 2414 64 
Q 2138 -91 1772 -91 
Q 1169 -91 856 284 
Q 544 659 544 1381 
z
M 1991 3584 
L 1991 3584 
z
" transform="scale(0.015625)"/>
      <path id="DejaVuSans-6c" d="M 603 4863 
L 1178 4863 
L 1178 0 
L 603 0 
L 603 4863 
z
" transform="scale(0.015625)"/>
      <path id="DejaVuSans-65" d="M 3597 1894 
L 3597 1613 
L 953 1613 
Q 991 1019 1311 708 
Q 1631 397 2203 397 
Q 2534 397 2845 478 
Q 3156 559 3463 722 
L 3463 178 
Q 3153 47 2828 -22 
Q 2503 -91 2169 -91 
Q 1331 -91 842 396 
Q 353 884 353 1716 
Q 353 2575 817 3079 
Q 1281 3584 2069 3584 
Q 2775 3584 3186 3129 
Q 3597 2675 3597 1894 
z
M 3022 2063 
Q 3016 2534 2758 2815 
Q 2500 3097 2075 3097 
Q 1594 3097 1305 2825 
Q 1016 2553 972 2059 
L 3022 2063 
z
" transform="scale(0.015625)"/>
      <path id="DejaVuSans-72" d="M 2631 2963 
Q 2534 3019 2420 3045 
Q 2306 3072 2169 3072 
Q 1681 3072 1420 2755 
Q 1159 2438 1159 1844 
L 1159 0 
L 581 0 
L 581 3500 
L 1159 3500 
L 1159 2956 
Q 1341 3275 1631 3429 
Q 1922 3584 2338 3584 
Q 2397 3584 2469 3576 
Q 2541 3569 2628 3553 
L 2631 2963 
z
" transform="scale(0.015625)"/>
      <path id="DejaVuSans-2d" d="M 313 2009 
L 1997 2009 
L 1997 1497 
L 313 1497 
L 313 2009 
z
" transform="scale(0.015625)"/>
      <path id="DejaVuSans-4d" d="M 628 4666 
L 1569 4666 
L 2759 1491 
L 3956 4666 
L 4897 4666 
L 4897 0 
L 4281 0 
L 4281 4097 
L 3078 897 
L 2444 897 
L 1241 4097 
L 1241 0 
L 628 0 
L 628 4666 
z
" transform="scale(0.015625)"/>
      <path id="DejaVuSans-61" d="M 2194 1759 
Q 1497 1759 1228 1600 
Q 959 1441 959 1056 
Q 959 750 1161 570 
Q 1363 391 1709 391 
Q 2188 391 2477 730 
Q 2766 1069 2766 1631 
L 2766 1759 
L 2194 1759 
z
M 3341 1997 
L 3341 0 
L 2766 0 
L 2766 531 
Q 2569 213 2275 61 
Q 1981 -91 1556 -91 
Q 1019 -91 701 211 
Q 384 513 384 1019 
Q 384 1609 779 1909 
Q 1175 2209 1959 2209 
L 2766 2209 
L 2766 2266 
Q 2766 2663 2505 2880 
Q 2244 3097 1772 3097 
Q 1472 3097 1187 3025 
Q 903 2953 641 2809 
L 641 3341 
Q 956 3463 1253 3523 
Q 1550 3584 1831 3584 
Q 2591 3584 2966 3190 
Q 3341 2797 3341 1997 
z
" transform="scale(0.015625)"/>
      <path id="DejaVuSans-79" d="M 2059 -325 
Q 1816 -950 1584 -1140 
Q 1353 -1331 966 -1331 
L 506 -1331 
L 506 -850 
L 844 -850 
Q 1081 -850 1212 -737 
Q 1344 -625 1503 -206 
L 1606 56 
L 191 3500 
L 800 3500 
L 1894 763 
L 2988 3500 
L 3597 3500 
L 2059 -325 
z
" transform="scale(0.015625)"/>
      <path id="DejaVuSans-6d" d="M 3328 2828 
Q 3544 3216 3844 3400 
Q 4144 3584 4550 3584 
Q 5097 3584 5394 3201 
Q 5691 2819 5691 2113 
L 5691 0 
L 5113 0 
L 5113 2094 
Q 5113 2597 4934 2840 
Q 4756 3084 4391 3084 
Q 3944 3084 3684 2787 
Q 3425 2491 3425 1978 
L 3425 0 
L 2847 0 
L 2847 2094 
Q 2847 2600 2669 2842 
Q 2491 3084 2119 3084 
Q 1678 3084 1418 2786 
Q 1159 2488 1159 1978 
L 1159 0 
L 581 0 
L 581 3500 
L 1159 3500 
L 1159 2956 
Q 1356 3278 1631 3431 
Q 1906 3584 2284 3584 
Q 2666 3584 2933 3390 
Q 3200 3197 3328 2828 
z
" transform="scale(0.015625)"/>
      <path id="DejaVuSans-20" transform="scale(0.015625)"/>
      <path id="DejaVuSans-70" d="M 1159 525 
L 1159 -1331 
L 581 -1331 
L 581 3500 
L 1159 3500 
L 1159 2969 
Q 1341 3281 1617 3432 
Q 1894 3584 2278 3584 
Q 2916 3584 3314 3078 
Q 3713 2572 3713 1747 
Q 3713 922 3314 415 
Q 2916 -91 2278 -91 
Q 1894 -91 1617 61 
Q 1341 213 1159 525 
z
M 3116 1747 
Q 3116 2381 2855 2742 
Q 2594 3103 2138 3103 
Q 1681 3103 1420 2742 
Q 1159 2381 1159 1747 
Q 1159 1113 1420 752 
Q 1681 391 2138 391 
Q 2594 391 2855 752 
Q 3116 1113 3116 1747 
z
" transform="scale(0.015625)"/>
      <path id="DejaVuSans-74" d="M 1172 4494 
L 1172 3500 
L 2356 3500 
L 2356 3053 
L 1172 3053 
L 1172 1153 
Q 1172 725 1289 603 
Q 1406 481 1766 481 
L 2356 481 
L 2356 0 
L 1766 0 
Q 1100 0 847 248 
Q 594 497 594 1153 
L 594 3053 
L 172 3053 
L 172 3500 
L 594 3500 
L 594 4494 
L 1172 4494 
z
" transform="scale(0.015625)"/>
      <path id="DejaVuSans-68" d="M 3513 2113 
L 3513 0 
L 2938 0 
L 2938 2094 
Q 2938 2591 2744 2837 
Q 2550 3084 2163 3084 
Q 1697 3084 1428 2787 
Q 1159 2491 1159 1978 
L 1159 0 
L 581 0 
L 581 4863 
L 1159 4863 
L 1159 2956 
Q 1366 3272 1645 3428 
Q 1925 3584 2291 3584 
Q 2894 3584 3203 3211 
Q 3513 2838 3513 2113 
z
" transform="scale(0.015625)"/>
      <path id="DejaVuSans-73" d="M 2834 3397 
L 2834 2853 
Q 2591 2978 2328 3040 
Q 2066 3103 1784 3103 
Q 1356 3103 1142 2972 
Q 928 2841 928 2578 
Q 928 2378 1081 2264 
Q 1234 2150 1697 2047 
L 1894 2003 
Q 2506 1872 2764 1633 
Q 3022 1394 3022 966 
Q 3022 478 2636 193 
Q 2250 -91 1575 -91 
Q 1294 -91 989 -36 
Q 684 19 347 128 
L 347 722 
Q 666 556 975 473 
Q 1284 391 1588 391 
Q 1994 391 2212 530 
Q 2431 669 2431 922 
Q 2431 1156 2273 1281 
Q 2116 1406 1581 1522 
L 1381 1569 
Q 847 1681 609 1914 
Q 372 2147 372 2553 
Q 372 3047 722 3315 
Q 1072 3584 1716 3584 
Q 2034 3584 2315 3537 
Q 2597 3491 2834 3397 
z
" transform="scale(0.015625)"/>
     </defs>
     <use xlink:href="#DejaVuSans-45"/>
     <use xlink:href="#DejaVuSans-75" x="63.183594"/>
     <use xlink:href="#DejaVuSans-6c" x="126.5625"/>
     <use xlink:href="#DejaVuSans-65" x="154.345703"/>
     <use xlink:href="#DejaVuSans-72" x="215.869141"/>
     <use xlink:href="#DejaVuSans-2d" x="250.607422"/>
     <use xlink:href="#DejaVuSans-4d" x="286.691406"/>
     <use xlink:href="#DejaVuSans-61" x="372.970703"/>
     <use xlink:href="#DejaVuSans-72" x="434.25"/>
     <use xlink:href="#DejaVuSans-75" x="475.363281"/>
     <use xlink:href="#DejaVuSans-79" x="538.742188"/>
     <use xlink:href="#DejaVuSans-61" x="597.921875"/>
     <use xlink:href="#DejaVuSans-6d" x="659.201172"/>
     <use xlink:href="#DejaVuSans-61" x="756.613281"/>
     <use xlink:href="#DejaVuSans-20" x="817.892578"/>
     <use xlink:href="#DejaVuSans-70" x="849.679688"/>
     <use xlink:href="#DejaVuSans-61" x="913.15625"/>
     <use xlink:href="#DejaVuSans-74" x="974.435547"/>
     <use xlink:href="#DejaVuSans-68" x="1013.644531"/>
     <use xlink:href="#DejaVuSans-73" x="1077.023438"/>
    </g>
   </g>
   <g id="legend_1">
    <g id="patch_7">
     <path d="M 97 89.19625 
L 170.2 89.19625 
Q 172.2 89.19625 172.2 87.19625 
L 172.2 58.84 
Q 172.2 56.84 170.2 56.84 
L 97 56.84 
Q 95 56.84 95 58.84 
L 95 87.19625 
Q 95 89.19625 97 89.19625 
z
" style="fill: #ffffff; opacity: 0.8; stroke: #cccccc; stroke-linejoin: miter"/>
    </g>
    <g id="line2d_15">
     <path d="M 99 64.938437 
L 109 64.938437 
L 119 64.938437 
" style="fill: none; stroke: #1f77b4; stroke-width: 0.5; stroke-linecap: square"/>
    </g>
    <g id="text_16">
     <!-- $\alpha=0.38$ -->
     <g transform="translate(127 68.438437) scale(0.1 -0.1)">
      <defs>
       <path id="DejaVuSans-Oblique-3b1" d="M 2619 1628 
L 2622 2350 
Q 2625 3088 2069 3091 
Q 1653 3094 1394 2747 
Q 1069 2319 959 1747 
Q 825 1059 994 731 
Q 1169 397 1547 397 
Q 1966 397 2319 1063 
L 2619 1628 
z
M 2166 3578 
Q 3141 3594 3128 2584 
Q 3128 2584 3616 3500 
L 4128 3500 
L 3119 1603 
L 3109 919 
Q 3109 766 3194 638 
Q 3291 488 3391 488 
L 3669 488 
L 3575 0 
L 3228 0 
Q 2934 0 2722 263 
Q 2622 394 2619 669 
Q 2416 334 2066 50 
Q 1900 -81 1453 -78 
Q 722 -72 456 397 
Q 184 884 353 1747 
Q 534 2675 1009 3097 
Q 1544 3569 2166 3578 
z
" transform="scale(0.015625)"/>
       <path id="DejaVuSans-3d" d="M 678 2906 
L 4684 2906 
L 4684 2381 
L 678 2381 
L 678 2906 
z
M 678 1631 
L 4684 1631 
L 4684 1100 
L 678 1100 
L 678 1631 
z
" transform="scale(0.015625)"/>
      </defs>
      <use xlink:href="#DejaVuSans-Oblique-3b1" transform="translate(0 0.78125)"/>
      <use xlink:href="#DejaVuSans-3d" transform="translate(85.400391 0.78125)"/>
      <use xlink:href="#DejaVuSans-30" transform="translate(188.671875 0.78125)"/>
      <use xlink:href="#DejaVuSans-2e" transform="translate(252.294922 0.78125)"/>
      <use xlink:href="#DejaVuSans-33" transform="translate(284.082031 0.78125)"/>
      <use xlink:href="#DejaVuSans-38" transform="translate(347.705078 0.78125)"/>
     </g>
    </g>
    <g id="line2d_16">
     <path d="M 99 79.616562 
L 109 79.616562 
L 119 79.616562 
" style="fill: none; stroke: #ff7f0e; stroke-width: 0.5; stroke-linecap: square"/>
    </g>
    <g id="text_17">
     <!-- $\alpha=0.02$ -->
     <g transform="translate(127 83.116562) scale(0.1 -0.1)">
      <use xlink:href="#DejaVuSans-Oblique-3b1" transform="translate(0 0.78125)"/>
      <use xlink:href="#DejaVuSans-3d" transform="translate(85.400391 0.78125)"/>
      <use xlink:href="#DejaVuSans-30" transform="translate(188.671875 0.78125)"/>
      <use xlink:href="#DejaVuSans-2e" transform="translate(252.294922 0.78125)"/>
      <use xlink:href="#DejaVuSans-30" transform="translate(284.082031 0.78125)"/>
      <use xlink:href="#DejaVuSans-32" transform="translate(347.705078 0.78125)"/>
     </g>
    </g>
   </g>
  </g>
 </g>
 <defs>
  <clipPath id="p8d5d39f590">
   <rect x="90" y="51.84" width="558" height="332.64"/>
  </clipPath>
 </defs>
</svg>
