<?xml version="1.0" encoding="utf-8" standalone="no"?>
<!DOCTYPE svg PUBLIC "-//W3C//DTD SVG 1.1//EN"
  "http://www.w3.org/Graphics/SVG/1.1/DTD/svg11.dtd">
<svg xmlns:xlink="http://www.w3.org/1999/xlink" width="720pt" height="432pt" viewBox="0 0 720 432" xmlns="http://www.w3.org/2000/svg" version="1.1">
 <metadata>
  <rdf:RDF xmlns:dc="http://purl.org/dc/elements/1.1/" xmlns:cc="http://creativecommons.org/ns#" xmlns:rdf="http://www.w3.org/1999/02/22-rdf-syntax-ns#">
   <cc:Work>
    <dc:type rdf:resource="http://purl.org/dc/dcmitype/StillImage"/>
    <dc:date>2024-04-19T09:47:28.927378</dc:date>
    <dc:format>image/svg+xml</dc:format>
    <dc:creator>
     <cc:Agent>
      <dc:title>Matplotlib v3.8.0, https://matplotlib.org/</dc:title>
     </cc:Agent>
    </dc:creator>
   </cc:Work>
  </rdf:RDF>
 </metadata>
 <defs>
  <style type="text/css">*{stroke-linejoin: round; stroke-linecap: butt}</style>
 </defs>
 <g id="figure_1">
  <g id="patch_1">
   <path d="M 0 432 
L 720 432 
L 720 0 
L 0 0 
z
" style="fill: #ffffff"/>
  </g>
  <g id="axes_1">
   <g id="patch_2">
    <path d="M 90 384.48 
L 648 384.48 
L 648 51.84 
L 90 51.84 
z
" style="fill: #ffffff"/>
   </g>
   <g id="matplotlib.axis_1">
    <g id="xtick_1">
     <g id="line2d_1">
      <defs>
       <path id="m073a552712" d="M 0 0 
L 0 3.5 
" style="stroke: #000000; stroke-width: 0.8"/>
      </defs>
      <g>
       <use xlink:href="#m073a552712" x="115.363636" y="384.48" style="stroke: #000000; stroke-width: 0.8"/>
      </g>
     </g>
     <g id="text_1">
      <!-- 0.0 -->
      <g transform="translate(107.412074 399.078438) scale(0.1 -0.1)">
       <defs>
        <path id="DejaVuSans-30" d="M 2034 4250 
Q 1547 4250 1301 3770 
Q 1056 3291 1056 2328 
Q 1056 1369 1301 889 
Q 1547 409 2034 409 
Q 2525 409 2770 889 
Q 3016 1369 3016 2328 
Q 3016 3291 2770 3770 
Q 2525 4250 2034 4250 
z
M 2034 4750 
Q 2819 4750 3233 4129 
Q 3647 3509 3647 2328 
Q 3647 1150 3233 529 
Q 2819 -91 2034 -91 
Q 1250 -91 836 529 
Q 422 1150 422 2328 
Q 422 3509 836 4129 
Q 1250 4750 2034 4750 
z
" transform="scale(0.015625)"/>
        <path id="DejaVuSans-2e" d="M 684 794 
L 1344 794 
L 1344 0 
L 684 0 
L 684 794 
z
" transform="scale(0.015625)"/>
       </defs>
       <use xlink:href="#DejaVuSans-30"/>
       <use xlink:href="#DejaVuSans-2e" x="63.623047"/>
       <use xlink:href="#DejaVuSans-30" x="95.410156"/>
      </g>
     </g>
    </g>
    <g id="xtick_2">
     <g id="line2d_2">
      <g>
       <use xlink:href="#m073a552712" x="216.818182" y="384.48" style="stroke: #000000; stroke-width: 0.8"/>
      </g>
     </g>
     <g id="text_2">
      <!-- 0.2 -->
      <g transform="translate(208.866619 399.078438) scale(0.1 -0.1)">
       <defs>
        <path id="DejaVuSans-32" d="M 1228 531 
L 3431 531 
L 3431 0 
L 469 0 
L 469 531 
Q 828 903 1448 1529 
Q 2069 2156 2228 2338 
Q 2531 2678 2651 2914 
Q 2772 3150 2772 3378 
Q 2772 3750 2511 3984 
Q 2250 4219 1831 4219 
Q 1534 4219 1204 4116 
Q 875 4013 500 3803 
L 500 4441 
Q 881 4594 1212 4672 
Q 1544 4750 1819 4750 
Q 2544 4750 2975 4387 
Q 3406 4025 3406 3419 
Q 3406 3131 3298 2873 
Q 3191 2616 2906 2266 
Q 2828 2175 2409 1742 
Q 1991 1309 1228 531 
z
" transform="scale(0.015625)"/>
       </defs>
       <use xlink:href="#DejaVuSans-30"/>
       <use xlink:href="#DejaVuSans-2e" x="63.623047"/>
       <use xlink:href="#DejaVuSans-32" x="95.410156"/>
      </g>
     </g>
    </g>
    <g id="xtick_3">
     <g id="line2d_3">
      <g>
       <use xlink:href="#m073a552712" x="318.272727" y="384.48" style="stroke: #000000; stroke-width: 0.8"/>
      </g>
     </g>
     <g id="text_3">
      <!-- 0.4 -->
      <g transform="translate(310.321165 399.078438) scale(0.1 -0.1)">
       <defs>
        <path id="DejaVuSans-34" d="M 2419 4116 
L 825 1625 
L 2419 1625 
L 2419 4116 
z
M 2253 4666 
L 3047 4666 
L 3047 1625 
L 3713 1625 
L 3713 1100 
L 3047 1100 
L 3047 0 
L 2419 0 
L 2419 1100 
L 313 1100 
L 313 1709 
L 2253 4666 
z
" transform="scale(0.015625)"/>
       </defs>
       <use xlink:href="#DejaVuSans-30"/>
       <use xlink:href="#DejaVuSans-2e" x="63.623047"/>
       <use xlink:href="#DejaVuSans-34" x="95.410156"/>
      </g>
     </g>
    </g>
    <g id="xtick_4">
     <g id="line2d_4">
      <g>
       <use xlink:href="#m073a552712" x="419.727273" y="384.48" style="stroke: #000000; stroke-width: 0.8"/>
      </g>
     </g>
     <g id="text_4">
      <!-- 0.6 -->
      <g transform="translate(411.77571 399.078438) scale(0.1 -0.1)">
       <defs>
        <path id="DejaVuSans-36" d="M 2113 2584 
Q 1688 2584 1439 2293 
Q 1191 2003 1191 1497 
Q 1191 994 1439 701 
Q 1688 409 2113 409 
Q 2538 409 2786 701 
Q 3034 994 3034 1497 
Q 3034 2003 2786 2293 
Q 2538 2584 2113 2584 
z
M 3366 4563 
L 3366 3988 
Q 3128 4100 2886 4159 
Q 2644 4219 2406 4219 
Q 1781 4219 1451 3797 
Q 1122 3375 1075 2522 
Q 1259 2794 1537 2939 
Q 1816 3084 2150 3084 
Q 2853 3084 3261 2657 
Q 3669 2231 3669 1497 
Q 3669 778 3244 343 
Q 2819 -91 2113 -91 
Q 1303 -91 875 529 
Q 447 1150 447 2328 
Q 447 3434 972 4092 
Q 1497 4750 2381 4750 
Q 2619 4750 2861 4703 
Q 3103 4656 3366 4563 
z
" transform="scale(0.015625)"/>
       </defs>
       <use xlink:href="#DejaVuSans-30"/>
       <use xlink:href="#DejaVuSans-2e" x="63.623047"/>
       <use xlink:href="#DejaVuSans-36" x="95.410156"/>
      </g>
     </g>
    </g>
    <g id="xtick_5">
     <g id="line2d_5">
      <g>
       <use xlink:href="#m073a552712" x="521.181818" y="384.48" style="stroke: #000000; stroke-width: 0.8"/>
      </g>
     </g>
     <g id="text_5">
      <!-- 0.8 -->
      <g transform="translate(513.230256 399.078438) scale(0.1 -0.1)">
       <defs>
        <path id="DejaVuSans-38" d="M 2034 2216 
Q 1584 2216 1326 1975 
Q 1069 1734 1069 1313 
Q 1069 891 1326 650 
Q 1584 409 2034 409 
Q 2484 409 2743 651 
Q 3003 894 3003 1313 
Q 3003 1734 2745 1975 
Q 2488 2216 2034 2216 
z
M 1403 2484 
Q 997 2584 770 2862 
Q 544 3141 544 3541 
Q 544 4100 942 4425 
Q 1341 4750 2034 4750 
Q 2731 4750 3128 4425 
Q 3525 4100 3525 3541 
Q 3525 3141 3298 2862 
Q 3072 2584 2669 2484 
Q 3125 2378 3379 2068 
Q 3634 1759 3634 1313 
Q 3634 634 3220 271 
Q 2806 -91 2034 -91 
Q 1263 -91 848 271 
Q 434 634 434 1313 
Q 434 1759 690 2068 
Q 947 2378 1403 2484 
z
M 1172 3481 
Q 1172 3119 1398 2916 
Q 1625 2713 2034 2713 
Q 2441 2713 2670 2916 
Q 2900 3119 2900 3481 
Q 2900 3844 2670 4047 
Q 2441 4250 2034 4250 
Q 1625 4250 1398 4047 
Q 1172 3844 1172 3481 
z
" transform="scale(0.015625)"/>
       </defs>
       <use xlink:href="#DejaVuSans-30"/>
       <use xlink:href="#DejaVuSans-2e" x="63.623047"/>
       <use xlink:href="#DejaVuSans-38" x="95.410156"/>
      </g>
     </g>
    </g>
    <g id="xtick_6">
     <g id="line2d_6">
      <g>
       <use xlink:href="#m073a552712" x="622.636364" y="384.48" style="stroke: #000000; stroke-width: 0.8"/>
      </g>
     </g>
     <g id="text_6">
      <!-- 1.0 -->
      <g transform="translate(614.684801 399.078438) scale(0.1 -0.1)">
       <defs>
        <path id="DejaVuSans-31" d="M 794 531 
L 1825 531 
L 1825 4091 
L 703 3866 
L 703 4441 
L 1819 4666 
L 2450 4666 
L 2450 531 
L 3481 531 
L 3481 0 
L 794 0 
L 794 531 
z
" transform="scale(0.015625)"/>
       </defs>
       <use xlink:href="#DejaVuSans-31"/>
       <use xlink:href="#DejaVuSans-2e" x="63.623047"/>
       <use xlink:href="#DejaVuSans-30" x="95.410156"/>
      </g>
     </g>
    </g>
    <g id="text_7">
     <!-- $t$ -->
     <g transform="translate(367 412.756563) scale(0.1 -0.1)">
      <defs>
       <path id="DejaVuSans-Oblique-74" d="M 2706 3500 
L 2619 3053 
L 1472 3053 
L 1100 1153 
Q 1081 1047 1072 975 
Q 1063 903 1063 863 
Q 1063 663 1183 572 
Q 1303 481 1569 481 
L 2150 481 
L 2053 0 
L 1503 0 
Q 991 0 739 200 
Q 488 400 488 806 
Q 488 878 497 964 
Q 506 1050 525 1153 
L 897 3053 
L 409 3053 
L 500 3500 
L 978 3500 
L 1172 4494 
L 1747 4494 
L 1556 3500 
L 2706 3500 
z
" transform="scale(0.015625)"/>
      </defs>
      <use xlink:href="#DejaVuSans-Oblique-74" transform="translate(0 0.78125)"/>
     </g>
    </g>
   </g>
   <g id="matplotlib.axis_2">
    <g id="ytick_1">
     <g id="line2d_7">
      <defs>
       <path id="md5bc46308a" d="M 0 0 
L -3.5 0 
" style="stroke: #000000; stroke-width: 0.8"/>
      </defs>
      <g>
       <use xlink:href="#md5bc46308a" x="90" y="379.202509" style="stroke: #000000; stroke-width: 0.8"/>
      </g>
     </g>
     <g id="text_8">
      <!-- 0.03 -->
      <g transform="translate(60.734375 383.001728) scale(0.1 -0.1)">
       <defs>
        <path id="DejaVuSans-33" d="M 2597 2516 
Q 3050 2419 3304 2112 
Q 3559 1806 3559 1356 
Q 3559 666 3084 287 
Q 2609 -91 1734 -91 
Q 1441 -91 1130 -33 
Q 819 25 488 141 
L 488 750 
Q 750 597 1062 519 
Q 1375 441 1716 441 
Q 2309 441 2620 675 
Q 2931 909 2931 1356 
Q 2931 1769 2642 2001 
Q 2353 2234 1838 2234 
L 1294 2234 
L 1294 2753 
L 1863 2753 
Q 2328 2753 2575 2939 
Q 2822 3125 2822 3475 
Q 2822 3834 2567 4026 
Q 2313 4219 1838 4219 
Q 1578 4219 1281 4162 
Q 984 4106 628 3988 
L 628 4550 
Q 988 4650 1302 4700 
Q 1616 4750 1894 4750 
Q 2613 4750 3031 4423 
Q 3450 4097 3450 3541 
Q 3450 3153 3228 2886 
Q 3006 2619 2597 2516 
z
" transform="scale(0.015625)"/>
       </defs>
       <use xlink:href="#DejaVuSans-30"/>
       <use xlink:href="#DejaVuSans-2e" x="63.623047"/>
       <use xlink:href="#DejaVuSans-30" x="95.410156"/>
       <use xlink:href="#DejaVuSans-33" x="159.033203"/>
      </g>
     </g>
    </g>
    <g id="ytick_2">
     <g id="line2d_8">
      <g>
       <use xlink:href="#md5bc46308a" x="90" y="320.116533" style="stroke: #000000; stroke-width: 0.8"/>
      </g>
     </g>
     <g id="text_9">
      <!-- 0.04 -->
      <g transform="translate(60.734375 323.915751) scale(0.1 -0.1)">
       <use xlink:href="#DejaVuSans-30"/>
       <use xlink:href="#DejaVuSans-2e" x="63.623047"/>
       <use xlink:href="#DejaVuSans-30" x="95.410156"/>
       <use xlink:href="#DejaVuSans-34" x="159.033203"/>
      </g>
     </g>
    </g>
    <g id="ytick_3">
     <g id="line2d_9">
      <g>
       <use xlink:href="#md5bc46308a" x="90" y="261.030556" style="stroke: #000000; stroke-width: 0.8"/>
      </g>
     </g>
     <g id="text_10">
      <!-- 0.05 -->
      <g transform="translate(60.734375 264.829774) scale(0.1 -0.1)">
       <defs>
        <path id="DejaVuSans-35" d="M 691 4666 
L 3169 4666 
L 3169 4134 
L 1269 4134 
L 1269 2991 
Q 1406 3038 1543 3061 
Q 1681 3084 1819 3084 
Q 2600 3084 3056 2656 
Q 3513 2228 3513 1497 
Q 3513 744 3044 326 
Q 2575 -91 1722 -91 
Q 1428 -91 1123 -41 
Q 819 9 494 109 
L 494 744 
Q 775 591 1075 516 
Q 1375 441 1709 441 
Q 2250 441 2565 725 
Q 2881 1009 2881 1497 
Q 2881 1984 2565 2268 
Q 2250 2553 1709 2553 
Q 1456 2553 1204 2497 
Q 953 2441 691 2322 
L 691 4666 
z
" transform="scale(0.015625)"/>
       </defs>
       <use xlink:href="#DejaVuSans-30"/>
       <use xlink:href="#DejaVuSans-2e" x="63.623047"/>
       <use xlink:href="#DejaVuSans-30" x="95.410156"/>
       <use xlink:href="#DejaVuSans-35" x="159.033203"/>
      </g>
     </g>
    </g>
    <g id="ytick_4">
     <g id="line2d_10">
      <g>
       <use xlink:href="#md5bc46308a" x="90" y="201.944579" style="stroke: #000000; stroke-width: 0.8"/>
      </g>
     </g>
     <g id="text_11">
      <!-- 0.06 -->
      <g transform="translate(60.734375 205.743798) scale(0.1 -0.1)">
       <use xlink:href="#DejaVuSans-30"/>
       <use xlink:href="#DejaVuSans-2e" x="63.623047"/>
       <use xlink:href="#DejaVuSans-30" x="95.410156"/>
       <use xlink:href="#DejaVuSans-36" x="159.033203"/>
      </g>
     </g>
    </g>
    <g id="ytick_5">
     <g id="line2d_11">
      <g>
       <use xlink:href="#md5bc46308a" x="90" y="142.858602" style="stroke: #000000; stroke-width: 0.8"/>
      </g>
     </g>
     <g id="text_12">
      <!-- 0.07 -->
      <g transform="translate(60.734375 146.657821) scale(0.1 -0.1)">
       <defs>
        <path id="DejaVuSans-37" d="M 525 4666 
L 3525 4666 
L 3525 4397 
L 1831 0 
L 1172 0 
L 2766 4134 
L 525 4134 
L 525 4666 
z
" transform="scale(0.015625)"/>
       </defs>
       <use xlink:href="#DejaVuSans-30"/>
       <use xlink:href="#DejaVuSans-2e" x="63.623047"/>
       <use xlink:href="#DejaVuSans-30" x="95.410156"/>
       <use xlink:href="#DejaVuSans-37" x="159.033203"/>
      </g>
     </g>
    </g>
    <g id="ytick_6">
     <g id="line2d_12">
      <g>
       <use xlink:href="#md5bc46308a" x="90" y="83.772625" style="stroke: #000000; stroke-width: 0.8"/>
      </g>
     </g>
     <g id="text_13">
      <!-- 0.08 -->
      <g transform="translate(60.734375 87.571844) scale(0.1 -0.1)">
       <use xlink:href="#DejaVuSans-30"/>
       <use xlink:href="#DejaVuSans-2e" x="63.623047"/>
       <use xlink:href="#DejaVuSans-30" x="95.410156"/>
       <use xlink:href="#DejaVuSans-38" x="159.033203"/>
      </g>
     </g>
    </g>
    <g id="text_14">
     <!-- $V_t$ -->
     <g transform="translate(54.654688 223.11) rotate(-90) scale(0.1 -0.1)">
      <defs>
       <path id="DejaVuSans-Oblique-56" d="M 1319 0 
L 500 4666 
L 1119 4666 
L 1797 653 
L 4063 4666 
L 4750 4666 
L 2053 0 
L 1319 0 
z
" transform="scale(0.015625)"/>
      </defs>
      <use xlink:href="#DejaVuSans-Oblique-56" transform="translate(0 0.09375)"/>
      <use xlink:href="#DejaVuSans-Oblique-74" transform="translate(68.408203 -16.3125) scale(0.7)"/>
     </g>
    </g>
   </g>
   <g id="line2d_13">
    <path d="M 115.363636 324.843411 
L 115.870909 289.76293 
L 116.378182 323.328338 
L 116.885455 301.612367 
L 117.392727 315.363945 
L 117.9 347.899366 
L 118.407273 335.923566 
L 118.914545 297.420391 
L 119.421818 289.778131 
L 119.929091 303.527073 
L 120.436364 355.361402 
L 120.943636 312.988321 
L 121.450909 315.538806 
L 121.958182 293.627874 
L 122.972727 332.598445 
L 123.48 293.24147 
L 123.987273 309.571394 
L 124.494545 321.065921 
L 125.001818 293.392168 
L 125.509091 330.993751 
L 126.016364 275.376045 
L 126.523636 289.639434 
L 127.030909 259.268936 
L 127.538182 247.105566 
L 128.045455 279.723315 
L 128.552727 244.920453 
L 129.06 265.58008 
L 129.567273 254.979879 
L 130.074545 237.216177 
L 130.581818 225.524517 
L 131.089091 267.721234 
L 131.596364 279.847527 
L 132.103636 303.4383 
L 132.610909 279.964361 
L 133.118182 320.434111 
L 133.625455 311.906772 
L 134.132727 254.700333 
L 134.64 288.538447 
L 135.147273 289.160907 
L 135.654545 305.981536 
L 136.161818 307.651261 
L 136.669091 293.176417 
L 137.176364 308.904855 
L 138.190909 296.117419 
L 138.698182 285.777881 
L 139.205455 292.330502 
L 139.712727 329.591277 
L 140.22 293.631934 
L 140.727273 271.457877 
L 141.234545 308.849422 
L 141.741818 309.640553 
L 142.249091 316.373052 
L 142.756364 358.268838 
L 143.263636 340.352854 
L 143.770909 312.268126 
L 144.278182 323.852028 
L 144.785455 317.116768 
L 145.292727 315.858258 
L 145.8 307.393513 
L 146.307273 329.982575 
L 146.814545 340.600825 
L 147.321818 369.36 
L 147.829091 318.834828 
L 148.336364 287.495254 
L 148.843636 276.408684 
L 149.350909 328.302921 
L 149.858182 339.245299 
L 150.365455 325.874183 
L 150.872727 317.89593 
L 151.38 333.142422 
L 151.887273 311.917563 
L 152.394545 283.488652 
L 152.901818 291.466647 
L 153.409091 320.98151 
L 153.916364 285.739491 
L 154.423636 323.091367 
L 154.930909 318.45478 
L 155.438182 265.411981 
L 155.945455 316.091575 
L 156.452727 336.421601 
L 156.96 327.527331 
L 157.467273 362.913336 
L 158.481818 328.751034 
L 158.989091 332.00412 
L 159.496364 313.609255 
L 160.003636 343.599203 
L 160.510909 362.631897 
L 161.018182 337.361493 
L 161.525455 355.919161 
L 162.032727 309.693381 
L 162.54 361.557466 
L 163.047273 342.600602 
L 163.554545 341.155704 
L 164.061818 320.591911 
L 164.569091 339.172475 
L 165.076364 317.541158 
L 165.583636 314.503007 
L 166.090909 301.794524 
L 166.598182 299.764178 
L 167.105455 347.877209 
L 167.612727 306.776794 
L 168.12 309.666535 
L 168.627273 324.608103 
L 169.134545 343.43976 
L 169.641818 329.330316 
L 170.149091 332.878116 
L 170.656364 311.673738 
L 171.163636 254.881226 
L 171.670909 272.891605 
L 172.178182 271.238298 
L 172.685455 271.991022 
L 173.7 245.574782 
L 174.207273 291.802846 
L 174.714545 315.085828 
L 175.221818 308.62222 
L 175.729091 328.551864 
L 176.236364 294.909483 
L 176.743636 290.986414 
L 177.250909 294.297104 
L 177.758182 269.549657 
L 178.265455 306.004005 
L 178.772727 295.290645 
L 179.28 321.693162 
L 179.787273 274.631936 
L 180.294545 288.197911 
L 180.801818 253.750075 
L 181.309091 279.503344 
L 181.816364 247.868536 
L 182.323636 318.705956 
L 182.830909 278.285024 
L 183.338182 253.748318 
L 183.845455 250.842968 
L 184.352727 251.381304 
L 184.86 263.329391 
L 185.367273 280.543417 
L 185.874545 292.609192 
L 186.381818 277.034588 
L 186.889091 267.272335 
L 187.396364 310.566927 
L 187.903636 343.976334 
L 188.410909 307.402292 
L 188.918182 304.692801 
L 189.425455 314.416351 
L 189.932727 294.903356 
L 190.44 260.797217 
L 190.947273 307.317909 
L 191.454545 309.246582 
L 191.961818 301.887486 
L 192.469091 334.400925 
L 192.976364 320.214035 
L 193.483636 321.389075 
L 193.990909 340.500855 
L 194.498182 321.836985 
L 195.005455 289.01985 
L 195.512727 310.132505 
L 196.02 318.432425 
L 196.527273 316.354037 
L 197.034545 306.274556 
L 197.541818 303.423932 
L 198.049091 341.621428 
L 198.556364 316.49229 
L 199.063636 245.792904 
L 199.570909 349.810177 
L 200.078182 350.555511 
L 200.585455 291.386902 
L 201.092727 302.331365 
L 201.6 289.779687 
L 202.107273 273.931423 
L 202.614545 305.261154 
L 203.121818 305.353791 
L 204.136364 280.556309 
L 204.643636 275.505918 
L 205.150909 351.020123 
L 205.658182 279.499894 
L 206.165455 314.192062 
L 206.672727 302.261503 
L 207.18 285.316071 
L 207.687273 306.841041 
L 208.194545 320.377892 
L 208.701818 311.954433 
L 209.209091 296.402524 
L 209.716364 305.318063 
L 210.223636 325.707186 
L 210.730909 299.515149 
L 211.238182 294.024596 
L 211.745455 317.747748 
L 212.252727 313.775642 
L 212.76 339.316866 
L 213.267273 327.391294 
L 213.774545 327.315886 
L 214.281818 336.411146 
L 214.789091 323.772546 
L 215.296364 336.7401 
L 215.803636 324.584749 
L 216.310909 307.034918 
L 216.818182 304.46267 
L 217.325455 324.402918 
L 217.832727 318.096768 
L 218.34 321.658993 
L 218.847273 288.081805 
L 219.354545 308.567054 
L 219.861818 312.803595 
L 220.369091 322.046879 
L 220.876364 324.9562 
L 221.383636 336.725708 
L 221.890909 298.62966 
L 222.398182 337.690514 
L 222.905455 322.254179 
L 223.412727 286.06692 
L 223.92 296.276778 
L 224.427273 297.474889 
L 224.934545 296.581282 
L 225.441818 278.606375 
L 225.949091 368.878035 
L 226.456364 304.386526 
L 226.963636 311.584432 
L 227.470909 308.973966 
L 227.978182 324.839054 
L 228.485455 279.564253 
L 228.992727 343.207888 
L 229.5 306.734042 
L 230.007273 324.658106 
L 230.514545 313.52415 
L 231.021818 337.07215 
L 231.529091 324.799779 
L 232.036364 316.40819 
L 232.543636 321.141652 
L 233.050909 354.659213 
L 233.558182 340.193467 
L 234.065455 298.127805 
L 234.572727 348.193688 
L 235.08 369.012284 
L 235.587273 309.437077 
L 236.094545 334.527701 
L 236.601818 300.319235 
L 237.109091 318.277291 
L 237.616364 311.489767 
L 238.123636 301.922679 
L 238.630909 316.203565 
L 239.138182 275.29663 
L 239.645455 305.166418 
L 240.152727 307.30716 
L 240.66 283.869788 
L 241.167273 249.644374 
L 242.181818 223.892351 
L 242.689091 245.041374 
L 243.196364 251.4671 
L 243.703636 254.641972 
L 244.210909 278.734397 
L 244.718182 264.425023 
L 245.225455 244.071781 
L 245.732727 213.36538 
L 246.24 204.926131 
L 246.747273 243.065622 
L 247.254545 239.408571 
L 247.761818 219.293747 
L 248.269091 206.621836 
L 248.776364 219.2838 
L 249.283636 241.829383 
L 249.790909 254.995507 
L 250.298182 190.650492 
L 250.805455 210.257906 
L 251.312727 196.917168 
L 251.82 232.822846 
L 252.327273 253.79886 
L 252.834545 172.482496 
L 253.341818 263.283921 
L 253.849091 214.167073 
L 254.356364 190.0688 
L 254.863636 229.420689 
L 255.878182 160.525382 
L 256.385455 239.43009 
L 256.892727 225.276923 
L 257.4 218.832881 
L 257.907273 186.258622 
L 258.414545 189.772095 
L 259.429091 243.638827 
L 259.936364 209.606073 
L 260.443636 218.258905 
L 260.950909 216.299402 
L 261.458182 212.627283 
L 261.965455 263.808341 
L 262.472727 222.385727 
L 262.98 276.725317 
L 263.487273 233.679173 
L 263.994545 235.85409 
L 264.501818 255.694272 
L 265.009091 240.907675 
L 265.516364 243.046488 
L 266.023636 282.323874 
L 266.530909 242.739148 
L 267.038182 250.91901 
L 267.545455 215.089419 
L 268.052727 239.726606 
L 268.56 239.906884 
L 269.067273 236.73399 
L 269.574545 235.593877 
L 270.081818 254.778882 
L 270.589091 241.15158 
L 271.096364 224.281926 
L 271.603636 245.646274 
L 272.110909 235.754467 
L 272.618182 215.96543 
L 273.125455 249.108274 
L 273.632727 229.405882 
L 274.14 285.65204 
L 274.647273 201.181651 
L 275.154545 190.026219 
L 275.661818 215.171409 
L 276.169091 176.480483 
L 276.676364 203.879818 
L 277.183636 191.427179 
L 277.690909 200.332093 
L 278.198182 193.69516 
L 278.705455 201.820013 
L 279.212727 189.394067 
L 279.72 163.25273 
L 280.227273 124.421886 
L 280.734545 169.029156 
L 281.241818 136.398266 
L 281.749091 124.576953 
L 282.256364 155.396884 
L 282.763636 168.755831 
L 283.270909 172.041483 
L 283.778182 143.786264 
L 284.285455 131.134827 
L 284.792727 153.299081 
L 285.3 134.010117 
L 285.807273 148.578192 
L 286.314545 157.04506 
L 287.329091 191.652015 
L 287.836364 178.242896 
L 288.343636 174.535336 
L 288.850909 152.605686 
L 289.358182 149.474645 
L 289.865455 158.592135 
L 290.372727 217.152845 
L 290.88 168.886858 
L 291.387273 191.562961 
L 291.894545 190.524087 
L 292.401818 215.61573 
L 292.909091 229.022215 
L 293.416364 160.177118 
L 293.923636 187.151083 
L 294.430909 186.311103 
L 294.938182 211.181177 
L 295.445455 212.50416 
L 295.952727 181.035596 
L 296.46 209.256797 
L 296.967273 134.927562 
L 297.474545 143.793384 
L 297.981818 135.099732 
L 298.489091 222.546856 
L 298.996364 151.835363 
L 299.503636 168.124099 
L 300.010909 178.580579 
L 300.518182 182.799002 
L 301.025455 131.407752 
L 301.532727 136.228646 
L 302.04 215.25994 
L 302.547273 172.115276 
L 303.054545 140.318812 
L 303.561818 140.402768 
L 304.069091 209.127195 
L 304.576364 199.026235 
L 305.083636 217.365672 
L 305.590909 211.642213 
L 306.098182 166.453125 
L 306.605455 194.507475 
L 307.112727 177.891309 
L 307.62 223.905143 
L 308.127273 235.157908 
L 308.634545 192.609726 
L 309.141818 201.016776 
L 309.649091 249.89414 
L 310.663636 198.096669 
L 311.170909 191.480299 
L 311.678182 207.968765 
L 312.185455 167.891353 
L 312.692727 208.295946 
L 313.2 154.482417 
L 313.707273 159.136 
L 314.214545 176.259241 
L 314.721818 227.610124 
L 315.229091 202.482633 
L 316.243636 171.178471 
L 316.750909 231.110037 
L 317.258182 168.52044 
L 317.765455 189.625153 
L 318.272727 217.762705 
L 318.78 206.424322 
L 319.794545 174.756402 
L 320.301818 192.038731 
L 320.809091 185.578774 
L 321.316364 164.435753 
L 321.823636 187.805064 
L 322.330909 151.185574 
L 322.838182 140.683673 
L 323.345455 139.895419 
L 323.852727 118.85639 
L 324.36 173.61404 
L 324.867273 169.578484 
L 325.374545 206.020242 
L 325.881818 172.823591 
L 326.389091 200.719326 
L 326.896364 113.488465 
L 327.403636 188.287545 
L 327.910909 175.166029 
L 328.418182 180.732146 
L 328.925455 128.154532 
L 329.94 196.221616 
L 330.447273 178.077833 
L 330.954545 146.787623 
L 331.461818 180.822144 
L 331.969091 137.271468 
L 332.476364 158.379234 
L 332.983636 148.582336 
L 333.490909 166.235124 
L 333.998182 206.783897 
L 334.505455 164.34139 
L 335.012727 204.663223 
L 335.52 227.01037 
L 336.027273 220.893768 
L 336.534545 150.416925 
L 337.041818 194.945473 
L 337.549091 149.078015 
L 338.056364 211.01573 
L 338.563636 204.727882 
L 339.070909 189.222971 
L 339.578182 156.498975 
L 340.085455 203.71027 
L 340.592727 231.018898 
L 341.1 227.753721 
L 341.607273 174.844094 
L 342.114545 229.439533 
L 342.621818 196.647768 
L 343.129091 216.28793 
L 343.636364 176.901446 
L 344.143636 148.816573 
L 344.650909 178.863245 
L 345.158182 170.447848 
L 345.665455 144.271028 
L 346.172727 103.817935 
L 346.68 107.814301 
L 347.187273 199.600975 
L 347.694545 160.139383 
L 348.201818 97.45333 
L 348.709091 108.045153 
L 349.216364 125.928767 
L 349.723636 66.96 
L 350.230909 102.891876 
L 350.738182 174.068939 
L 351.245455 192.127167 
L 351.752727 174.114736 
L 352.26 164.103919 
L 352.767273 141.801411 
L 353.274545 186.859975 
L 353.781818 160.400656 
L 354.289091 176.788106 
L 354.796364 142.95459 
L 355.303636 131.279901 
L 355.810909 114.099455 
L 356.318182 200.146143 
L 356.825455 220.057676 
L 357.332727 220.115476 
L 357.84 205.005931 
L 358.347273 198.760492 
L 358.854545 170.24325 
L 359.361818 189.19336 
L 359.869091 241.109496 
L 360.376364 233.15547 
L 360.883636 151.5353 
L 361.898182 216.629189 
L 362.405455 162.806708 
L 362.912727 230.858863 
L 363.42 217.622995 
L 363.927273 222.966112 
L 364.434545 224.948618 
L 364.941818 206.610895 
L 365.449091 230.796029 
L 365.956364 203.612724 
L 366.463636 269.577828 
L 366.970909 222.434814 
L 367.478182 256.182035 
L 367.985455 196.864614 
L 368.492727 228.434189 
L 369 324.693945 
L 370.521818 228.174395 
L 371.029091 275.590229 
L 371.536364 271.95047 
L 372.043636 278.119097 
L 372.550909 241.675479 
L 373.058182 270.277594 
L 373.565455 244.278205 
L 374.072727 277.413159 
L 374.58 225.98641 
L 375.087273 245.96885 
L 375.594545 235.111163 
L 376.101818 242.82861 
L 376.609091 240.146818 
L 377.116364 239.28417 
L 377.623636 258.545209 
L 378.130909 251.298243 
L 378.638182 234.227371 
L 379.145455 226.186435 
L 379.652727 201.765094 
L 380.16 217.210019 
L 380.667273 287.37801 
L 381.174545 229.275815 
L 381.681818 269.93686 
L 382.189091 241.29403 
L 383.203636 254.674022 
L 383.710909 170.884581 
L 384.218182 199.492659 
L 384.725455 245.568503 
L 385.232727 246.763213 
L 385.74 188.077172 
L 386.247273 206.109549 
L 386.754545 243.832085 
L 387.261818 235.639118 
L 388.276364 309.835795 
L 388.783636 282.000934 
L 389.798182 196.951361 
L 390.305455 198.812362 
L 390.812727 209.51926 
L 391.827273 185.019084 
L 392.334545 183.95429 
L 392.841818 178.74143 
L 393.349091 182.51855 
L 393.856364 247.285932 
L 394.363636 217.87158 
L 394.870909 177.56579 
L 395.378182 213.465156 
L 395.885455 236.480244 
L 396.392727 221.159394 
L 396.9 218.89504 
L 397.407273 203.429131 
L 397.914545 200.10941 
L 398.421818 221.865467 
L 398.929091 207.887688 
L 399.436364 208.765552 
L 399.943636 199.939193 
L 400.450909 228.269004 
L 400.958182 160.32445 
L 401.465455 247.715732 
L 401.972727 274.491378 
L 402.48 208.063067 
L 402.987273 214.800826 
L 403.494545 177.318983 
L 404.001818 221.631557 
L 404.509091 220.280787 
L 405.016364 234.152384 
L 405.523636 233.728186 
L 406.030909 209.701672 
L 406.538182 235.765033 
L 407.045455 211.092757 
L 407.552727 215.520848 
L 408.06 244.558927 
L 408.567273 242.072821 
L 409.074545 207.723538 
L 409.581818 206.156441 
L 410.089091 181.902009 
L 410.596364 167.336444 
L 411.103636 190.293819 
L 411.610909 190.601733 
L 412.118182 201.854069 
L 412.625455 206.97984 
L 413.132727 161.83701 
L 413.64 252.562909 
L 414.147273 264.214783 
L 414.654545 268.354558 
L 415.669091 239.566875 
L 416.176364 284.456876 
L 416.683636 293.004875 
L 417.190909 272.772196 
L 417.698182 259.400803 
L 418.205455 303.628451 
L 418.712727 273.804657 
L 419.22 194.086894 
L 419.727273 245.695194 
L 420.234545 213.368072 
L 420.741818 219.393086 
L 421.249091 201.409128 
L 421.756364 224.175269 
L 422.263636 193.298289 
L 422.770909 181.264909 
L 423.278182 264.856844 
L 423.785455 263.371702 
L 424.292727 247.333664 
L 424.8 221.365181 
L 425.307273 209.453269 
L 425.814545 220.153117 
L 426.321818 217.773952 
L 426.829091 156.217254 
L 427.336364 237.401466 
L 427.843636 185.743447 
L 428.350909 270.611305 
L 428.858182 271.724935 
L 429.365455 221.816558 
L 429.872727 157.104229 
L 430.38 130.410621 
L 430.887273 199.802061 
L 431.394545 191.854317 
L 431.901818 211.36948 
L 432.916364 145.666822 
L 433.423636 144.899597 
L 433.930909 156.346086 
L 434.438182 84.151393 
L 434.945455 165.511161 
L 435.452727 160.62529 
L 435.96 178.589294 
L 436.467273 161.719322 
L 436.974545 152.648734 
L 437.481818 191.907178 
L 438.496364 229.500376 
L 439.003636 163.639809 
L 439.510909 183.4572 
L 440.018182 155.890203 
L 440.525455 163.156676 
L 441.032727 190.740381 
L 441.54 194.657709 
L 442.047273 191.328651 
L 442.554545 186.522804 
L 443.061818 206.69581 
L 443.569091 197.980432 
L 444.076364 191.82585 
L 444.583636 158.558132 
L 445.090909 165.473678 
L 445.598182 188.823712 
L 446.105455 168.490193 
L 446.612727 171.813272 
L 447.12 186.007772 
L 447.627273 176.754955 
L 448.134545 143.778314 
L 448.641818 132.457225 
L 449.149091 114.752752 
L 449.656364 199.989315 
L 450.163636 154.268732 
L 450.670909 180.915435 
L 451.178182 183.484056 
L 451.685455 234.805648 
L 452.192727 243.308238 
L 452.7 185.063388 
L 453.207273 187.191754 
L 453.714545 217.827765 
L 454.221818 184.397338 
L 454.729091 193.903733 
L 455.236364 165.024425 
L 455.743636 157.694665 
L 456.758182 168.777182 
L 457.265455 160.013814 
L 457.772727 129.04362 
L 458.28 169.459615 
L 458.787273 152.276253 
L 459.294545 170.626139 
L 459.801818 167.580863 
L 460.309091 117.187581 
L 460.816364 147.589272 
L 461.323636 143.849144 
L 461.830909 162.151823 
L 462.845455 130.085938 
L 463.352727 160.071005 
L 463.86 122.734758 
L 464.367273 179.524517 
L 464.874545 193.426572 
L 465.381818 114.198596 
L 465.889091 122.074639 
L 466.396364 159.870903 
L 466.903636 127.947302 
L 467.410909 115.444162 
L 467.918182 85.569556 
L 468.425455 95.43998 
L 469.44 137.17046 
L 469.947273 136.091305 
L 470.454545 134.398139 
L 470.961818 163.87628 
L 471.469091 181.225316 
L 471.976364 191.210776 
L 472.483636 146.458617 
L 472.990909 118.382408 
L 473.498182 177.083726 
L 474.005455 132.182417 
L 474.512727 120.185204 
L 475.02 119.858303 
L 475.527273 181.222915 
L 476.034545 186.693739 
L 476.541818 148.768427 
L 477.049091 175.269162 
L 477.556364 168.193433 
L 478.063636 156.348062 
L 478.570909 158.491047 
L 479.078182 147.463236 
L 480.092727 209.90549 
L 480.6 196.223056 
L 481.107273 225.448903 
L 482.121818 148.836922 
L 482.629091 158.899716 
L 483.136364 151.876447 
L 483.643636 183.313747 
L 484.150909 196.445699 
L 484.658182 249.658894 
L 485.165455 213.408263 
L 485.672727 236.858787 
L 486.18 156.722047 
L 486.687273 136.074028 
L 487.194545 189.62999 
L 487.701818 161.724876 
L 488.209091 159.150698 
L 488.716364 133.864389 
L 489.223636 172.090648 
L 489.730909 225.635773 
L 490.238182 163.713848 
L 490.745455 225.034914 
L 491.252727 203.333107 
L 491.76 223.696357 
L 492.267273 190.231394 
L 492.774545 222.943178 
L 493.281818 208.314246 
L 493.789091 239.77077 
L 494.296364 228.486489 
L 494.803636 246.093132 
L 495.310909 220.426416 
L 495.818182 244.00901 
L 496.325455 256.904141 
L 496.832727 219.093012 
L 497.34 197.346817 
L 497.847273 264.711263 
L 498.354545 279.025295 
L 498.861818 264.490488 
L 499.369091 267.835641 
L 499.876364 281.192422 
L 500.383636 246.501726 
L 500.890909 196.906452 
L 501.398182 242.386354 
L 501.905455 259.443442 
L 502.412727 194.413911 
L 502.92 248.935866 
L 503.427273 165.587948 
L 503.934545 161.732286 
L 504.441818 163.09409 
L 504.949091 187.992334 
L 505.456364 226.545642 
L 505.963636 162.412266 
L 506.470909 145.704551 
L 506.978182 153.921486 
L 507.485455 173.441424 
L 508.5 185.29251 
L 509.007273 158.603949 
L 509.514545 203.156243 
L 510.021818 219.928435 
L 510.529091 218.204247 
L 511.036364 188.212232 
L 511.543636 169.74675 
L 512.050909 189.465011 
L 512.558182 164.306347 
L 513.065455 182.718689 
L 513.572727 187.167229 
L 514.587273 268.169602 
L 515.094545 236.496577 
L 515.601818 243.243601 
L 516.109091 227.217806 
L 516.616364 230.113514 
L 517.123636 206.474206 
L 517.630909 212.446657 
L 518.138182 229.304834 
L 518.645455 227.365806 
L 519.152727 255.449374 
L 519.66 218.261289 
L 520.167273 220.246104 
L 520.674545 228.582495 
L 521.181818 213.23946 
L 521.689091 218.816562 
L 522.196364 240.787516 
L 522.703636 257.582496 
L 523.210909 250.356165 
L 523.718182 210.099644 
L 524.225455 282.439684 
L 524.732727 264.038672 
L 525.24 238.51528 
L 525.747273 283.797009 
L 526.254545 252.048348 
L 527.269091 219.281671 
L 527.776364 220.11391 
L 528.283636 207.997778 
L 528.790909 192.88432 
L 529.298182 262.635161 
L 529.805455 292.689628 
L 530.312727 261.805694 
L 530.82 292.097444 
L 531.327273 288.022078 
L 531.834545 252.888264 
L 532.341818 281.113391 
L 532.849091 282.639369 
L 533.356364 250.671612 
L 533.863636 180.93418 
L 534.370909 208.137337 
L 534.878182 248.036833 
L 535.892727 211.508883 
L 536.4 239.587328 
L 536.907273 201.770974 
L 537.414545 231.416398 
L 537.921818 268.242599 
L 538.429091 240.153734 
L 538.936364 191.263583 
L 539.443636 205.802043 
L 539.950909 226.71861 
L 540.458182 229.82063 
L 540.965455 198.129008 
L 541.472727 215.633156 
L 541.98 206.284462 
L 542.487273 214.962468 
L 542.994545 243.337336 
L 543.501818 208.132314 
L 544.009091 206.460463 
L 544.516364 217.432636 
L 545.023636 168.819405 
L 545.530909 147.793902 
L 546.038182 193.040188 
L 546.545455 197.156373 
L 547.052727 218.114942 
L 547.56 219.569218 
L 548.067273 163.378931 
L 548.574545 209.989796 
L 549.081818 189.613205 
L 549.589091 192.144051 
L 550.603636 140.679367 
L 551.110909 129.619102 
L 551.618182 241.131954 
L 552.125455 218.581064 
L 552.632727 207.333089 
L 553.14 163.438402 
L 553.647273 205.315369 
L 554.154545 210.411255 
L 554.661818 205.797854 
L 555.169091 202.498719 
L 555.676364 141.301918 
L 556.183636 149.213222 
L 556.690909 154.952803 
L 557.198182 189.924858 
L 558.212727 148.758984 
L 558.72 157.13377 
L 559.227273 183.573851 
L 560.241818 147.55957 
L 560.749091 135.959484 
L 561.256364 174.783436 
L 561.763636 192.095083 
L 562.270909 201.43676 
L 562.778182 159.407874 
L 563.285455 148.422101 
L 563.792727 185.673935 
L 564.3 193.272649 
L 564.807273 151.121332 
L 565.314545 198.784338 
L 566.329091 152.632877 
L 566.836364 153.227215 
L 567.343636 178.93054 
L 567.850909 155.725025 
L 568.358182 156.392213 
L 568.865455 140.859282 
L 569.372727 153.776506 
L 570.387273 206.815056 
L 570.894545 164.66364 
L 571.401818 154.141122 
L 571.909091 125.188178 
L 572.416364 133.132719 
L 572.923636 129.866073 
L 573.430909 104.764289 
L 573.938182 160.389899 
L 574.445455 162.212397 
L 574.952727 175.413311 
L 575.46 131.88637 
L 575.967273 147.202369 
L 576.981818 148.009044 
L 577.996364 97.221561 
L 578.503636 166.606241 
L 579.010909 117.092126 
L 579.518182 84.545941 
L 580.025455 160.723045 
L 580.532727 143.132552 
L 581.04 163.106614 
L 581.547273 189.230517 
L 582.054545 128.943453 
L 582.561818 172.338434 
L 583.069091 129.625422 
L 583.576364 172.586257 
L 584.083636 147.492633 
L 584.590909 168.839413 
L 585.098182 127.710342 
L 585.605455 209.999983 
L 586.112727 217.86008 
L 586.62 197.254762 
L 587.127273 201.803943 
L 587.634545 222.008747 
L 588.141818 154.326258 
L 588.649091 213.992549 
L 589.156364 208.976509 
L 589.663636 278.899574 
L 590.170909 207.240909 
L 590.678182 212.582409 
L 591.185455 215.586998 
L 591.692727 261.911233 
L 592.2 193.08954 
L 592.707273 184.71298 
L 593.214545 135.933532 
L 593.721818 150.859308 
L 594.229091 158.765891 
L 595.243636 177.361453 
L 595.750909 139.234372 
L 596.258182 219.757222 
L 596.765455 171.800303 
L 597.272727 190.859904 
L 597.78 174.593024 
L 598.287273 129.962564 
L 598.794545 151.192305 
L 599.301818 204.728098 
L 599.809091 152.831331 
L 600.316364 133.683765 
L 600.823636 104.754696 
L 601.330909 140.204474 
L 602.345455 188.875398 
L 602.852727 185.39786 
L 603.36 265.197564 
L 604.374545 210.718957 
L 604.881818 201.292871 
L 605.389091 194.133296 
L 605.896364 139.386165 
L 606.403636 193.954566 
L 606.910909 198.759548 
L 607.418182 204.890509 
L 607.925455 190.375543 
L 608.432727 166.45654 
L 608.94 227.759 
L 609.447273 235.318619 
L 609.954545 207.120917 
L 610.461818 206.975866 
L 610.969091 197.54243 
L 611.476364 205.652806 
L 611.983636 233.299369 
L 612.490909 207.30988 
L 612.998182 234.91685 
L 613.505455 247.068602 
L 614.012727 233.201476 
L 614.52 197.498371 
L 615.027273 182.012758 
L 615.534545 160.703132 
L 616.041818 200.447686 
L 616.549091 191.216091 
L 617.056364 185.634588 
L 617.563636 166.971858 
L 618.070909 212.90707 
L 618.578182 232.87304 
L 619.085455 200.318504 
L 619.592727 175.093912 
L 620.1 225.625314 
L 620.607273 175.983063 
L 621.114545 209.226296 
L 621.621818 204.717966 
L 622.129091 236.282489 
L 622.636364 190.441931 
L 622.636364 190.441931 
" clip-path="url(#p46fca24722)" style="fill: none; stroke: #1f77b4; stroke-width: 0.5; stroke-linecap: square"/>
   </g>
   <g id="line2d_14">
    <path d="M 115.363636 324.843411 
L 115.870909 322.720441 
L 116.378182 323.410515 
L 116.885455 322.430127 
L 117.392727 322.629093 
L 117.9 324.568574 
L 118.407273 325.021649 
L 118.914545 323.033743 
L 119.421818 321.571508 
L 119.929091 321.395327 
L 120.436364 324.121129 
L 120.943636 323.143136 
L 121.450909 322.869091 
L 121.958182 321.412895 
L 122.465455 321.776629 
L 122.972727 322.911462 
L 123.48 321.18938 
L 123.987273 321.196679 
L 124.494545 321.775008 
L 125.001818 320.436132 
L 125.509091 321.794286 
L 126.016364 319.203768 
L 126.523636 318.626927 
L 127.538182 314.405633 
L 128.045455 314.728793 
L 128.552727 312.727921 
L 129.06 312.542538 
L 129.567273 311.605468 
L 130.581818 308.165114 
L 131.596364 310.004859 
L 132.103636 311.754791 
L 132.610909 311.401756 
L 133.118182 313.495051 
L 133.625455 314.29537 
L 134.132727 311.481271 
L 134.64 311.856988 
L 135.147273 311.992993 
L 135.654545 312.980085 
L 136.161818 313.650362 
L 136.669091 313.231935 
L 137.176364 313.931308 
L 137.683636 313.95994 
L 138.190909 313.65972 
L 138.698182 312.905922 
L 139.205455 312.821809 
L 139.712727 314.839714 
L 140.22 313.892305 
L 140.727273 312.197859 
L 141.234545 313.269145 
L 142.249091 314.656745 
L 142.756364 317.651248 
L 143.263636 318.516947 
L 143.770909 317.485437 
L 144.278182 317.755529 
L 145.292727 317.441734 
L 145.8 316.903009 
L 146.307273 317.925292 
L 146.814545 319.200517 
L 147.321818 321.839775 
L 147.829091 320.304725 
L 148.843636 315.916476 
L 149.858182 319.09665 
L 150.365455 319.23859 
L 150.872727 318.936179 
L 151.38 319.721101 
L 151.887273 318.929929 
L 152.394545 316.882239 
L 152.901818 316.161769 
L 153.409091 317.271913 
L 153.916364 315.751756 
L 154.423636 317.000946 
L 154.930909 317.418165 
L 155.438182 314.528736 
L 155.945455 315.736478 
L 156.452727 317.562395 
L 156.96 318.137587 
L 157.467273 320.712508 
L 157.974545 321.230259 
L 158.481818 320.786454 
L 158.989091 320.877101 
L 159.496364 319.887558 
L 160.003636 321.141419 
L 160.510909 323.120757 
L 161.018182 322.809838 
L 161.525455 323.951344 
L 162.032727 321.80674 
L 162.54 323.7906 
L 163.554545 323.948396 
L 164.061818 322.82105 
L 164.569091 323.345766 
L 165.076364 322.329435 
L 165.583636 321.613806 
L 166.090909 320.415055 
L 166.598182 319.550547 
L 167.105455 321.683231 
L 167.612727 320.389153 
L 168.12 319.918825 
L 168.627273 320.45632 
L 169.134545 321.861252 
L 169.641818 321.859415 
L 170.149091 322.15666 
L 170.656364 321.091693 
L 171.163636 317.223754 
L 172.178182 315.00426 
L 172.685455 314.208256 
L 173.192727 312.83057 
L 173.7 311.112283 
L 174.207273 312.338625 
L 174.714545 314.188422 
L 175.221818 314.854584 
L 175.729091 316.43723 
L 176.236364 315.396263 
L 176.743636 314.685605 
L 177.250909 314.429858 
L 177.758182 312.806036 
L 178.265455 313.822484 
L 178.772727 313.698449 
L 179.28 315.115225 
L 179.787273 313.132685 
L 180.294545 312.855345 
L 180.801818 310.633901 
L 181.309091 310.692102 
L 181.816364 308.763061 
L 182.323636 311.332438 
L 182.830909 310.413118 
L 183.338182 308.567197 
L 183.845455 307.289771 
L 184.352727 306.396975 
L 184.86 306.320532 
L 185.367273 307.032409 
L 185.874545 308.01096 
L 186.381818 307.645068 
L 186.889091 306.882841 
L 187.396364 308.776895 
L 187.903636 311.896569 
L 188.410909 311.627023 
L 188.918182 311.521545 
L 189.425455 312.116152 
L 189.932727 311.36518 
L 190.44 309.04373 
L 190.947273 310.263369 
L 191.454545 311.021949 
L 191.961818 311.044551 
L 192.469091 312.991536 
L 193.483636 313.796073 
L 193.990909 315.300114 
L 194.498182 315.159234 
L 195.005455 313.255234 
L 195.512727 313.466833 
L 196.02 314.032436 
L 196.527273 314.25073 
L 197.541818 313.435405 
L 198.049091 315.429711 
L 198.556364 315.121673 
L 199.063636 310.856264 
L 199.570909 314.149637 
L 200.078182 316.351183 
L 200.585455 313.984002 
L 201.092727 313.528232 
L 201.6 312.479732 
L 202.107273 310.934175 
L 202.614545 311.692576 
L 203.121818 312.030226 
L 203.629091 311.527032 
L 204.643636 309.498204 
L 205.150909 313.04003 
L 205.658182 310.749093 
L 206.165455 311.654998 
L 206.672727 311.450192 
L 207.18 310.36991 
L 207.687273 310.959255 
L 208.194545 312.049777 
L 208.701818 312.206221 
L 209.209091 311.43402 
L 209.716364 311.53749 
L 210.223636 312.769444 
L 211.238182 311.213525 
L 211.745455 312.137184 
L 212.252727 312.427377 
L 212.76 314.153881 
L 213.774545 314.874087 
L 214.281818 315.731517 
L 214.789091 315.557641 
L 215.296364 316.353231 
L 215.803636 316.154335 
L 216.310909 315.078869 
L 216.818182 314.363514 
L 217.325455 315.077764 
L 217.832727 315.095399 
L 218.34 315.346462 
L 218.847273 313.494647 
L 219.861818 313.892979 
L 220.876364 315.121737 
L 221.383636 316.211009 
L 221.890909 314.567311 
L 222.398182 316.002498 
L 222.905455 315.928846 
L 223.412727 313.789891 
L 223.92 313.214109 
L 224.934545 312.464823 
L 225.441818 311.138036 
L 225.949091 315.339912 
L 226.456364 313.897775 
L 227.470909 313.530374 
L 227.978182 314.332839 
L 228.485455 312.070285 
L 228.992727 314.430417 
L 229.5 313.605686 
L 230.007273 314.296009 
L 230.514545 314.044964 
L 231.021818 315.343349 
L 231.529091 315.408519 
L 232.036364 315.032591 
L 232.543636 315.152281 
L 233.050909 317.258472 
L 233.558182 317.711555 
L 234.065455 315.505099 
L 234.572727 317.281398 
L 235.08 319.730504 
L 235.587273 317.410124 
L 236.094545 317.869367 
L 236.601818 316.043966 
L 237.109091 316.110672 
L 237.616364 315.672638 
L 238.123636 314.828477 
L 238.630909 315.122276 
L 239.138182 312.793994 
L 239.645455 313.139585 
L 240.152727 313.31787 
L 240.66 311.980778 
L 241.674545 306.960166 
L 242.181818 304.670717 
L 242.689091 304.1449 
L 243.703636 303.557404 
L 244.210909 304.496965 
L 244.718182 304.088614 
L 245.225455 302.648861 
L 246.24 298.000273 
L 246.747273 298.445168 
L 247.254545 298.197328 
L 248.269091 295.132265 
L 248.776364 294.596678 
L 249.283636 295.181276 
L 249.790909 296.020372 
L 250.298182 292.835949 
L 250.805455 292.035251 
L 251.312727 290.576863 
L 251.82 291.329938 
L 252.327273 292.654429 
L 252.834545 288.808159 
L 253.341818 291.232599 
L 253.849091 289.778136 
L 254.356364 287.679066 
L 254.863636 288.321149 
L 255.370909 286.568409 
L 255.878182 283.73011 
L 256.385455 285.787763 
L 256.892727 286.012868 
L 257.4 285.700251 
L 257.907273 283.688017 
L 258.414545 282.613878 
L 258.921818 283.004566 
L 259.429091 284.57648 
L 259.936364 283.520684 
L 260.443636 283.355949 
L 260.950909 283.031149 
L 261.458182 282.537645 
L 261.965455 284.848388 
L 262.472727 283.8359 
L 262.98 286.235815 
L 263.487273 285.211798 
L 263.994545 284.861302 
L 264.501818 285.706562 
L 265.009091 285.345323 
L 265.516364 285.268649 
L 266.023636 287.362831 
L 266.530909 286.332936 
L 267.038182 286.312261 
L 267.545455 284.279095 
L 268.052727 284.426738 
L 268.56 284.383605 
L 269.574545 283.818798 
L 270.081818 284.627845 
L 270.589091 284.280865 
L 271.096364 283.142014 
L 271.603636 283.589584 
L 272.110909 283.20404 
L 272.618182 281.849583 
L 273.125455 282.768476 
L 273.632727 282.09695 
L 274.14 284.736348 
L 274.647273 281.347441 
L 275.154545 279.103997 
L 275.661818 278.926961 
L 276.169091 276.507075 
L 276.676364 276.386082 
L 277.183636 275.378262 
L 277.690909 275.069913 
L 278.198182 274.326692 
L 278.705455 274.144523 
L 279.212727 273.194214 
L 279.72 271.127413 
L 280.227273 267.800188 
L 280.734545 267.824839 
L 281.749091 263.756953 
L 282.256364 263.763507 
L 282.763636 264.075377 
L 283.270909 264.16775 
L 284.285455 260.856229 
L 284.792727 260.714399 
L 285.3 259.35316 
L 285.807273 259.071814 
L 286.314545 259.063897 
L 286.821818 259.669464 
L 287.329091 260.815184 
L 287.836364 260.67585 
L 288.343636 260.356743 
L 288.850909 258.943847 
L 289.358182 257.871824 
L 289.865455 257.526833 
L 290.372727 260.136067 
L 290.88 258.953099 
L 291.387273 259.506855 
L 291.894545 259.689731 
L 292.909091 262.65887 
L 293.416364 259.77474 
L 293.923636 259.692289 
L 294.430909 259.452886 
L 294.938182 260.545613 
L 295.445455 261.202419 
L 295.952727 259.862098 
L 296.46 260.606188 
L 296.967273 256.897587 
L 297.981818 253.688266 
L 298.489091 256.877516 
L 298.996364 254.723493 
L 299.503636 254.412321 
L 300.518182 254.798146 
L 301.025455 252.075366 
L 301.532727 250.728839 
L 302.04 253.688454 
L 302.547273 252.958482 
L 303.054545 250.890344 
L 303.561818 249.635251 
L 304.069091 252.196411 
L 304.576364 253.067009 
L 305.083636 254.590621 
L 305.590909 255.217362 
L 306.098182 253.159753 
L 306.605455 253.539741 
L 307.112727 252.765149 
L 308.127273 256.512977 
L 308.634545 255.216985 
L 309.141818 255.0704 
L 309.649091 257.633533 
L 310.156364 257.792117 
L 311.170909 255.50532 
L 311.678182 255.76703 
L 312.185455 253.637277 
L 312.692727 254.528697 
L 313.2 251.947571 
L 313.707273 250.724746 
L 314.214545 250.686422 
L 314.721818 253.193897 
L 315.229091 253.211994 
L 315.736364 252.485756 
L 316.243636 251.145507 
L 316.750909 253.474297 
L 317.258182 251.253225 
L 317.765455 251.218386 
L 318.272727 252.595818 
L 318.78 252.729108 
L 319.287273 251.986072 
L 319.794545 250.670473 
L 320.301818 250.768508 
L 320.809091 250.351795 
L 321.316364 248.892139 
L 321.823636 249.192883 
L 322.838182 245.49101 
L 323.345455 244.237661 
L 323.852727 242.174757 
L 324.36 243.499803 
L 324.867273 243.809303 
L 325.374545 245.814538 
L 325.881818 245.105418 
L 326.389091 246.229535 
L 326.896364 242.023398 
L 327.403636 243.543349 
L 327.910909 243.529765 
L 328.418182 243.761081 
L 328.925455 240.980565 
L 329.432727 241.185752 
L 329.94 242.825736 
L 330.447273 242.701459 
L 330.954545 240.936388 
L 331.461818 241.662581 
L 331.969091 239.586739 
L 332.476364 239.455458 
L 332.983636 238.665906 
L 333.490909 238.996268 
L 333.998182 241.211624 
L 334.505455 240.107212 
L 335.012727 241.694465 
L 335.52 243.874699 
L 336.027273 244.911536 
L 336.534545 241.637308 
L 337.041818 242.319826 
L 337.549091 240.07524 
L 338.056364 242.042245 
L 338.563636 242.781853 
L 339.070909 242.378206 
L 339.578182 240.387056 
L 340.085455 241.731476 
L 340.592727 243.968764 
L 341.1 245.165907 
L 341.607273 242.943874 
L 342.114545 244.782078 
L 342.621818 243.991553 
L 343.129091 244.72229 
L 343.636364 242.925511 
L 344.143636 240.445353 
L 344.650909 240.507699 
L 345.158182 239.881625 
L 345.665455 237.991635 
L 346.172727 234.671993 
L 346.68 232.790658 
L 347.187273 235.95841 
L 347.694545 235.47342 
L 348.201818 231.824279 
L 348.709091 230.246128 
L 349.216364 229.894533 
L 349.723636 226.329105 
L 350.230909 225.876349 
L 351.245455 231.361919 
L 351.752727 231.862738 
L 352.26 231.680178 
L 352.767273 230.397567 
L 353.274545 232.010342 
L 353.781818 231.437058 
L 354.289091 232.016108 
L 355.810909 227.065818 
L 356.825455 233.151486 
L 357.332727 235.000783 
L 357.84 235.39655 
L 358.347273 235.460527 
L 358.854545 234.017778 
L 359.361818 234.296697 
L 359.869091 237.312368 
L 360.376364 238.772473 
L 360.883636 235.020986 
L 361.390909 235.063621 
L 361.898182 236.62883 
L 362.405455 234.455015 
L 362.912727 236.981862 
L 364.434545 239.356307 
L 364.941818 238.848792 
L 365.449091 240.039582 
L 365.956364 239.226245 
L 366.463636 242.588342 
L 366.970909 241.898811 
L 367.478182 243.703876 
L 367.985455 241.344635 
L 368.492727 242.003206 
L 369 247.987514 
L 369.507273 250.205603 
L 370.014545 249.684882 
L 370.521818 247.851802 
L 371.029091 249.749494 
L 372.043636 251.998912 
L 372.550909 250.664333 
L 373.058182 251.80344 
L 373.565455 250.995384 
L 374.072727 252.630755 
L 374.58 250.536841 
L 375.087273 250.695551 
L 375.594545 250.13806 
L 376.101818 250.292183 
L 377.116364 250.161883 
L 377.623636 251.267569 
L 378.130909 251.528866 
L 379.145455 249.922517 
L 379.652727 248.038098 
L 380.16 247.776191 
L 380.667273 251.460864 
L 381.174545 250.154356 
L 381.681818 251.967746 
L 382.189091 251.383669 
L 382.696364 251.584607 
L 383.203636 252.145664 
L 383.710909 247.542427 
L 384.218182 246.709261 
L 384.725455 248.510453 
L 385.232727 249.553811 
L 385.74 246.719994 
L 386.247273 246.210306 
L 386.754545 247.856441 
L 387.261818 248.291647 
L 387.769091 250.930155 
L 388.276364 254.737378 
L 388.783636 255.521932 
L 389.290909 253.636063 
L 389.798182 250.381178 
L 390.305455 248.701766 
L 390.812727 248.142161 
L 391.32 246.962546 
L 391.827273 245.457392 
L 392.841818 243.244499 
L 393.349091 242.595409 
L 393.856364 245.531124 
L 394.363636 245.502533 
L 394.870909 243.252759 
L 395.378182 243.925948 
L 395.885455 245.493048 
L 396.9 245.440128 
L 397.914545 243.813836 
L 398.421818 244.535551 
L 398.929091 244.088886 
L 399.436364 243.868249 
L 399.943636 243.192659 
L 400.450909 244.32522 
L 400.958182 241.009623 
L 401.972727 247.160891 
L 402.48 245.1511 
L 402.987273 244.667015 
L 403.494545 242.240232 
L 404.001818 243.243656 
L 404.509091 243.630751 
L 405.016364 244.629384 
L 405.523636 245.205575 
L 406.030909 244.198399 
L 406.538182 245.145741 
L 407.045455 244.253763 
L 407.552727 244.03816 
L 408.06 245.5253 
L 408.567273 246.270187 
L 409.074545 244.761699 
L 409.581818 243.902272 
L 410.596364 240.01832 
L 411.103636 239.941549 
L 411.610909 239.687661 
L 412.625455 240.379145 
L 413.132727 237.975837 
L 414.147273 244.269904 
L 414.654545 246.353598 
L 415.161818 246.907872 
L 415.669091 246.626498 
L 416.683636 251.611002 
L 417.190909 251.991395 
L 417.698182 251.685053 
L 418.205455 254.377972 
L 418.712727 254.325085 
L 419.22 249.682598 
L 419.727273 250.220781 
L 420.234545 248.502314 
L 420.741818 247.859305 
L 421.249091 246.345841 
L 421.756364 246.643873 
L 422.770909 243.192773 
L 423.278182 246.57203 
L 423.785455 248.533103 
L 424.292727 248.812807 
L 425.307273 246.290657 
L 425.814545 246.115287 
L 426.321818 245.788669 
L 426.829091 242.038725 
L 427.336364 244.20655 
L 427.843636 242.322712 
L 428.350909 245.913605 
L 428.858182 248.248296 
L 429.365455 246.701478 
L 430.38 238.582161 
L 430.887273 239.729339 
L 431.394545 239.636554 
L 431.901818 240.513145 
L 432.409091 238.9979 
L 432.916364 236.360213 
L 433.423636 234.673055 
L 433.930909 234.010959 
L 434.438182 229.485438 
L 434.945455 230.816364 
L 435.452727 230.945948 
L 435.96 231.78758 
L 436.467273 231.201034 
L 436.974545 230.284803 
L 437.481818 231.714395 
L 438.496364 235.627632 
L 439.003636 233.106938 
L 439.510909 232.939745 
L 440.018182 231.215379 
L 440.525455 230.552969 
L 441.032727 231.48772 
L 441.54 232.132649 
L 442.047273 232.284878 
L 442.554545 232.094265 
L 443.061818 233.085706 
L 443.569091 233.154885 
L 444.076364 232.877714 
L 444.583636 230.859052 
L 445.090909 230.059832 
L 445.598182 230.700472 
L 446.105455 229.812504 
L 446.612727 229.426188 
L 447.12 229.863351 
L 447.627273 229.507469 
L 449.149091 223.380111 
L 449.656364 226.263705 
L 450.163636 225.231741 
L 450.670909 226.081188 
L 451.178182 226.627149 
L 452.192727 232.294088 
L 452.7 230.465879 
L 453.207273 229.810489 
L 453.714545 231.142347 
L 454.221818 230.000626 
L 454.729091 229.957864 
L 455.743636 226.890563 
L 456.250909 226.281769 
L 456.758182 226.037577 
L 457.265455 225.271511 
L 457.772727 223.028974 
L 458.28 223.737299 
L 458.787273 222.989053 
L 459.294545 223.438007 
L 459.801818 223.399311 
L 460.309091 220.530084 
L 460.816364 220.43512 
L 461.323636 219.926873 
L 461.830909 220.447483 
L 462.338182 219.659918 
L 462.845455 218.319768 
L 463.352727 218.995107 
L 463.86 217.175396 
L 464.874545 220.803552 
L 465.381818 217.328309 
L 465.889091 215.93134 
L 466.396364 216.880449 
L 467.410909 213.9662 
L 467.918182 211.342182 
L 468.425455 210.127859 
L 468.932727 210.171222 
L 469.44 210.992418 
L 469.947273 211.222919 
L 470.454545 211.154047 
L 471.469091 214.35253 
L 471.976364 215.985678 
L 472.483636 214.483701 
L 472.990909 212.238941 
L 473.498182 213.999417 
L 474.512727 210.894213 
L 475.02 209.873791 
L 475.527273 212.343134 
L 476.034545 214.041466 
L 476.541818 212.921391 
L 477.049091 213.821946 
L 477.556364 213.936085 
L 478.063636 213.373162 
L 478.570909 213.172774 
L 479.078182 212.407355 
L 479.585455 213.553192 
L 480.092727 216.008278 
L 480.6 216.744713 
L 481.107273 219.011018 
L 481.614545 218.169892 
L 482.121818 215.801964 
L 483.136364 214.151849 
L 484.150909 216.546362 
L 484.658182 220.406818 
L 485.165455 220.710495 
L 485.672727 222.535349 
L 486.687273 216.161445 
L 487.194545 217.317445 
L 487.701818 216.25531 
L 488.209091 215.481635 
L 488.716364 213.540245 
L 489.223636 214.364198 
L 489.730909 217.679086 
L 490.238182 216.005748 
L 490.745455 218.632846 
L 491.252727 218.989285 
L 491.76 220.531296 
L 492.267273 219.581558 
L 492.774545 221.06511 
L 493.281818 221.155965 
L 493.789091 223.175474 
L 494.296364 223.837793 
L 494.803636 225.473044 
L 495.310909 225.064997 
L 495.818182 226.435469 
L 496.325455 228.186511 
L 496.832727 227.087623 
L 497.34 225.424796 
L 498.354545 231.22147 
L 499.369091 233.339386 
L 499.876364 235.103434 
L 500.383636 234.213262 
L 500.890909 230.995127 
L 501.398182 231.919677 
L 501.905455 233.456601 
L 502.412727 230.42981 
L 502.92 232.010729 
L 503.427273 227.853814 
L 503.934545 225.530036 
L 504.441818 224.031872 
L 504.949091 224.26041 
L 505.456364 226.335908 
L 506.470909 221.37148 
L 506.978182 220.302716 
L 507.992727 220.698835 
L 508.5 221.015658 
L 509.007273 219.603059 
L 510.529091 223.973231 
L 511.036364 222.891631 
L 511.543636 221.327871 
L 512.050909 221.49282 
L 512.558182 220.058092 
L 513.572727 220.402802 
L 514.08 222.881492 
L 514.587273 226.689337 
L 515.094545 227.212184 
L 515.601818 228.206924 
L 516.109091 228.026547 
L 516.616364 228.281999 
L 517.123636 227.141432 
L 517.630909 226.931596 
L 518.138182 227.789962 
L 518.645455 228.206796 
L 519.152727 230.191314 
L 519.66 229.202086 
L 520.167273 228.938076 
L 520.674545 229.316303 
L 521.181818 228.665316 
L 521.689091 228.666422 
L 522.196364 229.953324 
L 522.703636 231.772091 
L 523.210909 232.5371 
L 523.718182 230.705044 
L 524.225455 233.99675 
L 524.732727 235.003557 
L 525.24 234.235028 
L 525.747273 236.70441 
L 526.254545 236.347009 
L 526.761818 235.431126 
L 527.269091 234.015073 
L 527.776364 233.29002 
L 528.283636 232.119222 
L 528.790909 230.527204 
L 529.298182 233.438193 
L 529.805455 237.080352 
L 530.312727 237.467119 
L 530.82 239.838301 
L 531.327273 241.259954 
L 531.834545 240.128255 
L 532.849091 242.522496 
L 533.356364 241.316336 
L 533.863636 236.63108 
L 534.370909 235.665611 
L 534.878182 237.122185 
L 535.385455 236.69636 
L 535.892727 235.469064 
L 536.4 236.338589 
L 536.907273 234.527489 
L 537.414545 235.195744 
L 537.921818 237.668628 
L 538.429091 237.456709 
L 538.936364 234.561069 
L 539.443636 233.824561 
L 540.458182 234.86794 
L 540.965455 233.233305 
L 541.472727 233.295057 
L 541.98 232.683175 
L 542.487273 232.764338 
L 542.994545 234.373613 
L 543.501818 233.202877 
L 544.009091 232.513115 
L 544.516364 232.684808 
L 545.530909 227.174065 
L 546.038182 227.816353 
L 546.545455 228.155766 
L 547.052727 229.410613 
L 547.56 230.173483 
L 548.067273 227.348128 
L 548.574545 228.353199 
L 549.081818 227.630936 
L 549.589091 227.322185 
L 550.096364 225.550015 
L 551.110909 220.932265 
L 551.618182 225.275222 
L 552.125455 226.554906 
L 552.632727 226.710009 
L 553.14 224.345331 
L 554.154545 226.115727 
L 554.661818 226.297291 
L 555.169091 226.237762 
L 555.676364 222.704329 
L 556.183636 221.182301 
L 556.690909 220.352016 
L 557.198182 221.529527 
L 557.705455 220.765799 
L 558.212727 219.241642 
L 558.72 218.695046 
L 559.227273 219.626961 
L 559.734545 219.010203 
L 560.749091 216.067347 
L 561.256364 217.073786 
L 562.270909 219.732969 
L 563.285455 216.603492 
L 564.3 218.601958 
L 564.807273 216.715673 
L 565.314545 218.263529 
L 565.821818 217.746227 
L 566.329091 216.207915 
L 566.836364 215.312022 
L 567.343636 216.053386 
L 567.850909 215.054972 
L 568.358182 214.468027 
L 568.865455 213.152471 
L 569.372727 212.967521 
L 569.88 214.034991 
L 570.387273 216.163187 
L 571.401818 213.811378 
L 571.909091 211.497695 
L 572.923636 209.495054 
L 573.430909 207.363903 
L 573.938182 208.842494 
L 574.445455 209.589221 
L 574.952727 210.674404 
L 575.46 208.816624 
L 576.981818 208.12956 
L 577.489091 206.622836 
L 577.996364 204.184413 
L 578.503636 206.223574 
L 579.010909 204.460418 
L 579.518182 201.701794 
L 580.025455 203.874003 
L 580.532727 203.977753 
L 581.04 205.079239 
L 581.547273 207.143071 
L 582.054545 204.917818 
L 582.561818 206.130607 
L 583.069091 204.361076 
L 583.576364 205.699332 
L 584.083636 204.987375 
L 584.590909 205.764359 
L 585.098182 203.853518 
L 585.605455 207.212288 
L 586.112727 209.753196 
L 586.62 210.18239 
L 587.127273 210.908984 
L 587.634545 212.669616 
L 588.141818 209.81039 
L 588.649091 211.738943 
L 589.156364 212.621437 
L 589.663636 217.393585 
L 590.170909 216.00093 
L 590.678182 215.952882 
L 591.185455 216.242911 
L 591.692727 219.278681 
L 592.2 216.963957 
L 592.707273 215.512226 
L 593.214545 211.913538 
L 593.721818 210.664803 
L 594.229091 210.113281 
L 594.736364 210.140766 
L 595.243636 210.48277 
L 595.750909 208.422025 
L 596.258182 211.571626 
L 596.765455 210.578122 
L 597.272727 211.195993 
L 597.78 210.601578 
L 598.287273 207.753557 
L 598.794545 207.259605 
L 599.301818 209.706293 
L 600.316364 206.126742 
L 600.823636 203.355039 
L 601.330909 203.448948 
L 601.838182 204.59128 
L 602.345455 206.430248 
L 602.852727 207.289626 
L 603.36 212.443461 
L 603.867273 214.365717 
L 604.881818 213.496671 
L 605.389091 212.954293 
L 605.896364 209.553556 
L 606.403636 210.657694 
L 607.418182 212.276802 
L 607.925455 211.953172 
L 608.432727 210.455326 
L 609.447273 215.085467 
L 609.954545 214.722344 
L 610.461818 214.69957 
L 610.969091 214.222886 
L 611.476364 214.480278 
L 611.983636 216.277792 
L 612.490909 215.85047 
L 613.505455 219.119685 
L 614.012727 219.474213 
L 615.027273 215.990941 
L 615.534545 213.774568 
L 616.041818 214.607151 
L 616.549091 214.412626 
L 617.056364 213.941289 
L 617.563636 212.555993 
L 618.070909 214.259492 
L 618.578182 216.389333 
L 619.085455 215.747764 
L 619.592727 214.059057 
L 620.1 215.964608 
L 620.607273 214.105096 
L 621.114545 215.033413 
L 621.621818 215.271058 
L 622.129091 217.286427 
L 622.636364 215.767617 
L 622.636364 215.767617 
" clip-path="url(#p46fca24722)" style="fill: none; stroke: #ff7f0e; stroke-width: 0.5; stroke-linecap: square"/>
   </g>
   <g id="patch_3">
    <path d="M 90 384.48 
L 90 51.84 
" style="fill: none; stroke: #000000; stroke-width: 0.8; stroke-linejoin: miter; stroke-linecap: square"/>
   </g>
   <g id="patch_4">
    <path d="M 648 384.48 
L 648 51.84 
" style="fill: none; stroke: #000000; stroke-width: 0.8; stroke-linejoin: miter; stroke-linecap: square"/>
   </g>
   <g id="patch_5">
    <path d="M 90 384.48 
L 648 384.48 
" style="fill: none; stroke: #000000; stroke-width: 0.8; stroke-linejoin: miter; stroke-linecap: square"/>
   </g>
   <g id="patch_6">
    <path d="M 90 51.84 
L 648 51.84 
" style="fill: none; stroke: #000000; stroke-width: 0.8; stroke-linejoin: miter; stroke-linecap: square"/>
   </g>
   <g id="text_15">
    <!-- Fast paths -->
    <g transform="translate(338.26875 45.84) scale(0.12 -0.12)">
     <defs>
      <path id="DejaVuSans-46" d="M 628 4666 
L 3309 4666 
L 3309 4134 
L 1259 4134 
L 1259 2759 
L 3109 2759 
L 3109 2228 
L 1259 2228 
L 1259 0 
L 628 0 
L 628 4666 
z
" transform="scale(0.015625)"/>
      <path id="DejaVuSans-61" d="M 2194 1759 
Q 1497 1759 1228 1600 
Q 959 1441 959 1056 
Q 959 750 1161 570 
Q 1363 391 1709 391 
Q 2188 391 2477 730 
Q 2766 1069 2766 1631 
L 2766 1759 
L 2194 1759 
z
M 3341 1997 
L 3341 0 
L 2766 0 
L 2766 531 
Q 2569 213 2275 61 
Q 1981 -91 1556 -91 
Q 1019 -91 701 211 
Q 384 513 384 1019 
Q 384 1609 779 1909 
Q 1175 2209 1959 2209 
L 2766 2209 
L 2766 2266 
Q 2766 2663 2505 2880 
Q 2244 3097 1772 3097 
Q 1472 3097 1187 3025 
Q 903 2953 641 2809 
L 641 3341 
Q 956 3463 1253 3523 
Q 1550 3584 1831 3584 
Q 2591 3584 2966 3190 
Q 3341 2797 3341 1997 
z
" transform="scale(0.015625)"/>
      <path id="DejaVuSans-73" d="M 2834 3397 
L 2834 2853 
Q 2591 2978 2328 3040 
Q 2066 3103 1784 3103 
Q 1356 3103 1142 2972 
Q 928 2841 928 2578 
Q 928 2378 1081 2264 
Q 1234 2150 1697 2047 
L 1894 2003 
Q 2506 1872 2764 1633 
Q 3022 1394 3022 966 
Q 3022 478 2636 193 
Q 2250 -91 1575 -91 
Q 1294 -91 989 -36 
Q 684 19 347 128 
L 347 722 
Q 666 556 975 473 
Q 1284 391 1588 391 
Q 1994 391 2212 530 
Q 2431 669 2431 922 
Q 2431 1156 2273 1281 
Q 2116 1406 1581 1522 
L 1381 1569 
Q 847 1681 609 1914 
Q 372 2147 372 2553 
Q 372 3047 722 3315 
Q 1072 3584 1716 3584 
Q 2034 3584 2315 3537 
Q 2597 3491 2834 3397 
z
" transform="scale(0.015625)"/>
      <path id="DejaVuSans-74" d="M 1172 4494 
L 1172 3500 
L 2356 3500 
L 2356 3053 
L 1172 3053 
L 1172 1153 
Q 1172 725 1289 603 
Q 1406 481 1766 481 
L 2356 481 
L 2356 0 
L 1766 0 
Q 1100 0 847 248 
Q 594 497 594 1153 
L 594 3053 
L 172 3053 
L 172 3500 
L 594 3500 
L 594 4494 
L 1172 4494 
z
" transform="scale(0.015625)"/>
      <path id="DejaVuSans-20" transform="scale(0.015625)"/>
      <path id="DejaVuSans-70" d="M 1159 525 
L 1159 -1331 
L 581 -1331 
L 581 3500 
L 1159 3500 
L 1159 2969 
Q 1341 3281 1617 3432 
Q 1894 3584 2278 3584 
Q 2916 3584 3314 3078 
Q 3713 2572 3713 1747 
Q 3713 922 3314 415 
Q 2916 -91 2278 -91 
Q 1894 -91 1617 61 
Q 1341 213 1159 525 
z
M 3116 1747 
Q 3116 2381 2855 2742 
Q 2594 3103 2138 3103 
Q 1681 3103 1420 2742 
Q 1159 2381 1159 1747 
Q 1159 1113 1420 752 
Q 1681 391 2138 391 
Q 2594 391 2855 752 
Q 3116 1113 3116 1747 
z
" transform="scale(0.015625)"/>
      <path id="DejaVuSans-68" d="M 3513 2113 
L 3513 0 
L 2938 0 
L 2938 2094 
Q 2938 2591 2744 2837 
Q 2550 3084 2163 3084 
Q 1697 3084 1428 2787 
Q 1159 2491 1159 1978 
L 1159 0 
L 581 0 
L 581 4863 
L 1159 4863 
L 1159 2956 
Q 1366 3272 1645 3428 
Q 1925 3584 2291 3584 
Q 2894 3584 3203 3211 
Q 3513 2838 3513 2113 
z
" transform="scale(0.015625)"/>
     </defs>
     <use xlink:href="#DejaVuSans-46"/>
     <use xlink:href="#DejaVuSans-61" x="48.394531"/>
     <use xlink:href="#DejaVuSans-73" x="109.673828"/>
     <use xlink:href="#DejaVuSans-74" x="161.773438"/>
     <use xlink:href="#DejaVuSans-20" x="200.982422"/>
     <use xlink:href="#DejaVuSans-70" x="232.769531"/>
     <use xlink:href="#DejaVuSans-61" x="296.246094"/>
     <use xlink:href="#DejaVuSans-74" x="357.525391"/>
     <use xlink:href="#DejaVuSans-68" x="396.734375"/>
     <use xlink:href="#DejaVuSans-73" x="460.113281"/>
    </g>
   </g>
   <g id="legend_1">
    <g id="patch_7">
     <path d="M 97 89.19625 
L 170.2 89.19625 
Q 172.2 89.19625 172.2 87.19625 
L 172.2 58.84 
Q 172.2 56.84 170.2 56.84 
L 97 56.84 
Q 95 56.84 95 58.84 
L 95 87.19625 
Q 95 89.19625 97 89.19625 
z
" style="fill: #ffffff; opacity: 0.8; stroke: #cccccc; stroke-linejoin: miter"/>
    </g>
    <g id="line2d_15">
     <path d="M 99 64.938437 
L 109 64.938437 
L 119 64.938437 
" style="fill: none; stroke: #1f77b4; stroke-width: 0.5; stroke-linecap: square"/>
    </g>
    <g id="text_16">
     <!-- $\alpha=0.38$ -->
     <g transform="translate(127 68.438437) scale(0.1 -0.1)">
      <defs>
       <path id="DejaVuSans-Oblique-3b1" d="M 2619 1628 
L 2622 2350 
Q 2625 3088 2069 3091 
Q 1653 3094 1394 2747 
Q 1069 2319 959 1747 
Q 825 1059 994 731 
Q 1169 397 1547 397 
Q 1966 397 2319 1063 
L 2619 1628 
z
M 2166 3578 
Q 3141 3594 3128 2584 
Q 3128 2584 3616 3500 
L 4128 3500 
L 3119 1603 
L 3109 919 
Q 3109 766 3194 638 
Q 3291 488 3391 488 
L 3669 488 
L 3575 0 
L 3228 0 
Q 2934 0 2722 263 
Q 2622 394 2619 669 
Q 2416 334 2066 50 
Q 1900 -81 1453 -78 
Q 722 -72 456 397 
Q 184 884 353 1747 
Q 534 2675 1009 3097 
Q 1544 3569 2166 3578 
z
" transform="scale(0.015625)"/>
       <path id="DejaVuSans-3d" d="M 678 2906 
L 4684 2906 
L 4684 2381 
L 678 2381 
L 678 2906 
z
M 678 1631 
L 4684 1631 
L 4684 1100 
L 678 1100 
L 678 1631 
z
" transform="scale(0.015625)"/>
      </defs>
      <use xlink:href="#DejaVuSans-Oblique-3b1" transform="translate(0 0.78125)"/>
      <use xlink:href="#DejaVuSans-3d" transform="translate(85.400391 0.78125)"/>
      <use xlink:href="#DejaVuSans-30" transform="translate(188.671875 0.78125)"/>
      <use xlink:href="#DejaVuSans-2e" transform="translate(252.294922 0.78125)"/>
      <use xlink:href="#DejaVuSans-33" transform="translate(284.082031 0.78125)"/>
      <use xlink:href="#DejaVuSans-38" transform="translate(347.705078 0.78125)"/>
     </g>
    </g>
    <g id="line2d_16">
     <path d="M 99 79.616562 
L 109 79.616562 
L 119 79.616562 
" style="fill: none; stroke: #ff7f0e; stroke-width: 0.5; stroke-linecap: square"/>
    </g>
    <g id="text_17">
     <!-- $\alpha=0.02$ -->
     <g transform="translate(127 83.116562) scale(0.1 -0.1)">
      <use xlink:href="#DejaVuSans-Oblique-3b1" transform="translate(0 0.78125)"/>
      <use xlink:href="#DejaVuSans-3d" transform="translate(85.400391 0.78125)"/>
      <use xlink:href="#DejaVuSans-30" transform="translate(188.671875 0.78125)"/>
      <use xlink:href="#DejaVuSans-2e" transform="translate(252.294922 0.78125)"/>
      <use xlink:href="#DejaVuSans-30" transform="translate(284.082031 0.78125)"/>
      <use xlink:href="#DejaVuSans-32" transform="translate(347.705078 0.78125)"/>
     </g>
    </g>
   </g>
  </g>
 </g>
 <defs>
  <clipPath id="p46fca24722">
   <rect x="90" y="51.84" width="558" height="332.64"/>
  </clipPath>
 </defs>
</svg>
