<?xml version="1.0" encoding="utf-8" standalone="no"?>
<!DOCTYPE svg PUBLIC "-//W3C//DTD SVG 1.1//EN"
  "http://www.w3.org/Graphics/SVG/1.1/DTD/svg11.dtd">
<svg xmlns:xlink="http://www.w3.org/1999/xlink" width="720pt" height="432pt" viewBox="0 0 720 432" xmlns="http://www.w3.org/2000/svg" version="1.1">
 <metadata>
  <rdf:RDF xmlns:dc="http://purl.org/dc/elements/1.1/" xmlns:cc="http://creativecommons.org/ns#" xmlns:rdf="http://www.w3.org/1999/02/22-rdf-syntax-ns#">
   <cc:Work>
    <dc:type rdf:resource="http://purl.org/dc/dcmitype/StillImage"/>
    <dc:date>2024-04-19T09:47:33.123773</dc:date>
    <dc:format>image/svg+xml</dc:format>
    <dc:creator>
     <cc:Agent>
      <dc:title>Matplotlib v3.8.0, https://matplotlib.org/</dc:title>
     </cc:Agent>
    </dc:creator>
   </cc:Work>
  </rdf:RDF>
 </metadata>
 <defs>
  <style type="text/css">*{stroke-linejoin: round; stroke-linecap: butt}</style>
 </defs>
 <g id="figure_1">
  <g id="patch_1">
   <path d="M 0 432 
L 720 432 
L 720 0 
L 0 0 
z
" style="fill: #ffffff"/>
  </g>
  <g id="axes_1">
   <g id="patch_2">
    <path d="M 90 384.48 
L 648 384.48 
L 648 51.84 
L 90 51.84 
z
" style="fill: #ffffff"/>
   </g>
   <g id="matplotlib.axis_1">
    <g id="xtick_1">
     <g id="line2d_1">
      <defs>
       <path id="m42103d0c01" d="M 0 0 
L 0 3.5 
" style="stroke: #000000; stroke-width: 0.8"/>
      </defs>
      <g>
       <use xlink:href="#m42103d0c01" x="115.363636" y="384.48" style="stroke: #000000; stroke-width: 0.8"/>
      </g>
     </g>
     <g id="text_1">
      <!-- 0.0 -->
      <g transform="translate(107.412074 399.078438) scale(0.1 -0.1)">
       <defs>
        <path id="DejaVuSans-30" d="M 2034 4250 
Q 1547 4250 1301 3770 
Q 1056 3291 1056 2328 
Q 1056 1369 1301 889 
Q 1547 409 2034 409 
Q 2525 409 2770 889 
Q 3016 1369 3016 2328 
Q 3016 3291 2770 3770 
Q 2525 4250 2034 4250 
z
M 2034 4750 
Q 2819 4750 3233 4129 
Q 3647 3509 3647 2328 
Q 3647 1150 3233 529 
Q 2819 -91 2034 -91 
Q 1250 -91 836 529 
Q 422 1150 422 2328 
Q 422 3509 836 4129 
Q 1250 4750 2034 4750 
z
" transform="scale(0.015625)"/>
        <path id="DejaVuSans-2e" d="M 684 794 
L 1344 794 
L 1344 0 
L 684 0 
L 684 794 
z
" transform="scale(0.015625)"/>
       </defs>
       <use xlink:href="#DejaVuSans-30"/>
       <use xlink:href="#DejaVuSans-2e" x="63.623047"/>
       <use xlink:href="#DejaVuSans-30" x="95.410156"/>
      </g>
     </g>
    </g>
    <g id="xtick_2">
     <g id="line2d_2">
      <g>
       <use xlink:href="#m42103d0c01" x="216.818182" y="384.48" style="stroke: #000000; stroke-width: 0.8"/>
      </g>
     </g>
     <g id="text_2">
      <!-- 0.2 -->
      <g transform="translate(208.866619 399.078438) scale(0.1 -0.1)">
       <defs>
        <path id="DejaVuSans-32" d="M 1228 531 
L 3431 531 
L 3431 0 
L 469 0 
L 469 531 
Q 828 903 1448 1529 
Q 2069 2156 2228 2338 
Q 2531 2678 2651 2914 
Q 2772 3150 2772 3378 
Q 2772 3750 2511 3984 
Q 2250 4219 1831 4219 
Q 1534 4219 1204 4116 
Q 875 4013 500 3803 
L 500 4441 
Q 881 4594 1212 4672 
Q 1544 4750 1819 4750 
Q 2544 4750 2975 4387 
Q 3406 4025 3406 3419 
Q 3406 3131 3298 2873 
Q 3191 2616 2906 2266 
Q 2828 2175 2409 1742 
Q 1991 1309 1228 531 
z
" transform="scale(0.015625)"/>
       </defs>
       <use xlink:href="#DejaVuSans-30"/>
       <use xlink:href="#DejaVuSans-2e" x="63.623047"/>
       <use xlink:href="#DejaVuSans-32" x="95.410156"/>
      </g>
     </g>
    </g>
    <g id="xtick_3">
     <g id="line2d_3">
      <g>
       <use xlink:href="#m42103d0c01" x="318.272727" y="384.48" style="stroke: #000000; stroke-width: 0.8"/>
      </g>
     </g>
     <g id="text_3">
      <!-- 0.4 -->
      <g transform="translate(310.321165 399.078438) scale(0.1 -0.1)">
       <defs>
        <path id="DejaVuSans-34" d="M 2419 4116 
L 825 1625 
L 2419 1625 
L 2419 4116 
z
M 2253 4666 
L 3047 4666 
L 3047 1625 
L 3713 1625 
L 3713 1100 
L 3047 1100 
L 3047 0 
L 2419 0 
L 2419 1100 
L 313 1100 
L 313 1709 
L 2253 4666 
z
" transform="scale(0.015625)"/>
       </defs>
       <use xlink:href="#DejaVuSans-30"/>
       <use xlink:href="#DejaVuSans-2e" x="63.623047"/>
       <use xlink:href="#DejaVuSans-34" x="95.410156"/>
      </g>
     </g>
    </g>
    <g id="xtick_4">
     <g id="line2d_4">
      <g>
       <use xlink:href="#m42103d0c01" x="419.727273" y="384.48" style="stroke: #000000; stroke-width: 0.8"/>
      </g>
     </g>
     <g id="text_4">
      <!-- 0.6 -->
      <g transform="translate(411.77571 399.078438) scale(0.1 -0.1)">
       <defs>
        <path id="DejaVuSans-36" d="M 2113 2584 
Q 1688 2584 1439 2293 
Q 1191 2003 1191 1497 
Q 1191 994 1439 701 
Q 1688 409 2113 409 
Q 2538 409 2786 701 
Q 3034 994 3034 1497 
Q 3034 2003 2786 2293 
Q 2538 2584 2113 2584 
z
M 3366 4563 
L 3366 3988 
Q 3128 4100 2886 4159 
Q 2644 4219 2406 4219 
Q 1781 4219 1451 3797 
Q 1122 3375 1075 2522 
Q 1259 2794 1537 2939 
Q 1816 3084 2150 3084 
Q 2853 3084 3261 2657 
Q 3669 2231 3669 1497 
Q 3669 778 3244 343 
Q 2819 -91 2113 -91 
Q 1303 -91 875 529 
Q 447 1150 447 2328 
Q 447 3434 972 4092 
Q 1497 4750 2381 4750 
Q 2619 4750 2861 4703 
Q 3103 4656 3366 4563 
z
" transform="scale(0.015625)"/>
       </defs>
       <use xlink:href="#DejaVuSans-30"/>
       <use xlink:href="#DejaVuSans-2e" x="63.623047"/>
       <use xlink:href="#DejaVuSans-36" x="95.410156"/>
      </g>
     </g>
    </g>
    <g id="xtick_5">
     <g id="line2d_5">
      <g>
       <use xlink:href="#m42103d0c01" x="521.181818" y="384.48" style="stroke: #000000; stroke-width: 0.8"/>
      </g>
     </g>
     <g id="text_5">
      <!-- 0.8 -->
      <g transform="translate(513.230256 399.078438) scale(0.1 -0.1)">
       <defs>
        <path id="DejaVuSans-38" d="M 2034 2216 
Q 1584 2216 1326 1975 
Q 1069 1734 1069 1313 
Q 1069 891 1326 650 
Q 1584 409 2034 409 
Q 2484 409 2743 651 
Q 3003 894 3003 1313 
Q 3003 1734 2745 1975 
Q 2488 2216 2034 2216 
z
M 1403 2484 
Q 997 2584 770 2862 
Q 544 3141 544 3541 
Q 544 4100 942 4425 
Q 1341 4750 2034 4750 
Q 2731 4750 3128 4425 
Q 3525 4100 3525 3541 
Q 3525 3141 3298 2862 
Q 3072 2584 2669 2484 
Q 3125 2378 3379 2068 
Q 3634 1759 3634 1313 
Q 3634 634 3220 271 
Q 2806 -91 2034 -91 
Q 1263 -91 848 271 
Q 434 634 434 1313 
Q 434 1759 690 2068 
Q 947 2378 1403 2484 
z
M 1172 3481 
Q 1172 3119 1398 2916 
Q 1625 2713 2034 2713 
Q 2441 2713 2670 2916 
Q 2900 3119 2900 3481 
Q 2900 3844 2670 4047 
Q 2441 4250 2034 4250 
Q 1625 4250 1398 4047 
Q 1172 3844 1172 3481 
z
" transform="scale(0.015625)"/>
       </defs>
       <use xlink:href="#DejaVuSans-30"/>
       <use xlink:href="#DejaVuSans-2e" x="63.623047"/>
       <use xlink:href="#DejaVuSans-38" x="95.410156"/>
      </g>
     </g>
    </g>
    <g id="xtick_6">
     <g id="line2d_6">
      <g>
       <use xlink:href="#m42103d0c01" x="622.636364" y="384.48" style="stroke: #000000; stroke-width: 0.8"/>
      </g>
     </g>
     <g id="text_6">
      <!-- 1.0 -->
      <g transform="translate(614.684801 399.078438) scale(0.1 -0.1)">
       <defs>
        <path id="DejaVuSans-31" d="M 794 531 
L 1825 531 
L 1825 4091 
L 703 3866 
L 703 4441 
L 1819 4666 
L 2450 4666 
L 2450 531 
L 3481 531 
L 3481 0 
L 794 0 
L 794 531 
z
" transform="scale(0.015625)"/>
       </defs>
       <use xlink:href="#DejaVuSans-31"/>
       <use xlink:href="#DejaVuSans-2e" x="63.623047"/>
       <use xlink:href="#DejaVuSans-30" x="95.410156"/>
      </g>
     </g>
    </g>
    <g id="text_7">
     <!-- $t$ -->
     <g transform="translate(367 412.756563) scale(0.1 -0.1)">
      <defs>
       <path id="DejaVuSans-Oblique-74" d="M 2706 3500 
L 2619 3053 
L 1472 3053 
L 1100 1153 
Q 1081 1047 1072 975 
Q 1063 903 1063 863 
Q 1063 663 1183 572 
Q 1303 481 1569 481 
L 2150 481 
L 2053 0 
L 1503 0 
Q 991 0 739 200 
Q 488 400 488 806 
Q 488 878 497 964 
Q 506 1050 525 1153 
L 897 3053 
L 409 3053 
L 500 3500 
L 978 3500 
L 1172 4494 
L 1747 4494 
L 1556 3500 
L 2706 3500 
z
" transform="scale(0.015625)"/>
      </defs>
      <use xlink:href="#DejaVuSans-Oblique-74" transform="translate(0 0.78125)"/>
     </g>
    </g>
   </g>
   <g id="matplotlib.axis_2">
    <g id="ytick_1">
     <g id="line2d_7">
      <defs>
       <path id="ma3ab6d79da" d="M 0 0 
L -3.5 0 
" style="stroke: #000000; stroke-width: 0.8"/>
      </defs>
      <g>
       <use xlink:href="#ma3ab6d79da" x="90" y="334.331841" style="stroke: #000000; stroke-width: 0.8"/>
      </g>
     </g>
     <g id="text_8">
      <!-- 0.04 -->
      <g transform="translate(60.734375 338.131059) scale(0.1 -0.1)">
       <use xlink:href="#DejaVuSans-30"/>
       <use xlink:href="#DejaVuSans-2e" x="63.623047"/>
       <use xlink:href="#DejaVuSans-30" x="95.410156"/>
       <use xlink:href="#DejaVuSans-34" x="159.033203"/>
      </g>
     </g>
    </g>
    <g id="ytick_2">
     <g id="line2d_8">
      <g>
       <use xlink:href="#ma3ab6d79da" x="90" y="263.095792" style="stroke: #000000; stroke-width: 0.8"/>
      </g>
     </g>
     <g id="text_9">
      <!-- 0.05 -->
      <g transform="translate(60.734375 266.895011) scale(0.1 -0.1)">
       <defs>
        <path id="DejaVuSans-35" d="M 691 4666 
L 3169 4666 
L 3169 4134 
L 1269 4134 
L 1269 2991 
Q 1406 3038 1543 3061 
Q 1681 3084 1819 3084 
Q 2600 3084 3056 2656 
Q 3513 2228 3513 1497 
Q 3513 744 3044 326 
Q 2575 -91 1722 -91 
Q 1428 -91 1123 -41 
Q 819 9 494 109 
L 494 744 
Q 775 591 1075 516 
Q 1375 441 1709 441 
Q 2250 441 2565 725 
Q 2881 1009 2881 1497 
Q 2881 1984 2565 2268 
Q 2250 2553 1709 2553 
Q 1456 2553 1204 2497 
Q 953 2441 691 2322 
L 691 4666 
z
" transform="scale(0.015625)"/>
       </defs>
       <use xlink:href="#DejaVuSans-30"/>
       <use xlink:href="#DejaVuSans-2e" x="63.623047"/>
       <use xlink:href="#DejaVuSans-30" x="95.410156"/>
       <use xlink:href="#DejaVuSans-35" x="159.033203"/>
      </g>
     </g>
    </g>
    <g id="ytick_3">
     <g id="line2d_9">
      <g>
       <use xlink:href="#ma3ab6d79da" x="90" y="191.859744" style="stroke: #000000; stroke-width: 0.8"/>
      </g>
     </g>
     <g id="text_10">
      <!-- 0.06 -->
      <g transform="translate(60.734375 195.658963) scale(0.1 -0.1)">
       <use xlink:href="#DejaVuSans-30"/>
       <use xlink:href="#DejaVuSans-2e" x="63.623047"/>
       <use xlink:href="#DejaVuSans-30" x="95.410156"/>
       <use xlink:href="#DejaVuSans-36" x="159.033203"/>
      </g>
     </g>
    </g>
    <g id="ytick_4">
     <g id="line2d_10">
      <g>
       <use xlink:href="#ma3ab6d79da" x="90" y="120.623696" style="stroke: #000000; stroke-width: 0.8"/>
      </g>
     </g>
     <g id="text_11">
      <!-- 0.07 -->
      <g transform="translate(60.734375 124.422915) scale(0.1 -0.1)">
       <defs>
        <path id="DejaVuSans-37" d="M 525 4666 
L 3525 4666 
L 3525 4397 
L 1831 0 
L 1172 0 
L 2766 4134 
L 525 4134 
L 525 4666 
z
" transform="scale(0.015625)"/>
       </defs>
       <use xlink:href="#DejaVuSans-30"/>
       <use xlink:href="#DejaVuSans-2e" x="63.623047"/>
       <use xlink:href="#DejaVuSans-30" x="95.410156"/>
       <use xlink:href="#DejaVuSans-37" x="159.033203"/>
      </g>
     </g>
    </g>
    <g id="text_12">
     <!-- $V_t$ -->
     <g transform="translate(54.654688 223.11) rotate(-90) scale(0.1 -0.1)">
      <defs>
       <path id="DejaVuSans-Oblique-56" d="M 1319 0 
L 500 4666 
L 1119 4666 
L 1797 653 
L 4063 4666 
L 4750 4666 
L 2053 0 
L 1319 0 
z
" transform="scale(0.015625)"/>
      </defs>
      <use xlink:href="#DejaVuSans-Oblique-56" transform="translate(0 0.09375)"/>
      <use xlink:href="#DejaVuSans-Oblique-74" transform="translate(68.408203 -16.3125) scale(0.7)"/>
     </g>
    </g>
   </g>
   <g id="line2d_11">
    <path d="M 115.363636 340.030724 
L 115.870909 318.810021 
L 116.378182 329.861154 
L 116.885455 321.051266 
L 117.392727 325.661221 
L 117.9 347.01317 
L 118.407273 348.901353 
L 118.914545 326.754838 
L 119.421818 313.791469 
L 119.929091 316.0406 
L 120.436364 347.457724 
L 120.943636 334.563307 
L 121.450909 331.562235 
L 121.958182 317.260791 
L 122.465455 324.085304 
L 122.972727 337.129467 
L 123.48 318.541987 
L 123.987273 321.029985 
L 124.494545 328.71602 
L 125.001818 315.103298 
L 125.509091 331.849395 
L 126.016364 304.78471 
L 126.523636 302.951466 
L 127.030909 283.616493 
L 127.538182 268.584146 
L 128.045455 280.686142 
L 128.552727 264.060333 
L 129.06 269.481087 
L 129.567273 264.853925 
L 130.581818 240.107369 
L 132.103636 294.916464 
L 132.610909 289.466865 
L 133.118182 311.921117 
L 133.625455 316.808552 
L 134.132727 284.588968 
L 134.64 291.910246 
L 135.147273 295.039787 
L 135.654545 306.404587 
L 136.161818 312.312565 
L 136.669091 306.248616 
L 137.176364 313.385126 
L 137.683636 312.443742 
L 138.190909 308.576044 
L 138.698182 300.903075 
L 139.205455 301.594314 
L 139.712727 324.013364 
L 140.22 311.461348 
L 140.727273 293.824747 
L 141.234545 308.391945 
L 142.249091 321.790437 
L 142.756364 350.330259 
L 143.263636 352.089614 
L 143.770909 336.265928 
L 144.278182 337.050642 
L 144.785455 333.332089 
L 145.292727 331.056774 
L 145.8 325.007656 
L 146.814545 346.898361 
L 147.321818 369.36 
L 148.843636 304.525488 
L 149.350909 326.717365 
L 149.858182 342.696616 
L 150.365455 341.184713 
L 150.872727 336.064358 
L 151.38 343.134316 
L 151.887273 333.294993 
L 152.394545 312.657461 
L 152.901818 308.772222 
L 153.409091 323.965165 
L 153.916364 308.61407 
L 154.423636 324.521374 
L 154.930909 328.421147 
L 155.438182 298.179056 
L 156.452727 335.35926 
L 156.96 338.300693 
L 157.467273 361.25674 
L 157.974545 359.956488 
L 158.481818 350.732652 
L 158.989091 349.166402 
L 159.496364 337.537113 
L 160.003636 350.401639 
L 160.510909 367.589579 
L 161.018182 359.453451 
L 161.525455 367.56046 
L 162.032727 343.025165 
L 162.54 363.593037 
L 163.047273 361.045666 
L 163.554545 359.369455 
L 164.061818 346.468161 
L 164.569091 352.149074 
L 165.076364 341.317632 
L 165.583636 335.15883 
L 166.090909 324.831544 
L 166.598182 319.125602 
L 167.105455 344.72603 
L 167.612727 330.149568 
L 168.12 326.537267 
L 168.627273 333.759599 
L 169.134545 348.095308 
L 169.641818 345.626585 
L 170.149091 347.029957 
L 170.656364 334.994533 
L 171.163636 296.811328 
L 172.178182 287.534317 
L 172.685455 285.486721 
L 173.192727 276.523699 
L 173.7 264.503837 
L 174.714545 309.052396 
L 175.221818 314.834965 
L 175.729091 329.652597 
L 176.236364 315.676605 
L 176.743636 308.261204 
L 177.250909 307.084046 
L 177.758182 291.680517 
L 178.265455 306.611485 
L 178.772727 306.193342 
L 179.28 321.891339 
L 179.787273 299.833846 
L 180.294545 299.48088 
L 180.801818 278.500623 
L 181.309091 284.920207 
L 181.816364 268.079263 
L 182.323636 302.494851 
L 182.830909 292.24615 
L 183.338182 274.239849 
L 183.845455 265.267178 
L 184.352727 261.404331 
L 184.86 266.393185 
L 185.874545 290.656099 
L 186.381818 286.452808 
L 186.889091 279.240681 
L 187.396364 301.95611 
L 187.903636 332.622391 
L 188.410909 323.190162 
L 188.918182 318.510226 
L 189.425455 322.638633 
L 189.932727 312.728772 
L 190.44 288.695 
L 190.947273 305.743952 
L 191.454545 313.939385 
L 191.961818 312.923696 
L 192.469091 332.153609 
L 192.976364 331.959146 
L 193.483636 332.962575 
L 193.990909 345.161449 
L 194.498182 339.209171 
L 195.005455 317.539373 
L 195.512727 321.120489 
L 196.02 327.268652 
L 196.527273 328.493074 
L 197.034545 323.009672 
L 197.541818 319.110342 
L 198.049091 340.100262 
L 198.556364 333.727335 
L 199.063636 289.410057 
L 199.570909 330.899428 
L 200.078182 350.836616 
L 200.585455 322.338614 
L 201.092727 318.304056 
L 201.6 308.864695 
L 202.107273 295.451522 
L 202.614545 307.929883 
L 203.121818 312.896356 
L 203.629091 308.060973 
L 204.136364 298.205273 
L 204.643636 291.108277 
L 205.150909 332.409649 
L 205.658182 305.359133 
L 206.165455 316.220852 
L 206.672727 313.658068 
L 207.18 302.662966 
L 207.687273 310.926273 
L 208.194545 322.507977 
L 208.701818 322.345387 
L 209.209091 313.193829 
L 209.716364 314.877831 
L 210.223636 327.753488 
L 210.730909 317.244451 
L 211.238182 310.044462 
L 211.745455 321.031508 
L 212.252727 323.202775 
L 212.76 339.628012 
L 213.267273 339.56778 
L 213.774545 339.852256 
L 214.281818 345.702407 
L 214.789091 340.695602 
L 215.296364 346.590104 
L 215.803636 341.82682 
L 216.310909 329.548172 
L 216.818182 323.003355 
L 217.325455 331.803483 
L 217.832727 331.506473 
L 218.34 333.55401 
L 218.847273 314.220935 
L 219.861818 322.447476 
L 220.369091 329.553273 
L 220.876364 334.327138 
L 221.383636 343.58768 
L 221.890909 324.432203 
L 222.398182 339.922392 
L 222.905455 337.181063 
L 223.412727 314.597599 
L 223.92 311.567005 
L 224.934545 309.195998 
L 225.441818 297.72988 
L 225.949091 345.905427 
L 226.456364 326.495238 
L 227.470909 321.891836 
L 227.978182 330.420131 
L 228.485455 306.48404 
L 228.992727 334.232968 
L 229.5 323.748035 
L 230.007273 330.692109 
L 230.514545 326.982008 
L 231.021818 339.737636 
L 231.529091 337.816191 
L 232.036364 332.263833 
L 232.543636 332.934783 
L 233.050909 353.392565 
L 233.558182 353.489401 
L 234.065455 328.440457 
L 235.08 369.28888 
L 235.587273 341.261025 
L 236.094545 345.633911 
L 236.601818 326.674416 
L 237.109091 329.633021 
L 237.616364 326.430339 
L 238.123636 319.273336 
L 238.630909 324.63879 
L 239.138182 301.957775 
L 239.645455 310.367865 
L 240.152727 314.752863 
L 240.66 302.329302 
L 241.167273 277.225767 
L 242.181818 243.998605 
L 243.196364 253.6666 
L 243.703636 257.076028 
L 244.210909 272.648372 
L 244.718182 270.382787 
L 245.225455 257.553953 
L 245.732727 234.361047 
L 246.24 219.84561 
L 246.747273 235.228939 
L 247.254545 238.708395 
L 248.269091 216.171844 
L 248.776364 218.414441 
L 249.790909 245.674543 
L 250.298182 212.28873 
L 250.805455 211.101435 
L 251.312727 201.965726 
L 252.327273 238.49171 
L 252.834545 196.967919 
L 253.341818 233.751307 
L 253.849091 219.148717 
L 254.356364 199.87266 
L 254.863636 214.959986 
L 255.370909 199.489957 
L 255.878182 173.800711 
L 256.385455 208.82111 
L 256.892727 214.777878 
L 257.4 213.63886 
L 257.907273 193.966195 
L 258.414545 188.26249 
L 258.921818 199.901287 
L 259.429091 222.19893 
L 259.936364 210.768243 
L 260.443636 211.850037 
L 260.950909 211.124043 
L 261.458182 208.660979 
L 261.965455 238.165294 
L 262.472727 225.298634 
L 262.98 253.042729 
L 263.487273 238.701235 
L 263.994545 234.991412 
L 264.501818 245.38908 
L 265.009091 240.848493 
L 265.516364 240.527633 
L 266.023636 264.022098 
L 266.530909 249.798883 
L 267.038182 249.537759 
L 267.545455 227.9598 
L 268.052727 233.756164 
L 268.56 235.881004 
L 269.574545 233.613312 
L 270.081818 244.577595 
L 270.589091 240.902959 
L 271.096364 229.530091 
L 271.603636 237.542057 
L 272.110909 234.743666 
L 272.618182 221.837853 
L 273.125455 236.093539 
L 273.632727 229.92405 
L 274.14 261.082545 
L 274.647273 221.970527 
L 275.154545 201.582173 
L 275.661818 207.20451 
L 276.169091 185.598975 
L 276.676364 192.799252 
L 277.183636 187.627483 
L 277.690909 190.609615 
L 278.198182 187.567433 
L 278.705455 191.037674 
L 279.212727 184.839719 
L 279.72 166.759424 
L 280.227273 136.542038 
L 280.734545 149.592365 
L 281.749091 121.131617 
L 282.763636 145.470963 
L 283.270909 152.355532 
L 284.285455 125.387816 
L 284.792727 132.838694 
L 285.3 123.86473 
L 285.807273 128.762835 
L 286.314545 135.514269 
L 286.821818 147.935787 
L 287.329091 164.293883 
L 287.836364 163.230752 
L 288.343636 161.044777 
L 288.850909 147.260892 
L 289.358182 139.898038 
L 289.865455 141.964444 
L 290.372727 177.491808 
L 290.88 162.821415 
L 291.387273 171.188666 
L 291.894545 174.187449 
L 292.909091 206.237747 
L 293.416364 171.009247 
L 293.923636 173.569144 
L 294.430909 173.727382 
L 294.938182 188.56388 
L 295.445455 195.626743 
L 295.952727 179.778191 
L 296.46 190.368796 
L 296.967273 149.683292 
L 297.981818 128.850319 
L 298.489091 175.329826 
L 298.996364 150.984236 
L 299.503636 152.008334 
L 300.518182 163.637752 
L 301.025455 134.899191 
L 301.532727 126.538511 
L 302.04 169.088197 
L 302.547273 160.437468 
L 303.054545 138.735665 
L 303.561818 130.15494 
L 304.069091 166.783823 
L 304.576364 176.2117 
L 305.083636 191.684429 
L 305.590909 195.20863 
L 306.098182 169.880108 
L 306.605455 176.601647 
L 307.112727 169.168377 
L 307.62 193.552385 
L 308.127273 211.027753 
L 308.634545 192.585135 
L 309.141818 190.788211 
L 309.649091 219.291944 
L 310.156364 216.345402 
L 310.663636 199.523764 
L 311.170909 189.044325 
L 311.678182 194.261024 
L 312.185455 172.01443 
L 312.692727 186.774349 
L 313.2 159.907748 
L 313.707273 152.204239 
L 314.214545 158.462484 
L 314.721818 191.395912 
L 315.229091 189.892142 
L 315.736364 181.206881 
L 316.243636 167.803236 
L 316.750909 197.654861 
L 317.258182 171.699487 
L 317.765455 174.557007 
L 318.272727 192.384536 
L 318.78 192.975431 
L 319.287273 184.32522 
L 319.794545 171.244986 
L 320.301818 176.017335 
L 320.809091 173.809949 
L 321.316364 160.197777 
L 321.823636 168.370489 
L 322.330909 149.347392 
L 322.838182 135.592842 
L 323.345455 128.961963 
L 323.852727 113.125971 
L 324.36 138.325985 
L 324.867273 145.976948 
L 325.374545 171.242756 
L 325.881818 161.755504 
L 326.389091 175.185353 
L 326.896364 127.900773 
L 327.403636 153.199316 
L 327.910909 155.536252 
L 328.418182 160.019136 
L 328.925455 130.296809 
L 329.432727 139.327289 
L 329.94 162.308432 
L 330.447273 160.816455 
L 330.954545 141.832129 
L 331.461818 154.401465 
L 331.969091 133.026904 
L 332.476364 137.11378 
L 332.983636 132.504656 
L 333.490909 141.020053 
L 333.998182 168.887491 
L 334.505455 154.642131 
L 335.52 195.579933 
L 336.027273 201.567496 
L 336.534545 161.779991 
L 337.041818 172.522793 
L 337.549091 148.864992 
L 338.056364 175.843397 
L 338.563636 183.398992 
L 339.070909 177.385638 
L 339.578182 155.668988 
L 340.085455 174.676871 
L 340.592727 199.271585 
L 341.1 207.895478 
L 341.607273 179.707322 
L 342.114545 201.001665 
L 342.621818 190.020328 
L 343.129091 197.674945 
L 344.143636 152.427544 
L 344.650909 159.567465 
L 345.158182 156.742755 
L 345.665455 139.716768 
L 346.172727 108.801083 
L 346.68 98.140693 
L 347.187273 146.486208 
L 347.694545 142.301615 
L 348.201818 103.689732 
L 348.709091 94.775827 
L 349.216364 100.603647 
L 349.723636 66.96 
L 350.230909 74.380157 
L 350.738182 118.920483 
L 351.245455 149.071629 
L 351.752727 150.959336 
L 352.26 146.496307 
L 352.767273 131.79144 
L 353.274545 152.627068 
L 353.781818 145.269885 
L 354.289091 152.450738 
L 355.303636 121.394289 
L 355.810909 105.308232 
L 356.318182 148.85305 
L 356.825455 180.198604 
L 357.332727 193.797388 
L 357.84 190.946684 
L 358.347273 186.715369 
L 358.854545 168.227694 
L 359.361818 172.010494 
L 359.869091 204.613568 
L 360.376364 214.000892 
L 360.883636 168.529236 
L 361.390909 171.665362 
L 361.898182 190.335204 
L 362.405455 165.099256 
L 362.912727 195.346966 
L 364.434545 210.029811 
L 364.941818 200.909505 
L 365.449091 211.875364 
L 365.956364 200.048498 
L 366.463636 234.73757 
L 366.970909 220.756523 
L 367.478182 235.977276 
L 367.985455 206.352553 
L 368.492727 213.619629 
L 369 274.90299 
L 369.507273 284.13498 
L 370.014545 267.136103 
L 370.521818 242.083625 
L 371.029091 259.655553 
L 372.043636 271.20912 
L 372.550909 251.852092 
L 373.058182 261.154618 
L 373.565455 249.227295 
L 374.072727 264.165752 
L 374.58 238.979323 
L 375.087273 240.999487 
L 375.594545 234.9632 
L 376.101818 236.935241 
L 377.116364 234.936407 
L 377.623636 246.014981 
L 378.130909 246.271657 
L 379.145455 227.463149 
L 379.652727 209.133388 
L 380.16 210.437248 
L 380.667273 252.406381 
L 381.174545 234.099727 
L 381.681818 251.757474 
L 382.189091 241.969391 
L 382.696364 242.421807 
L 383.203636 246.67829 
L 383.710909 197.729012 
L 384.218182 195.447054 
L 384.725455 220.677249 
L 385.232727 231.750834 
L 385.74 200.648864 
L 386.247273 199.294615 
L 386.754545 220.66088 
L 387.261818 224.511279 
L 387.769091 250.766403 
L 388.276364 283.678083 
L 388.783636 280.899406 
L 389.290909 254.492612 
L 389.798182 219.651397 
L 390.305455 206.258097 
L 390.812727 205.853114 
L 391.32 197.651195 
L 391.827273 186.406519 
L 392.841818 174.529491 
L 393.349091 173.712813 
L 393.856364 211.435186 
L 394.363636 209.325357 
L 394.870909 184.7949 
L 395.378182 196.159513 
L 395.885455 214.557502 
L 396.9 211.282286 
L 397.407273 201.461862 
L 397.914545 195.503377 
L 398.421818 205.768272 
L 398.929091 201.409995 
L 399.436364 200.237977 
L 399.943636 194.393093 
L 400.450909 208.785918 
L 400.958182 173.314042 
L 401.972727 243.600831 
L 402.48 216.183974 
L 402.987273 210.378581 
L 403.494545 185.480913 
L 404.001818 201.193898 
L 404.509091 206.57586 
L 405.016364 217.197399 
L 405.523636 221.528669 
L 406.030909 209.035466 
L 406.538182 219.65638 
L 407.045455 209.092352 
L 407.552727 207.623412 
L 408.06 224.288666 
L 408.567273 229.851714 
L 409.074545 211.571751 
L 409.581818 203.562101 
L 410.596364 169.346299 
L 411.103636 175.534761 
L 411.610909 177.556878 
L 412.625455 190.818958 
L 413.132727 166.048553 
L 413.64 209.409387 
L 414.147273 236.231969 
L 414.654545 250.462256 
L 415.161818 248.04223 
L 415.669091 239.248973 
L 416.176364 262.807158 
L 416.683636 278.873555 
L 417.190909 273.59307 
L 417.698182 263.922368 
L 418.205455 286.576165 
L 418.712727 278.264759 
L 419.22 227.531282 
L 419.727273 237.199119 
L 420.234545 220.870104 
L 420.741818 217.605329 
L 421.249091 204.946828 
L 421.756364 212.808642 
L 422.770909 183.390425 
L 423.278182 226.461887 
L 423.785455 244.500089 
L 424.292727 242.386739 
L 425.307273 213.156378 
L 425.814545 213.767064 
L 426.321818 212.188578 
L 426.829091 174.498022 
L 427.336364 206.285176 
L 427.843636 187.556541 
L 428.350909 230.539633 
L 428.858182 250.717156 
L 429.365455 228.575176 
L 429.872727 182.391139 
L 430.38 148.771792 
L 430.887273 173.482006 
L 431.394545 177.903024 
L 431.901818 191.194561 
L 432.409091 176.127925 
L 432.916364 151.460071 
L 433.423636 140.733596 
L 433.930909 142.162371 
L 434.438182 98.962374 
L 434.945455 128.47098 
L 435.452727 136.971595 
L 435.96 151.197236 
L 436.467273 146.934573 
L 436.974545 140.074474 
L 438.496364 201.122848 
L 439.003636 169.558172 
L 439.510909 169.530978 
L 440.018182 152.725058 
L 440.525455 150.099592 
L 441.032727 164.965151 
L 441.54 173.338054 
L 442.047273 174.918898 
L 442.554545 172.902484 
L 443.061818 184.304836 
L 443.569091 183.886167 
L 444.076364 180.270896 
L 444.583636 158.992405 
L 445.090909 154.458493 
L 445.598182 165.930696 
L 446.105455 158.085452 
L 446.612727 156.93383 
L 447.12 164.755219 
L 447.627273 162.299118 
L 448.134545 141.628175 
L 449.149091 109.475105 
L 449.656364 151.761036 
L 450.163636 141.198329 
L 450.670909 153.439879 
L 451.178182 160.205734 
L 451.685455 194.322492 
L 452.192727 214.91501 
L 452.7 188.112088 
L 453.207273 179.603011 
L 453.714545 194.20399 
L 454.221818 179.921706 
L 454.729091 180.068046 
L 455.236364 162.631994 
L 455.743636 151.190326 
L 456.250909 149.521689 
L 456.758182 151.34082 
L 457.265455 146.495381 
L 457.772727 125.876487 
L 458.28 141.018605 
L 458.787273 136.400907 
L 459.294545 145.469101 
L 459.801818 147.268084 
L 460.309091 117.794718 
L 460.816364 123.907012 
L 461.323636 123.524976 
L 461.830909 134.089271 
L 462.338182 127.908941 
L 462.845455 116.665221 
L 463.352727 129.710725 
L 463.86 112.249186 
L 464.367273 138.917322 
L 464.874545 158.741685 
L 465.381818 118.653502 
L 465.889091 108.381884 
L 466.396364 125.780333 
L 467.410909 100.902253 
L 467.918182 77.89521 
L 468.425455 73.906784 
L 468.932727 83.856377 
L 469.44 99.806598 
L 469.947273 105.638311 
L 470.454545 107.214056 
L 471.469091 144.378042 
L 471.976364 158.748608 
L 472.990909 113.638449 
L 473.498182 138.008126 
L 474.512727 106.827855 
L 475.02 100.710644 
L 475.527273 134.185852 
L 476.034545 151.79883 
L 476.541818 136.233816 
L 477.049091 146.314083 
L 477.556364 146.357055 
L 478.063636 139.479487 
L 478.570909 138.070581 
L 479.078182 130.805759 
L 479.585455 145.653843 
L 480.092727 171.609949 
L 480.6 174.452765 
L 481.107273 193.919863 
L 481.614545 178.367928 
L 482.121818 150.643115 
L 482.629091 145.301094 
L 483.136364 138.264803 
L 484.150909 167.843424 
L 484.658182 206.404198 
L 485.165455 200.841502 
L 485.672727 213.514878 
L 486.18 170.243683 
L 486.687273 142.044312 
L 487.194545 160.776099 
L 487.701818 150.937803 
L 488.209091 145.386837 
L 488.716364 127.701181 
L 489.223636 142.700467 
L 489.730909 181.031759 
L 490.238182 158.813505 
L 490.745455 187.136533 
L 491.252727 186.316464 
L 491.76 198.82244 
L 492.267273 184.019845 
L 492.774545 197.942513 
L 493.281818 195.068785 
L 493.789091 213.137413 
L 494.296364 214.216795 
L 494.803636 225.771673 
L 495.310909 215.318999 
L 496.325455 238.05069 
L 497.34 200.76747 
L 497.847273 232.239831 
L 498.354545 255.191846 
L 498.861818 256.14088 
L 499.369091 259.137277 
L 499.876364 268.999471 
L 500.383636 252.265698 
L 500.890909 216.399924 
L 501.398182 228.109018 
L 501.905455 242.872454 
L 502.412727 209.027053 
L 502.92 227.752002 
L 503.427273 184.228569 
L 503.934545 165.623605 
L 504.441818 157.585403 
L 504.949091 167.921734 
L 505.456364 194.750253 
L 505.963636 166.271039 
L 506.470909 145.912172 
L 506.978182 141.822724 
L 507.485455 150.877492 
L 508.5 163.919309 
L 509.007273 150.349923 
L 510.021818 190.501868 
L 510.529091 197.732734 
L 511.543636 166.396746 
L 512.050909 171.13659 
L 512.558182 157.558924 
L 513.572727 167.392176 
L 514.08 195.044721 
L 514.587273 230.797164 
L 515.094545 226.743276 
L 515.601818 229.977326 
L 516.109091 222.124025 
L 516.616364 220.962294 
L 517.123636 206.319164 
L 517.630909 203.909257 
L 518.138182 212.732396 
L 518.645455 215.130305 
L 519.152727 233.191161 
L 519.66 218.146058 
L 520.167273 213.69344 
L 520.674545 216.756973 
L 521.181818 208.667797 
L 521.689091 208.681987 
L 522.703636 237.535248 
L 523.210909 240.002377 
L 523.718182 216.966346 
L 524.225455 250.521649 
L 524.732727 254.179812 
L 525.24 240.531461 
L 525.747273 262.296163 
L 526.254545 252.314256 
L 527.269091 223.831785 
L 527.776364 217.708358 
L 528.283636 207.450362 
L 528.790909 193.868427 
L 529.805455 263.130773 
L 530.312727 258.470488 
L 530.82 275.541642 
L 531.327273 281.017085 
L 531.834545 262.276151 
L 532.341818 271.781099 
L 532.849091 276.903273 
L 533.356364 259.723572 
L 533.863636 211.697468 
L 534.370909 207.997008 
L 534.878182 228.638983 
L 535.385455 224.724188 
L 535.892727 213.003377 
L 536.4 224.681455 
L 536.907273 206.292514 
L 537.414545 216.47313 
L 537.921818 242.79632 
L 538.429091 236.65473 
L 538.936364 205.290577 
L 539.443636 201.350067 
L 539.950909 211.429294 
L 540.458182 217.128933 
L 540.965455 200.253695 
L 541.472727 203.867579 
L 541.98 199.387374 
L 542.487273 202.600058 
L 542.994545 220.842256 
L 543.501818 206.924621 
L 544.009091 200.705921 
L 544.516364 204.514712 
L 545.530909 153.209044 
L 546.038182 169.256886 
L 546.545455 177.62634 
L 547.052727 193.563085 
L 547.56 201.179017 
L 548.067273 170.453504 
L 548.574545 185.849739 
L 549.081818 179.58986 
L 549.589091 178.651922 
L 550.096364 162.154212 
L 550.603636 140.724937 
L 551.110909 125.050058 
L 551.618182 183.238558 
L 552.125455 194.726117 
L 552.632727 193.008455 
L 553.14 166.40116 
L 553.647273 180.543425 
L 554.154545 189.367736 
L 554.661818 190.314609 
L 555.169091 188.934891 
L 555.676364 151.678652 
L 556.183636 141.649123 
L 556.690909 139.877158 
L 557.198182 159.251047 
L 557.705455 153.14949 
L 558.212727 139.794383 
L 558.72 139.182256 
L 559.227273 154.311226 
L 559.734545 149.376962 
L 560.749091 124.800139 
L 561.763636 160.050068 
L 562.270909 173.214785 
L 562.778182 153.362293 
L 563.285455 139.409058 
L 563.792727 155.469584 
L 564.3 166.58472 
L 564.807273 145.643658 
L 565.314545 165.707548 
L 565.821818 159.668493 
L 566.329091 144.007117 
L 566.836364 137.984571 
L 567.343636 150.427262 
L 567.850909 141.248847 
L 568.358182 138.032512 
L 568.865455 127.203673 
L 569.372727 130.25754 
L 569.88 145.94095 
L 570.387273 169.754966 
L 570.894545 154.002076 
L 571.401818 142.062309 
L 571.909091 119.884388 
L 572.923636 110.649735 
L 573.430909 93.288526 
L 573.938182 118.609778 
L 574.952727 142.78498 
L 575.46 121.85691 
L 575.967273 122.970713 
L 576.474545 123.415649 
L 576.981818 123.710153 
L 577.489091 109.832294 
L 577.996364 87.786004 
L 578.503636 119.189981 
L 579.010909 101.596249 
L 579.518182 75.779647 
L 580.025455 109.656887 
L 580.532727 112.873473 
L 581.04 126.575675 
L 581.547273 148.515579 
L 582.054545 120.965153 
L 582.561818 136.381456 
L 583.069091 116.770764 
L 583.576364 134.684595 
L 584.083636 126.799274 
L 584.590909 136.677419 
L 585.098182 115.816998 
L 585.605455 156.373486 
L 586.112727 179.369892 
L 586.62 176.683845 
L 587.127273 179.104449 
L 587.634545 192.868308 
L 588.141818 157.435965 
L 588.649091 178.941765 
L 589.156364 185.111534 
L 589.663636 230.576894 
L 590.170909 205.509208 
L 590.678182 199.950705 
L 591.185455 199.624988 
L 591.692727 227.597658 
L 592.2 196.850731 
L 592.707273 180.606791 
L 593.214545 144.624541 
L 593.721818 138.359564 
L 594.229091 139.189055 
L 594.736364 144.746723 
L 595.243636 151.782513 
L 595.750909 131.426317 
L 596.258182 170.832585 
L 596.765455 157.916579 
L 597.272727 164.828001 
L 597.78 157.930003 
L 598.287273 128.520022 
L 598.794545 129.111037 
L 599.301818 160.71267 
L 600.316364 123.42936 
L 600.823636 98.613109 
L 601.330909 108.741675 
L 602.345455 149.155993 
L 602.852727 156.379285 
L 603.36 208.471567 
L 603.867273 216.841612 
L 604.374545 202.707107 
L 605.389091 183.573522 
L 605.896364 147.215831 
L 606.403636 164.208091 
L 607.418182 181.242138 
L 607.925455 175.680227 
L 608.432727 159.230077 
L 608.94 188.822815 
L 609.447273 206.398945 
L 609.954545 196.646696 
L 610.461818 193.135661 
L 610.969091 186.12073 
L 611.476364 188.091019 
L 611.983636 205.532269 
L 612.490909 196.998602 
L 613.505455 223.820134 
L 614.012727 221.238984 
L 615.027273 181.004612 
L 615.534545 160.599078 
L 616.041818 174.954047 
L 616.549091 174.688417 
L 617.056364 171.088623 
L 617.563636 158.279668 
L 618.578182 201.555384 
L 619.085455 190.61397 
L 619.592727 171.611203 
L 620.1 193.752614 
L 620.607273 172.439434 
L 621.114545 184.008531 
L 621.621818 185.976047 
L 622.129091 206.002128 
L 622.636364 186.345292 
L 622.636364 186.345292 
" clip-path="url(#p2919f5237b)" style="fill: none; stroke: #1f77b4; stroke-width: 0.5; stroke-linecap: square"/>
   </g>
   <g id="line2d_12">
    <path d="M 115.363636 340.030724 
L 115.870909 337.564474 
L 116.378182 338.294694 
L 116.885455 337.16846 
L 117.392727 337.364368 
L 117.9 339.617999 
L 118.407273 340.208775 
L 118.914545 337.923463 
L 119.421818 336.162859 
L 119.929091 335.900153 
L 120.436364 339.049282 
L 120.943636 337.999172 
L 121.450909 337.657677 
L 121.958182 335.955236 
L 122.465455 336.325564 
L 122.972727 337.647142 
L 123.48 335.681797 
L 123.987273 335.634693 
L 124.494545 336.298349 
L 125.001818 334.75772 
L 125.509091 336.289416 
L 126.016364 333.317257 
L 126.523636 332.560286 
L 127.538182 327.533694 
L 128.045455 327.819608 
L 128.552727 325.482161 
L 129.06 325.184916 
L 129.567273 324.068576 
L 130.581818 319.949885 
L 131.596364 322.011704 
L 132.103636 324.066323 
L 132.610909 323.711157 
L 133.118182 326.134928 
L 133.625455 327.133445 
L 134.132727 323.897052 
L 134.64 324.241571 
L 135.147273 324.396778 
L 135.654545 325.540412 
L 136.161818 326.346768 
L 136.669091 325.882435 
L 137.176364 326.680922 
L 137.683636 326.733181 
L 138.190909 326.383927 
L 138.698182 325.494162 
L 139.205455 325.364404 
L 139.712727 327.696912 
L 140.22 326.656795 
L 140.727273 324.658755 
L 141.234545 325.839029 
L 142.249091 327.490485 
L 142.756364 330.995996 
L 143.263636 332.106269 
L 143.770909 330.951509 
L 144.278182 331.239925 
L 145.292727 330.875146 
L 145.8 330.24159 
L 146.307273 331.407335 
L 146.814545 332.91821 
L 147.321818 336.030965 
L 147.829091 334.342628 
L 148.843636 329.119245 
L 149.858182 332.76952 
L 150.365455 332.985388 
L 150.872727 332.643404 
L 151.38 333.546661 
L 151.887273 332.651477 
L 152.394545 330.245672 
L 152.901818 329.332606 
L 153.409091 330.582754 
L 153.916364 328.84013 
L 154.423636 330.236777 
L 154.930909 330.752335 
L 155.438182 327.40599 
L 155.945455 328.709233 
L 156.452727 330.854927 
L 156.96 331.582025 
L 157.467273 334.600858 
L 157.974545 335.295422 
L 158.481818 334.812101 
L 158.989091 334.911352 
L 159.496364 333.765612 
L 160.003636 335.189967 
L 160.510909 337.528715 
L 161.018182 337.2387 
L 161.525455 338.566828 
L 162.032727 336.11603 
L 162.54 338.356302 
L 163.554545 338.609367 
L 164.061818 337.304858 
L 164.569091 337.877945 
L 165.076364 336.708867 
L 165.583636 335.841781 
L 166.090909 334.417076 
L 166.598182 333.362893 
L 167.105455 335.800754 
L 167.612727 334.357664 
L 168.12 333.770778 
L 168.627273 334.372853 
L 169.134545 336.018034 
L 169.641818 336.062705 
L 170.149091 336.414043 
L 170.656364 335.187923 
L 171.163636 330.656334 
L 172.178182 327.871723 
L 172.685455 326.889104 
L 173.192727 325.240875 
L 173.7 323.178634 
L 174.207273 324.525408 
L 174.714545 326.695709 
L 175.221818 327.525953 
L 175.729091 329.391755 
L 176.236364 328.237546 
L 176.743636 327.382683 
L 177.250909 327.05646 
L 177.758182 325.151464 
L 178.265455 326.269479 
L 178.772727 326.144635 
L 179.28 327.782917 
L 179.787273 325.51978 
L 180.294545 325.130867 
L 180.801818 322.525116 
L 181.309091 322.50552 
L 181.816364 320.243242 
L 182.323636 323.150486 
L 182.830909 322.148068 
L 183.338182 319.96924 
L 183.845455 318.410346 
L 184.352727 317.309137 
L 184.86 317.168728 
L 185.367273 317.973947 
L 185.874545 319.1212 
L 186.381818 318.72057 
L 186.889091 317.817602 
L 187.396364 319.985609 
L 187.903636 323.6672 
L 188.918182 323.342589 
L 189.425455 324.032151 
L 189.932727 323.1766 
L 190.44 320.449675 
L 190.947273 321.780207 
L 191.454545 322.684588 
L 191.961818 322.730281 
L 192.469091 324.992587 
L 193.483636 326.008608 
L 193.990909 327.77434 
L 194.498182 327.662782 
L 195.005455 325.449071 
L 195.512727 325.629293 
L 196.02 326.281565 
L 196.527273 326.547296 
L 197.541818 325.584023 
L 198.049091 327.883786 
L 198.556364 327.585802 
L 199.063636 322.616972 
L 199.570909 326.297504 
L 200.078182 328.945255 
L 200.585455 326.268728 
L 201.092727 325.666537 
L 201.6 324.419883 
L 202.107273 322.575425 
L 202.614545 323.390324 
L 203.121818 323.79042 
L 203.629091 323.207827 
L 204.643636 320.77692 
L 205.150909 324.850226 
L 205.658182 322.290074 
L 206.165455 323.2729 
L 206.672727 323.052985 
L 207.18 321.784622 
L 207.687273 322.426136 
L 208.194545 323.702547 
L 208.701818 323.915646 
L 209.209091 323.021561 
L 209.716364 323.112264 
L 210.223636 324.540419 
L 211.238182 322.736364 
L 211.745455 323.778306 
L 212.252727 324.136826 
L 212.76 326.152456 
L 213.774545 327.064516 
L 214.281818 328.075961 
L 214.789091 327.903625 
L 215.296364 328.826324 
L 215.803636 328.620528 
L 216.310909 327.363577 
L 216.818182 326.491479 
L 217.325455 327.288647 
L 217.832727 327.322894 
L 218.34 327.611629 
L 218.847273 325.46026 
L 219.354545 325.568805 
L 219.861818 325.846812 
L 220.876364 327.292903 
L 221.383636 328.578042 
L 221.890909 326.701569 
L 222.398182 328.318382 
L 222.905455 328.272314 
L 223.412727 325.781163 
L 223.92 325.034805 
L 224.934545 324.100666 
L 225.441818 322.531735 
L 225.949091 327.364954 
L 226.456364 325.814437 
L 227.470909 325.338781 
L 227.978182 326.259188 
L 228.485455 323.646144 
L 228.992727 326.313279 
L 229.5 325.418176 
L 230.007273 326.195666 
L 230.514545 325.920574 
L 231.021818 327.421385 
L 231.529091 327.536981 
L 232.036364 327.103823 
L 232.543636 327.22913 
L 233.050909 329.68044 
L 233.558182 330.276859 
L 234.065455 327.731222 
L 234.572727 329.726898 
L 235.08 332.627958 
L 235.587273 330.013076 
L 236.094545 330.480433 
L 236.601818 328.36286 
L 237.109091 328.374892 
L 237.616364 327.853799 
L 238.123636 326.847651 
L 238.630909 327.15145 
L 239.138182 324.439096 
L 240.152727 324.954224 
L 240.66 323.393041 
L 241.674545 317.385668 
L 242.181818 314.61532 
L 242.689091 313.894215 
L 243.703636 313.123455 
L 244.210909 314.187668 
L 244.718182 313.726962 
L 245.225455 312.027077 
L 246.24 306.44363 
L 246.747273 306.860013 
L 247.254545 306.553857 
L 248.269091 302.886914 
L 248.776364 302.181447 
L 249.283636 302.814661 
L 249.790909 303.786866 
L 250.298182 300.089552 
L 250.805455 299.035187 
L 251.312727 297.277358 
L 251.82 298.075865 
L 252.327273 299.613653 
L 252.834545 295.158842 
L 253.341818 297.837534 
L 253.849091 296.19057 
L 254.356364 293.682395 
L 254.863636 294.333528 
L 255.370909 292.281097 
L 255.878182 288.892308 
L 256.385455 291.159895 
L 256.892727 291.451949 
L 257.4 291.07605 
L 257.907273 288.701384 
L 258.414545 287.358767 
L 258.921818 287.744429 
L 259.429091 289.556912 
L 259.936364 288.355824 
L 260.443636 288.112579 
L 260.950909 287.704186 
L 261.458182 287.09444 
L 261.965455 289.745939 
L 262.472727 288.620019 
L 262.98 291.371353 
L 263.487273 290.238865 
L 263.994545 289.78752 
L 264.501818 290.74082 
L 265.009091 290.327386 
L 265.516364 290.209417 
L 266.023636 292.627633 
L 266.530909 291.478725 
L 267.038182 291.410435 
L 267.545455 289.019281 
L 268.052727 289.101304 
L 268.56 289.024769 
L 269.574545 288.306644 
L 270.081818 289.2159 
L 270.589091 288.814937 
L 271.096364 287.456663 
L 271.603636 287.91727 
L 272.110909 287.455278 
L 272.618182 285.840384 
L 273.125455 286.840807 
L 273.632727 286.058766 
L 274.14 289.092493 
L 274.647273 285.204908 
L 275.154545 282.46258 
L 275.661818 282.143756 
L 276.169091 279.274546 
L 276.676364 279.016534 
L 277.183636 277.793993 
L 277.690909 277.364696 
L 278.198182 276.45072 
L 278.705455 276.179372 
L 279.212727 275.030296 
L 279.72 272.554811 
L 280.227273 268.567315 
L 280.734545 268.438247 
L 281.749091 263.52595 
L 282.256364 263.415737 
L 282.763636 263.728619 
L 283.270909 263.805389 
L 284.285455 259.819255 
L 284.792727 259.552505 
L 285.3 257.912065 
L 285.807273 257.495697 
L 286.314545 257.43144 
L 286.821818 258.096659 
L 287.329091 259.416985 
L 287.836364 259.261007 
L 288.343636 258.856456 
L 289.358182 255.830199 
L 289.865455 255.348672 
L 290.372727 258.339521 
L 290.88 257.007079 
L 291.387273 257.589236 
L 291.894545 257.786026 
L 292.909091 261.245687 
L 293.416364 257.905864 
L 294.430909 257.364113 
L 294.938182 258.594307 
L 295.445455 259.362123 
L 295.952727 257.789271 
L 296.46 258.583926 
L 296.967273 254.237993 
L 297.981818 250.220091 
L 298.489091 253.836235 
L 298.996364 251.374908 
L 299.503636 250.908623 
L 300.518182 251.267565 
L 301.025455 248.053187 
L 301.532727 246.348215 
L 302.04 249.708073 
L 302.547273 248.904715 
L 303.054545 246.43275 
L 303.561818 244.855675 
L 304.069091 247.756569 
L 304.576364 248.812526 
L 305.083636 250.59382 
L 305.590909 251.349603 
L 306.098182 248.939832 
L 306.605455 249.285409 
L 307.112727 248.349356 
L 308.127273 252.694709 
L 308.634545 251.212149 
L 309.141818 250.972933 
L 309.649091 253.929495 
L 310.156364 254.167253 
L 311.170909 251.403083 
L 311.678182 251.63569 
L 312.185455 249.110281 
L 312.692727 250.041573 
L 313.2 247.002631 
L 313.707273 245.444181 
L 314.214545 245.304132 
L 314.721818 248.185061 
L 315.229091 248.247323 
L 315.736364 247.369249 
L 316.243636 245.7415 
L 316.750909 248.381117 
L 317.258182 245.815341 
L 317.765455 245.66854 
L 318.272727 247.23361 
L 318.78 247.395435 
L 319.287273 246.497437 
L 319.794545 244.896368 
L 320.301818 244.925008 
L 320.809091 244.39384 
L 321.316364 242.628013 
L 321.823636 242.8865 
L 322.838182 238.400966 
L 323.345455 236.819828 
L 323.852727 234.303561 
L 324.36 235.727391 
L 324.867273 236.07461 
L 325.374545 238.389632 
L 325.881818 237.585584 
L 326.389091 238.846585 
L 326.896364 233.915852 
L 327.403636 235.515797 
L 327.910909 235.490848 
L 328.418182 235.718474 
L 328.925455 232.42429 
L 329.432727 232.526274 
L 329.94 234.397492 
L 330.447273 234.259522 
L 330.954545 232.148562 
L 331.461818 232.896971 
L 331.969091 230.436345 
L 332.476364 230.166704 
L 332.983636 229.180755 
L 333.490909 229.489995 
L 333.998182 232.046771 
L 334.505455 230.781625 
L 335.012727 232.571032 
L 335.52 235.138178 
L 336.027273 236.395114 
L 336.534545 232.563067 
L 337.041818 233.220802 
L 337.549091 230.557707 
L 338.056364 232.743189 
L 338.563636 233.62307 
L 339.070909 233.136439 
L 339.578182 230.748643 
L 340.085455 232.214103 
L 340.592727 234.832459 
L 341.1 236.274557 
L 341.607273 233.678227 
L 342.114545 235.728623 
L 342.621818 234.8165 
L 343.129091 235.612573 
L 343.636364 233.48587 
L 344.143636 230.473946 
L 344.650909 230.410426 
L 345.158182 229.617182 
L 345.665455 227.324751 
L 346.172727 223.309676 
L 346.68 220.926193 
L 347.187273 224.508024 
L 347.694545 223.978718 
L 348.201818 219.634959 
L 348.709091 217.60674 
L 349.216364 217.070437 
L 349.723636 212.803786 
L 350.230909 212.087298 
L 351.245455 218.47454 
L 351.752727 219.10938 
L 352.26 218.879469 
L 352.767273 217.327752 
L 353.274545 219.133891 
L 353.781818 218.463253 
L 354.289091 219.082331 
L 355.303636 215.361311 
L 355.810909 213.029294 
L 356.825455 220.09935 
L 357.332727 222.336238 
L 357.84 222.837241 
L 358.347273 222.898191 
L 358.854545 221.168926 
L 359.361818 221.40678 
L 359.869091 224.912084 
L 360.376364 226.688065 
L 360.883636 222.296173 
L 361.390909 222.18567 
L 361.898182 223.96961 
L 362.405455 221.415414 
L 362.912727 224.27158 
L 364.434545 227.080944 
L 364.941818 226.47315 
L 365.449091 227.820552 
L 365.956364 226.861723 
L 366.463636 230.753695 
L 366.970909 230.014247 
L 367.478182 232.089965 
L 367.985455 229.336841 
L 368.492727 229.999895 
L 369 237.019374 
L 369.507273 239.799698 
L 370.014545 239.255778 
L 370.521818 237.066462 
L 371.029091 239.209359 
L 372.043636 241.889801 
L 372.550909 240.331054 
L 373.058182 241.599947 
L 373.565455 240.648136 
L 374.072727 242.514781 
L 374.58 240.064909 
L 375.087273 240.149467 
L 375.594545 239.45248 
L 376.101818 239.573977 
L 377.116364 239.340705 
L 377.623636 240.601779 
L 378.130909 240.908814 
L 379.145455 238.930601 
L 379.652727 236.639674 
L 380.16 236.221183 
L 380.667273 240.503664 
L 381.174545 239.044748 
L 381.681818 241.114566 
L 382.189091 240.4507 
L 382.696364 240.639699 
L 383.203636 241.272397 
L 383.710909 235.827606 
L 384.218182 234.651123 
L 384.725455 236.684249 
L 385.232727 237.923331 
L 385.74 234.579641 
L 386.247273 233.846234 
L 386.754545 235.717492 
L 387.261818 236.239871 
L 387.769091 239.332785 
L 388.276364 243.882702 
L 388.783636 244.920126 
L 389.290909 242.713586 
L 389.798182 238.789048 
L 390.305455 236.657063 
L 390.812727 235.883842 
L 391.32 234.417243 
L 391.827273 232.549503 
L 392.841818 229.740261 
L 393.349091 228.880569 
L 393.856364 232.267959 
L 394.363636 232.284757 
L 394.870909 229.597131 
L 395.378182 230.276277 
L 395.885455 232.098577 
L 396.392727 232.129669 
L 396.9 232.01649 
L 397.914545 229.986153 
L 398.421818 230.768553 
L 398.929091 230.21966 
L 399.436364 229.903692 
L 399.943636 229.054894 
L 400.450909 230.325506 
L 400.958182 226.402327 
L 401.465455 229.621011 
L 401.972727 233.556524 
L 402.48 231.263485 
L 402.987273 230.601931 
L 403.494545 227.676328 
L 404.001818 228.733806 
L 404.509091 229.170853 
L 405.016364 230.321942 
L 405.523636 230.997658 
L 406.030909 229.792241 
L 406.538182 230.841716 
L 407.045455 229.777196 
L 407.552727 229.454726 
L 408.06 231.161384 
L 408.567273 232.050975 
L 409.074545 230.260011 
L 409.581818 229.158183 
L 410.596364 224.376684 
L 411.103636 224.161715 
L 411.610909 223.798921 
L 412.625455 224.51743 
L 413.132727 221.642975 
L 414.147273 229.024906 
L 414.654545 231.559779 
L 415.161818 232.268236 
L 415.669091 231.935983 
L 416.683636 237.85842 
L 417.190909 238.370562 
L 417.698182 238.005692 
L 418.205455 241.158549 
L 418.712727 241.159386 
L 419.22 235.643844 
L 419.727273 236.090729 
L 420.234545 234.017978 
L 420.741818 233.153086 
L 421.249091 231.288029 
L 421.756364 231.539099 
L 422.770909 227.30556 
L 423.278182 231.192701 
L 423.785455 233.577323 
L 424.292727 233.948028 
L 425.307273 230.873689 
L 425.814545 230.579801 
L 426.321818 230.140094 
L 426.829091 225.643516 
L 427.336364 228.03481 
L 427.843636 225.815984 
L 428.350909 229.962883 
L 428.858182 232.803485 
L 429.365455 231.026823 
L 430.38 221.143048 
L 430.887273 222.306092 
L 431.394545 222.163259 
L 431.901818 223.146919 
L 432.409091 221.333388 
L 432.916364 218.113602 
L 433.423636 215.970954 
L 433.930909 215.064885 
L 434.438182 209.616547 
L 434.945455 210.975506 
L 435.452727 211.096956 
L 435.96 212.043147 
L 436.467273 211.325552 
L 436.974545 210.173649 
L 437.481818 211.785699 
L 438.496364 216.442011 
L 439.003636 213.493041 
L 439.510909 213.177989 
L 440.018182 211.0766 
L 440.525455 210.182011 
L 441.032727 211.209646 
L 441.54 211.951489 
L 442.047273 212.1083 
L 442.554545 211.844157 
L 443.061818 212.968943 
L 443.569091 213.03935 
L 444.076364 212.672229 
L 444.583636 210.224648 
L 445.090909 209.159471 
L 445.598182 209.833496 
L 446.105455 208.745717 
L 446.612727 208.20738 
L 447.12 208.65873 
L 447.627273 208.198755 
L 449.149091 200.617724 
L 449.656364 203.895602 
L 450.163636 202.701486 
L 450.670909 203.628661 
L 451.178182 204.252299 
L 452.192727 211.017622 
L 452.7 208.905658 
L 453.207273 208.038714 
L 453.714545 209.551134 
L 454.221818 208.192749 
L 454.729091 208.061259 
L 455.743636 204.258084 
L 456.250909 203.428242 
L 456.758182 203.05549 
L 457.265455 202.078037 
L 457.772727 199.33138 
L 458.28 200.035689 
L 458.787273 199.104515 
L 459.294545 199.556149 
L 459.801818 199.467815 
L 460.309091 196.005164 
L 460.816364 195.738782 
L 461.323636 195.062964 
L 461.830909 195.602692 
L 462.338182 194.624969 
L 462.845455 192.950834 
L 463.352727 193.647712 
L 463.86 191.445331 
L 464.874545 195.639119 
L 465.381818 191.520906 
L 465.889091 189.696519 
L 466.396364 190.707834 
L 467.410909 187.103714 
L 467.918182 183.866395 
L 468.425455 182.261852 
L 468.932727 182.192829 
L 469.44 183.095909 
L 469.947273 183.332218 
L 470.454545 183.200064 
L 470.961818 184.85984 
L 471.976364 188.892627 
L 472.483636 187.120097 
L 472.990909 184.356581 
L 473.498182 186.315284 
L 474.512727 182.506712 
L 475.02 181.175342 
L 475.527273 184.008321 
L 476.034545 186.047587 
L 476.541818 184.724718 
L 477.049091 185.712728 
L 477.556364 185.823495 
L 478.063636 185.106324 
L 478.570909 184.794852 
L 479.078182 183.818794 
L 479.585455 185.097856 
L 480.092727 188.000056 
L 480.6 188.911382 
L 481.107273 191.596274 
L 481.614545 190.630543 
L 482.121818 187.74438 
L 483.136364 185.555251 
L 483.643636 186.75652 
L 484.150909 188.285337 
L 484.658182 192.877329 
L 485.165455 193.328138 
L 485.672727 195.48493 
L 486.687273 187.75155 
L 487.194545 188.966103 
L 488.209091 186.65015 
L 488.716364 184.245937 
L 489.223636 185.095882 
L 489.730909 189.006059 
L 490.238182 187.068918 
L 490.745455 190.103382 
L 491.252727 190.564618 
L 491.76 192.376426 
L 492.267273 191.253009 
L 492.774545 192.949164 
L 493.281818 193.058532 
L 493.789091 195.428236 
L 494.296364 196.243112 
L 494.803636 198.180633 
L 495.310909 197.711086 
L 495.818182 199.296704 
L 496.325455 201.3907 
L 496.832727 200.101876 
L 497.34 198.044109 
L 498.354545 204.906837 
L 499.369091 207.511319 
L 499.876364 209.627364 
L 500.383636 208.595024 
L 500.890909 204.691281 
L 501.398182 205.640441 
L 501.905455 207.448348 
L 502.412727 203.838462 
L 502.92 205.581225 
L 503.427273 200.610037 
L 503.934545 197.64326 
L 504.441818 195.701521 
L 504.949091 195.849274 
L 505.456364 198.267155 
L 506.470909 192.211918 
L 506.978182 190.790301 
L 507.992727 191.095226 
L 508.5 191.422685 
L 509.007273 189.690817 
L 510.529091 194.824629 
L 511.036364 193.527646 
L 511.543636 191.580464 
L 512.050909 191.671386 
L 512.558182 189.902571 
L 513.065455 189.965179 
L 513.572727 190.153575 
L 514.08 193.069164 
L 514.587273 197.659025 
L 515.094545 198.381772 
L 515.601818 199.568032 
L 516.109091 199.354834 
L 516.616364 199.620215 
L 517.123636 198.223144 
L 517.630909 197.88918 
L 518.138182 198.857592 
L 518.645455 199.336429 
L 519.152727 201.682193 
L 519.66 200.524529 
L 520.167273 200.139193 
L 520.674545 200.536233 
L 521.181818 199.722511 
L 521.689091 199.655576 
L 522.196364 201.146516 
L 522.703636 203.321824 
L 523.210909 204.262363 
L 523.718182 202.06197 
L 524.225455 205.903969 
L 524.732727 207.176762 
L 525.24 206.263346 
L 525.747273 209.163538 
L 526.254545 208.781453 
L 526.761818 207.643367 
L 527.269091 205.876336 
L 527.776364 204.912006 
L 528.283636 203.431032 
L 528.790909 201.429478 
L 529.298182 204.805301 
L 529.805455 209.214916 
L 530.312727 209.77229 
L 530.82 212.609229 
L 531.327273 214.36921 
L 531.834545 213.041086 
L 532.849091 215.859811 
L 533.356364 214.42003 
L 533.863636 208.728496 
L 534.370909 207.363077 
L 534.878182 209.007787 
L 535.385455 208.488904 
L 535.892727 206.958139 
L 536.4 207.91092 
L 536.907273 205.717343 
L 537.414545 206.411836 
L 537.921818 209.348485 
L 538.429091 209.137658 
L 538.936364 205.625754 
L 539.443636 204.60145 
L 540.458182 205.738341 
L 540.965455 203.746923 
L 541.472727 203.720398 
L 541.98 202.935623 
L 542.487273 202.963336 
L 542.994545 204.847673 
L 543.501818 203.452916 
L 544.009091 202.546985 
L 544.516364 202.681291 
L 545.530909 195.878712 
L 546.038182 196.490735 
L 546.545455 196.851561 
L 547.052727 198.315283 
L 547.56 199.226226 
L 548.067273 195.819668 
L 548.574545 196.885768 
L 549.081818 195.995037 
L 549.589091 195.55187 
L 550.096364 193.361701 
L 551.110909 187.55706 
L 551.618182 192.624938 
L 552.125455 194.245343 
L 552.632727 194.441499 
L 553.14 191.570784 
L 554.154545 193.549584 
L 554.661818 193.748686 
L 555.169091 193.640522 
L 555.676364 189.348787 
L 556.183636 187.348485 
L 556.690909 186.22935 
L 557.198182 187.547242 
L 557.705455 186.607893 
L 558.212727 184.698694 
L 558.72 183.931952 
L 559.227273 184.969827 
L 559.734545 184.201924 
L 560.749091 180.488231 
L 561.256364 181.580951 
L 562.270909 184.742427 
L 563.285455 180.880477 
L 564.3 183.149726 
L 564.807273 180.864221 
L 565.314545 182.611146 
L 565.821818 181.984011 
L 566.329091 180.068884 
L 566.836364 178.883979 
L 567.343636 179.681984 
L 567.850909 178.445581 
L 568.358182 177.650591 
L 568.865455 175.988018 
L 569.372727 175.658632 
L 569.88 176.870953 
L 570.387273 179.408103 
L 571.401818 176.519605 
L 571.909091 173.640627 
L 572.923636 170.982329 
L 573.430909 168.314549 
L 573.938182 169.948308 
L 574.445455 170.824069 
L 574.952727 172.098442 
L 575.46 169.847566 
L 576.981818 168.764203 
L 577.489091 166.882126 
L 577.996364 163.833642 
L 578.503636 166.132438 
L 579.010909 164.005827 
L 579.518182 160.566668 
L 580.025455 163.01351 
L 580.532727 163.136034 
L 581.04 164.408306 
L 581.547273 166.873761 
L 582.054545 164.21487 
L 582.561818 165.55168 
L 583.069091 163.399905 
L 583.576364 164.894519 
L 584.083636 164.01834 
L 584.590909 164.874107 
L 585.098182 162.539043 
L 586.112727 169.574338 
L 586.62 170.138804 
L 587.127273 170.993418 
L 587.634545 173.097617 
L 588.141818 169.668535 
L 588.649091 171.850916 
L 589.156364 172.920062 
L 589.663636 178.657844 
L 590.170909 177.102212 
L 590.678182 176.972007 
L 591.185455 177.274121 
L 591.692727 180.897586 
L 592.2 178.164735 
L 592.707273 176.298155 
L 593.214545 171.849544 
L 593.721818 170.153056 
L 594.229091 169.364735 
L 594.736364 169.304257 
L 595.243636 169.64911 
L 595.750909 167.112392 
L 596.258182 170.779489 
L 596.765455 169.623732 
L 597.272727 170.289036 
L 597.78 169.537142 
L 598.287273 166.026749 
L 598.794545 165.271376 
L 599.301818 168.132723 
L 600.316364 163.724477 
L 600.823636 160.248082 
L 601.330909 160.191114 
L 601.838182 161.492277 
L 602.345455 163.683334 
L 602.852727 164.728271 
L 603.36 170.933342 
L 603.867273 173.391924 
L 604.374545 172.96898 
L 605.389091 171.632677 
L 605.896364 167.455417 
L 606.910909 169.540985 
L 607.418182 170.505368 
L 607.925455 170.091254 
L 608.432727 168.220423 
L 609.447273 173.737631 
L 609.954545 173.328297 
L 610.461818 173.250294 
L 610.969091 172.625707 
L 611.476364 172.869815 
L 611.983636 174.998255 
L 612.490909 174.494024 
L 613.505455 178.395272 
L 614.012727 178.845085 
L 615.027273 174.50324 
L 615.534545 171.704334 
L 616.041818 172.568347 
L 616.549091 172.292189 
L 617.056364 171.657794 
L 617.563636 169.90795 
L 618.070909 171.8606 
L 618.578182 174.434713 
L 619.085455 173.685584 
L 619.592727 171.579661 
L 620.1 173.775025 
L 620.607273 171.531963 
L 621.114545 172.543352 
L 621.621818 172.804175 
L 622.129091 175.20162 
L 622.636364 173.384357 
L 622.636364 173.384357 
" clip-path="url(#p2919f5237b)" style="fill: none; stroke: #ff7f0e; stroke-width: 0.5; stroke-linecap: square"/>
   </g>
   <g id="patch_3">
    <path d="M 90 384.48 
L 90 51.84 
" style="fill: none; stroke: #000000; stroke-width: 0.8; stroke-linejoin: miter; stroke-linecap: square"/>
   </g>
   <g id="patch_4">
    <path d="M 648 384.48 
L 648 51.84 
" style="fill: none; stroke: #000000; stroke-width: 0.8; stroke-linejoin: miter; stroke-linecap: square"/>
   </g>
   <g id="patch_5">
    <path d="M 90 384.48 
L 648 384.48 
" style="fill: none; stroke: #000000; stroke-width: 0.8; stroke-linejoin: miter; stroke-linecap: square"/>
   </g>
   <g id="patch_6">
    <path d="M 90 51.84 
L 648 51.84 
" style="fill: none; stroke: #000000; stroke-width: 0.8; stroke-linejoin: miter; stroke-linecap: square"/>
   </g>
   <g id="text_13">
    <!-- Multifactor approximation paths -->
    <g transform="translate(272.834063 45.84) scale(0.12 -0.12)">
     <defs>
      <path id="DejaVuSans-4d" d="M 628 4666 
L 1569 4666 
L 2759 1491 
L 3956 4666 
L 4897 4666 
L 4897 0 
L 4281 0 
L 4281 4097 
L 3078 897 
L 2444 897 
L 1241 4097 
L 1241 0 
L 628 0 
L 628 4666 
z
" transform="scale(0.015625)"/>
      <path id="DejaVuSans-75" d="M 544 1381 
L 544 3500 
L 1119 3500 
L 1119 1403 
Q 1119 906 1312 657 
Q 1506 409 1894 409 
Q 2359 409 2629 706 
Q 2900 1003 2900 1516 
L 2900 3500 
L 3475 3500 
L 3475 0 
L 2900 0 
L 2900 538 
Q 2691 219 2414 64 
Q 2138 -91 1772 -91 
Q 1169 -91 856 284 
Q 544 659 544 1381 
z
M 1991 3584 
L 1991 3584 
z
" transform="scale(0.015625)"/>
      <path id="DejaVuSans-6c" d="M 603 4863 
L 1178 4863 
L 1178 0 
L 603 0 
L 603 4863 
z
" transform="scale(0.015625)"/>
      <path id="DejaVuSans-74" d="M 1172 4494 
L 1172 3500 
L 2356 3500 
L 2356 3053 
L 1172 3053 
L 1172 1153 
Q 1172 725 1289 603 
Q 1406 481 1766 481 
L 2356 481 
L 2356 0 
L 1766 0 
Q 1100 0 847 248 
Q 594 497 594 1153 
L 594 3053 
L 172 3053 
L 172 3500 
L 594 3500 
L 594 4494 
L 1172 4494 
z
" transform="scale(0.015625)"/>
      <path id="DejaVuSans-69" d="M 603 3500 
L 1178 3500 
L 1178 0 
L 603 0 
L 603 3500 
z
M 603 4863 
L 1178 4863 
L 1178 4134 
L 603 4134 
L 603 4863 
z
" transform="scale(0.015625)"/>
      <path id="DejaVuSans-66" d="M 2375 4863 
L 2375 4384 
L 1825 4384 
Q 1516 4384 1395 4259 
Q 1275 4134 1275 3809 
L 1275 3500 
L 2222 3500 
L 2222 3053 
L 1275 3053 
L 1275 0 
L 697 0 
L 697 3053 
L 147 3053 
L 147 3500 
L 697 3500 
L 697 3744 
Q 697 4328 969 4595 
Q 1241 4863 1831 4863 
L 2375 4863 
z
" transform="scale(0.015625)"/>
      <path id="DejaVuSans-61" d="M 2194 1759 
Q 1497 1759 1228 1600 
Q 959 1441 959 1056 
Q 959 750 1161 570 
Q 1363 391 1709 391 
Q 2188 391 2477 730 
Q 2766 1069 2766 1631 
L 2766 1759 
L 2194 1759 
z
M 3341 1997 
L 3341 0 
L 2766 0 
L 2766 531 
Q 2569 213 2275 61 
Q 1981 -91 1556 -91 
Q 1019 -91 701 211 
Q 384 513 384 1019 
Q 384 1609 779 1909 
Q 1175 2209 1959 2209 
L 2766 2209 
L 2766 2266 
Q 2766 2663 2505 2880 
Q 2244 3097 1772 3097 
Q 1472 3097 1187 3025 
Q 903 2953 641 2809 
L 641 3341 
Q 956 3463 1253 3523 
Q 1550 3584 1831 3584 
Q 2591 3584 2966 3190 
Q 3341 2797 3341 1997 
z
" transform="scale(0.015625)"/>
      <path id="DejaVuSans-63" d="M 3122 3366 
L 3122 2828 
Q 2878 2963 2633 3030 
Q 2388 3097 2138 3097 
Q 1578 3097 1268 2742 
Q 959 2388 959 1747 
Q 959 1106 1268 751 
Q 1578 397 2138 397 
Q 2388 397 2633 464 
Q 2878 531 3122 666 
L 3122 134 
Q 2881 22 2623 -34 
Q 2366 -91 2075 -91 
Q 1284 -91 818 406 
Q 353 903 353 1747 
Q 353 2603 823 3093 
Q 1294 3584 2113 3584 
Q 2378 3584 2631 3529 
Q 2884 3475 3122 3366 
z
" transform="scale(0.015625)"/>
      <path id="DejaVuSans-6f" d="M 1959 3097 
Q 1497 3097 1228 2736 
Q 959 2375 959 1747 
Q 959 1119 1226 758 
Q 1494 397 1959 397 
Q 2419 397 2687 759 
Q 2956 1122 2956 1747 
Q 2956 2369 2687 2733 
Q 2419 3097 1959 3097 
z
M 1959 3584 
Q 2709 3584 3137 3096 
Q 3566 2609 3566 1747 
Q 3566 888 3137 398 
Q 2709 -91 1959 -91 
Q 1206 -91 779 398 
Q 353 888 353 1747 
Q 353 2609 779 3096 
Q 1206 3584 1959 3584 
z
" transform="scale(0.015625)"/>
      <path id="DejaVuSans-72" d="M 2631 2963 
Q 2534 3019 2420 3045 
Q 2306 3072 2169 3072 
Q 1681 3072 1420 2755 
Q 1159 2438 1159 1844 
L 1159 0 
L 581 0 
L 581 3500 
L 1159 3500 
L 1159 2956 
Q 1341 3275 1631 3429 
Q 1922 3584 2338 3584 
Q 2397 3584 2469 3576 
Q 2541 3569 2628 3553 
L 2631 2963 
z
" transform="scale(0.015625)"/>
      <path id="DejaVuSans-20" transform="scale(0.015625)"/>
      <path id="DejaVuSans-70" d="M 1159 525 
L 1159 -1331 
L 581 -1331 
L 581 3500 
L 1159 3500 
L 1159 2969 
Q 1341 3281 1617 3432 
Q 1894 3584 2278 3584 
Q 2916 3584 3314 3078 
Q 3713 2572 3713 1747 
Q 3713 922 3314 415 
Q 2916 -91 2278 -91 
Q 1894 -91 1617 61 
Q 1341 213 1159 525 
z
M 3116 1747 
Q 3116 2381 2855 2742 
Q 2594 3103 2138 3103 
Q 1681 3103 1420 2742 
Q 1159 2381 1159 1747 
Q 1159 1113 1420 752 
Q 1681 391 2138 391 
Q 2594 391 2855 752 
Q 3116 1113 3116 1747 
z
" transform="scale(0.015625)"/>
      <path id="DejaVuSans-78" d="M 3513 3500 
L 2247 1797 
L 3578 0 
L 2900 0 
L 1881 1375 
L 863 0 
L 184 0 
L 1544 1831 
L 300 3500 
L 978 3500 
L 1906 2253 
L 2834 3500 
L 3513 3500 
z
" transform="scale(0.015625)"/>
      <path id="DejaVuSans-6d" d="M 3328 2828 
Q 3544 3216 3844 3400 
Q 4144 3584 4550 3584 
Q 5097 3584 5394 3201 
Q 5691 2819 5691 2113 
L 5691 0 
L 5113 0 
L 5113 2094 
Q 5113 2597 4934 2840 
Q 4756 3084 4391 3084 
Q 3944 3084 3684 2787 
Q 3425 2491 3425 1978 
L 3425 0 
L 2847 0 
L 2847 2094 
Q 2847 2600 2669 2842 
Q 2491 3084 2119 3084 
Q 1678 3084 1418 2786 
Q 1159 2488 1159 1978 
L 1159 0 
L 581 0 
L 581 3500 
L 1159 3500 
L 1159 2956 
Q 1356 3278 1631 3431 
Q 1906 3584 2284 3584 
Q 2666 3584 2933 3390 
Q 3200 3197 3328 2828 
z
" transform="scale(0.015625)"/>
      <path id="DejaVuSans-6e" d="M 3513 2113 
L 3513 0 
L 2938 0 
L 2938 2094 
Q 2938 2591 2744 2837 
Q 2550 3084 2163 3084 
Q 1697 3084 1428 2787 
Q 1159 2491 1159 1978 
L 1159 0 
L 581 0 
L 581 3500 
L 1159 3500 
L 1159 2956 
Q 1366 3272 1645 3428 
Q 1925 3584 2291 3584 
Q 2894 3584 3203 3211 
Q 3513 2838 3513 2113 
z
" transform="scale(0.015625)"/>
      <path id="DejaVuSans-68" d="M 3513 2113 
L 3513 0 
L 2938 0 
L 2938 2094 
Q 2938 2591 2744 2837 
Q 2550 3084 2163 3084 
Q 1697 3084 1428 2787 
Q 1159 2491 1159 1978 
L 1159 0 
L 581 0 
L 581 4863 
L 1159 4863 
L 1159 2956 
Q 1366 3272 1645 3428 
Q 1925 3584 2291 3584 
Q 2894 3584 3203 3211 
Q 3513 2838 3513 2113 
z
" transform="scale(0.015625)"/>
      <path id="DejaVuSans-73" d="M 2834 3397 
L 2834 2853 
Q 2591 2978 2328 3040 
Q 2066 3103 1784 3103 
Q 1356 3103 1142 2972 
Q 928 2841 928 2578 
Q 928 2378 1081 2264 
Q 1234 2150 1697 2047 
L 1894 2003 
Q 2506 1872 2764 1633 
Q 3022 1394 3022 966 
Q 3022 478 2636 193 
Q 2250 -91 1575 -91 
Q 1294 -91 989 -36 
Q 684 19 347 128 
L 347 722 
Q 666 556 975 473 
Q 1284 391 1588 391 
Q 1994 391 2212 530 
Q 2431 669 2431 922 
Q 2431 1156 2273 1281 
Q 2116 1406 1581 1522 
L 1381 1569 
Q 847 1681 609 1914 
Q 372 2147 372 2553 
Q 372 3047 722 3315 
Q 1072 3584 1716 3584 
Q 2034 3584 2315 3537 
Q 2597 3491 2834 3397 
z
" transform="scale(0.015625)"/>
     </defs>
     <use xlink:href="#DejaVuSans-4d"/>
     <use xlink:href="#DejaVuSans-75" x="86.279297"/>
     <use xlink:href="#DejaVuSans-6c" x="149.658203"/>
     <use xlink:href="#DejaVuSans-74" x="177.441406"/>
     <use xlink:href="#DejaVuSans-69" x="216.650391"/>
     <use xlink:href="#DejaVuSans-66" x="244.433594"/>
     <use xlink:href="#DejaVuSans-61" x="279.638672"/>
     <use xlink:href="#DejaVuSans-63" x="340.917969"/>
     <use xlink:href="#DejaVuSans-74" x="395.898438"/>
     <use xlink:href="#DejaVuSans-6f" x="435.107422"/>
     <use xlink:href="#DejaVuSans-72" x="496.289062"/>
     <use xlink:href="#DejaVuSans-20" x="537.402344"/>
     <use xlink:href="#DejaVuSans-61" x="569.189453"/>
     <use xlink:href="#DejaVuSans-70" x="630.46875"/>
     <use xlink:href="#DejaVuSans-70" x="693.945312"/>
     <use xlink:href="#DejaVuSans-72" x="757.421875"/>
     <use xlink:href="#DejaVuSans-6f" x="796.285156"/>
     <use xlink:href="#DejaVuSans-78" x="854.341797"/>
     <use xlink:href="#DejaVuSans-69" x="913.521484"/>
     <use xlink:href="#DejaVuSans-6d" x="941.304688"/>
     <use xlink:href="#DejaVuSans-61" x="1038.716797"/>
     <use xlink:href="#DejaVuSans-74" x="1099.996094"/>
     <use xlink:href="#DejaVuSans-69" x="1139.205078"/>
     <use xlink:href="#DejaVuSans-6f" x="1166.988281"/>
     <use xlink:href="#DejaVuSans-6e" x="1228.169922"/>
     <use xlink:href="#DejaVuSans-20" x="1291.548828"/>
     <use xlink:href="#DejaVuSans-70" x="1323.335938"/>
     <use xlink:href="#DejaVuSans-61" x="1386.8125"/>
     <use xlink:href="#DejaVuSans-74" x="1448.091797"/>
     <use xlink:href="#DejaVuSans-68" x="1487.300781"/>
     <use xlink:href="#DejaVuSans-73" x="1550.679688"/>
    </g>
   </g>
   <g id="legend_1">
    <g id="patch_7">
     <path d="M 97 89.19625 
L 170.2 89.19625 
Q 172.2 89.19625 172.2 87.19625 
L 172.2 58.84 
Q 172.2 56.84 170.2 56.84 
L 97 56.84 
Q 95 56.84 95 58.84 
L 95 87.19625 
Q 95 89.19625 97 89.19625 
z
" style="fill: #ffffff; opacity: 0.8; stroke: #cccccc; stroke-linejoin: miter"/>
    </g>
    <g id="line2d_13">
     <path d="M 99 64.938437 
L 109 64.938437 
L 119 64.938437 
" style="fill: none; stroke: #1f77b4; stroke-width: 0.5; stroke-linecap: square"/>
    </g>
    <g id="text_14">
     <!-- $\alpha=0.38$ -->
     <g transform="translate(127 68.438437) scale(0.1 -0.1)">
      <defs>
       <path id="DejaVuSans-Oblique-3b1" d="M 2619 1628 
L 2622 2350 
Q 2625 3088 2069 3091 
Q 1653 3094 1394 2747 
Q 1069 2319 959 1747 
Q 825 1059 994 731 
Q 1169 397 1547 397 
Q 1966 397 2319 1063 
L 2619 1628 
z
M 2166 3578 
Q 3141 3594 3128 2584 
Q 3128 2584 3616 3500 
L 4128 3500 
L 3119 1603 
L 3109 919 
Q 3109 766 3194 638 
Q 3291 488 3391 488 
L 3669 488 
L 3575 0 
L 3228 0 
Q 2934 0 2722 263 
Q 2622 394 2619 669 
Q 2416 334 2066 50 
Q 1900 -81 1453 -78 
Q 722 -72 456 397 
Q 184 884 353 1747 
Q 534 2675 1009 3097 
Q 1544 3569 2166 3578 
z
" transform="scale(0.015625)"/>
       <path id="DejaVuSans-3d" d="M 678 2906 
L 4684 2906 
L 4684 2381 
L 678 2381 
L 678 2906 
z
M 678 1631 
L 4684 1631 
L 4684 1100 
L 678 1100 
L 678 1631 
z
" transform="scale(0.015625)"/>
       <path id="DejaVuSans-33" d="M 2597 2516 
Q 3050 2419 3304 2112 
Q 3559 1806 3559 1356 
Q 3559 666 3084 287 
Q 2609 -91 1734 -91 
Q 1441 -91 1130 -33 
Q 819 25 488 141 
L 488 750 
Q 750 597 1062 519 
Q 1375 441 1716 441 
Q 2309 441 2620 675 
Q 2931 909 2931 1356 
Q 2931 1769 2642 2001 
Q 2353 2234 1838 2234 
L 1294 2234 
L 1294 2753 
L 1863 2753 
Q 2328 2753 2575 2939 
Q 2822 3125 2822 3475 
Q 2822 3834 2567 4026 
Q 2313 4219 1838 4219 
Q 1578 4219 1281 4162 
Q 984 4106 628 3988 
L 628 4550 
Q 988 4650 1302 4700 
Q 1616 4750 1894 4750 
Q 2613 4750 3031 4423 
Q 3450 4097 3450 3541 
Q 3450 3153 3228 2886 
Q 3006 2619 2597 2516 
z
" transform="scale(0.015625)"/>
      </defs>
      <use xlink:href="#DejaVuSans-Oblique-3b1" transform="translate(0 0.78125)"/>
      <use xlink:href="#DejaVuSans-3d" transform="translate(85.400391 0.78125)"/>
      <use xlink:href="#DejaVuSans-30" transform="translate(188.671875 0.78125)"/>
      <use xlink:href="#DejaVuSans-2e" transform="translate(252.294922 0.78125)"/>
      <use xlink:href="#DejaVuSans-33" transform="translate(284.082031 0.78125)"/>
      <use xlink:href="#DejaVuSans-38" transform="translate(347.705078 0.78125)"/>
     </g>
    </g>
    <g id="line2d_14">
     <path d="M 99 79.616562 
L 109 79.616562 
L 119 79.616562 
" style="fill: none; stroke: #ff7f0e; stroke-width: 0.5; stroke-linecap: square"/>
    </g>
    <g id="text_15">
     <!-- $\alpha=0.02$ -->
     <g transform="translate(127 83.116562) scale(0.1 -0.1)">
      <use xlink:href="#DejaVuSans-Oblique-3b1" transform="translate(0 0.78125)"/>
      <use xlink:href="#DejaVuSans-3d" transform="translate(85.400391 0.78125)"/>
      <use xlink:href="#DejaVuSans-30" transform="translate(188.671875 0.78125)"/>
      <use xlink:href="#DejaVuSans-2e" transform="translate(252.294922 0.78125)"/>
      <use xlink:href="#DejaVuSans-30" transform="translate(284.082031 0.78125)"/>
      <use xlink:href="#DejaVuSans-32" transform="translate(347.705078 0.78125)"/>
     </g>
    </g>
   </g>
  </g>
 </g>
 <defs>
  <clipPath id="p2919f5237b">
   <rect x="90" y="51.84" width="558" height="332.64"/>
  </clipPath>
 </defs>
</svg>
